<svg width="50" height="50" viewBox="0 0 50 50" fill="none" xmlns="http://www.w3.org/2000/svg">
<rect width="50" height="50" rx="25" fill="#F4C430" fill-opacity="0.2"/>
<path fill-rule="evenodd" clip-rule="evenodd" d="M28.4533 39.2109H21.547C21.4142 39.2109 21.2814 39.2109 21.1486 39.0781C21.0822 38.9452 21.0158 38.8788 21.0822 38.746L22.2111 26.3945C22.2775 25.7304 22.3439 24.8007 22.4767 23.8046C22.5431 23.539 22.8088 23.3398 23.0744 23.4062C23.34 23.4726 23.4728 23.7382 23.4064 23.9374C23.2736 24.9335 23.2072 25.7968 23.1408 26.5273V26.7265L22.0119 38.2812H27.922L26.8595 26.5273C26.8595 25.8632 26.7267 24.9335 26.5939 24.0038C26.5275 23.7382 26.7267 23.4726 26.9924 23.4726C27.258 23.4062 27.5236 23.6054 27.5236 23.8046C27.7228 24.8007 27.7892 25.7968 27.8556 26.4609V26.5937L28.9845 38.746C28.9845 38.8788 28.9181 39.0117 28.8517 39.0781C28.7189 39.2109 28.5861 39.2109 28.4533 39.2109Z" fill="#1A1A1A"/>
<path fill-rule="evenodd" clip-rule="evenodd" d="M28.4533 39.2109C28.3869 39.2109 28.1877 39.2109 28.1213 39.0781L25.0002 36.0898L21.8791 39.0781C21.6799 39.2773 21.3478 39.2773 21.1486 39.0781C20.9494 38.8789 21.0158 38.6133 21.215 38.4141L24.6681 35.0273C24.8674 34.8281 25.133 34.8281 25.3322 35.0273L28.8517 38.4141C29.051 38.6133 29.051 38.8789 28.8517 39.0781C28.7189 39.2109 28.5861 39.2109 28.4533 39.2109Z" fill="#1A1A1A"/>
<path fill-rule="evenodd" clip-rule="evenodd" d="M25 35.8906C24.8672 35.8906 24.7344 35.8242 24.668 35.7578L21.7461 32.9688C21.5469 32.7695 21.5469 32.4375 21.7461 32.2383C21.9453 32.0391 22.2773 32.0391 22.4766 32.2383L25.0664 34.7617L27.6562 32.2383C27.8555 32.0391 28.1211 32.0391 28.3203 32.2383C28.5195 32.4375 28.5195 32.7695 28.3203 32.9688L25.332 35.7578C25.2656 35.8906 25.1328 35.8906 25 35.8906ZM27.8555 31.9062C27.7227 31.9062 27.5898 31.8398 27.5234 31.7734L25 29.3828L22.543 31.7734C22.3438 31.9727 22.0781 31.9727 21.8789 31.7734C21.6797 31.5742 21.6797 31.3086 21.8789 31.1094L24.668 28.3867C24.8672 28.1875 25.1328 28.1875 25.332 28.3867L28.1211 31.1094C28.3203 31.3086 28.3203 31.5742 28.1875 31.7734C28.0547 31.8398 27.9219 31.9062 27.8555 31.9062Z" fill="#1A1A1A"/>
<path fill-rule="evenodd" clip-rule="evenodd" d="M25 29.25C24.8672 29.25 24.7344 29.1836 24.668 29.0508L22.2773 26.793C22.0781 26.5938 22.0781 26.3281 22.2773 26.1289C22.4766 25.9297 22.7422 25.9297 22.9414 26.1289L25 28.0547L27.0586 26.1289C27.1914 25.9297 27.5234 25.9297 27.7227 26.1289C27.9219 26.3281 27.8555 26.5938 27.7227 26.793L25.332 29.0508C25.2656 29.1836 25.1328 29.25 25 29.25Z" fill="#1A1A1A"/>
<path fill-rule="evenodd" clip-rule="evenodd" d="M12.25 25.7968C12.0508 25.7968 11.8516 25.5976 11.7852 25.3984L11.0547 22.6757C11.0547 22.5429 11.0547 22.4101 11.1211 22.3437C11.1875 22.2109 11.2539 22.1445 11.4531 22.0781L20.8164 19.5546C21.082 19.5546 21.3477 19.6875 21.4141 19.8867C21.4805 20.1523 21.3477 20.4179 21.082 20.4843L12.1172 22.875L12.6484 24.7343L21.6133 22.3437C21.8125 22.2773 22.1445 22.4101 22.1445 22.6757C22.2773 22.875 22.0781 23.1406 21.8125 23.207L12.4492 25.7304C12.3828 25.7968 12.3164 25.7968 12.25 25.7968ZM34.8945 25C33.8984 25 33.168 24.2031 32.6367 23.4726C31.9727 22.6093 31.4414 21.6796 31.043 20.75L29.1836 21.2812C28.918 21.3476 28.6523 21.1484 28.5859 20.9492C28.5195 20.6835 28.6523 20.4179 28.918 20.3515L31.1758 19.7539C31.4414 19.6875 31.6406 19.8203 31.7734 20.0195C32.1719 21.0156 32.7031 21.9453 33.4336 22.875C33.9648 23.6054 34.4297 24.0703 34.9609 24.0703C34.9609 24.0703 35.0938 24.0703 35.1602 24.0039L36.9531 23.539C37.4844 23.4062 37.75 22.875 37.8828 21.746C38.2812 18.2265 37.5508 15.371 35.5586 12.914C34.8945 12.1171 34.4297 11.5859 33.7656 11.7851L31.9727 12.25C31.375 12.3828 31.2422 12.9804 31.043 14.1093C30.9102 15.2382 30.8438 16.4335 31.043 17.4296C31.043 17.6953 30.9102 17.8945 30.6445 17.9609L28.3867 18.5585C28.1875 18.625 27.8555 18.4257 27.7891 18.2265C27.7227 17.9609 27.8555 17.6953 28.1211 17.5625L29.9805 17.0976C29.8477 16.1015 29.9141 15.039 30.0469 13.9765C30.1797 13.0468 30.3789 11.6523 31.707 11.3203L33.5 10.8554C34.7617 10.5234 35.625 11.4531 36.2227 12.3164C38.4141 14.9062 39.2109 18.0937 38.8125 21.8125C38.7461 22.5429 38.5469 24.1367 37.1523 24.4687L35.3594 24.9335C35.2266 25 35.0273 25 34.8945 25Z" fill="#1A1A1A"/>
<path fill-rule="evenodd" clip-rule="evenodd" d="M41.5352 39.2109H8.46484C8.19922 39.2109 8 39.0117 8 38.7461C8 38.4805 8.19922 38.2812 8.46484 38.2812H41.5352C41.8008 38.2812 42 38.4805 42 38.7461C42 39.0117 41.8008 39.2109 41.5352 39.2109Z" fill="#1A1A1A"/>
<path fill-rule="evenodd" clip-rule="evenodd" d="M35.0938 34.6953C34.8281 34.6953 34.6289 34.4961 34.6289 34.1641V24.5352C34.6289 24.2695 34.8281 24.0039 35.0938 24.0039C35.3594 24.0039 35.625 24.2695 35.625 24.5352V34.2305C35.625 34.4961 35.3594 34.6953 35.0938 34.6953Z" fill="#1A1A1A"/>
<path fill-rule="evenodd" clip-rule="evenodd" d="M35.7578 39.2109H34.5625C34.2969 39.2109 34.0977 39.0781 34.0977 38.8789L32.9688 34.2969C32.9688 34.1641 32.9688 34.0312 33.0352 33.8984C33.1016 33.832 33.3008 33.6992 33.4336 33.6992H36.8867C37.0195 33.6992 37.1523 33.7656 37.2188 33.8984C37.3516 34.0312 37.418 34.1641 37.3516 34.2969L36.2227 38.8789C36.1562 39.0781 35.957 39.2109 35.7578 39.2109ZM34.9609 38.2812H35.3594L36.2227 34.6953H34.0312L34.9609 38.2812Z" fill="#1A1A1A"/>
<path fill-rule="evenodd" clip-rule="evenodd" d="M13.9102 34.6289C13.6445 34.6289 13.4453 34.4297 13.4453 34.1641V24.8672C13.4453 24.6016 13.6445 24.3359 13.9102 24.3359C14.2422 24.3359 14.4414 24.6016 14.4414 24.8672V34.1641C14.375 34.4297 14.1758 34.6289 13.9102 34.6289Z" fill="#1A1A1A"/>
<path fill-rule="evenodd" clip-rule="evenodd" d="M15.2383 39.2109H12.582C12.3164 39.2109 12.1172 39.0117 12.1172 38.7461V34.1641C12.1172 33.8984 12.3164 33.6328 12.582 33.6328H15.2383C15.5703 33.6328 15.7695 33.8984 15.7695 34.1641V38.7461C15.7031 39.0117 15.5039 39.2109 15.2383 39.2109ZM13.1133 38.2812H14.7734V34.6289H13.1133V38.2812Z" fill="#1A1A1A"/>
<path fill-rule="evenodd" clip-rule="evenodd" d="M25 23.1406C23.4727 23.1406 22.2773 21.9453 22.2773 20.418C22.2773 18.8906 23.4727 17.6953 25 17.6953C26.5273 17.6953 27.7227 18.8906 27.7227 20.418C27.7227 21.9453 26.5273 23.1406 25 23.1406ZM25 18.625C24.0039 18.625 23.207 19.4219 23.207 20.418C23.207 21.3477 24.0039 22.1445 25 22.1445C25.9297 22.1445 26.7266 21.3477 26.7266 20.418C26.7266 19.4219 25.9961 18.625 25 18.625Z" fill="#1A1A1A"/>
<path fill-rule="evenodd" clip-rule="evenodd" d="M25 24.9336C22.4766 24.9336 20.4844 22.9414 20.4844 20.418C20.4844 17.8945 22.4766 15.9023 25 15.9023C27.457 15.9023 29.5156 17.8945 29.5156 20.418C29.5156 22.9414 27.5234 24.9336 25 24.9336ZM25 16.8984C23.0078 16.8984 21.4141 18.4922 21.4141 20.418C21.4141 22.4102 23.0078 24.0039 25 24.0039C26.9258 24.0039 28.5195 22.4102 28.5195 20.418C28.5195 18.4922 26.9258 16.8984 25 16.8984Z" fill="#1A1A1A"/>
</svg>
