<svg width="28" height="28" viewBox="0 0 28 28" fill="none" xmlns="http://www.w3.org/2000/svg">
<path fill-rule="evenodd" clip-rule="evenodd" d="M4.375 17.0625V25.375C4.375 26.0999 4.96256 26.6875 5.6875 26.6875C7.73938 26.6875 12.6875 26.6875 12.6875 26.6875C12.929 26.6875 13.125 26.4915 13.125 26.25C13.125 26.0085 12.929 25.8125 12.6875 25.8125C12.6875 25.8125 7.73938 25.8125 5.6875 25.8125C5.446 25.8125 5.25 25.6165 5.25 25.375V17.0625C5.25 16.821 5.054 16.625 4.8125 16.625C4.571 16.625 4.375 16.821 4.375 17.0625ZM14.4375 26.6875H22.3125C22.6607 26.6875 22.9946 26.5492 23.2404 26.3029C23.4867 26.0571 23.625 25.7232 23.625 25.375V17.9375C23.625 17.696 23.429 17.5 23.1875 17.5C22.946 17.5 22.75 17.696 22.75 17.9375V25.375C22.75 25.4909 22.7041 25.6025 22.6218 25.6843C22.54 25.7666 22.4284 25.8125 22.3125 25.8125H14.4375C14.196 25.8125 14 26.0085 14 26.25C14 26.4915 14.196 26.6875 14.4375 26.6875ZM12.6875 25.375H15.5312C15.7727 25.375 15.9688 25.179 15.9688 24.9375C15.9688 24.696 15.7727 24.5 15.5312 24.5H12.6875C12.446 24.5 12.25 24.696 12.25 24.9375C12.25 25.179 12.446 25.375 12.6875 25.375ZM12.0312 24.0625H16.1875C16.429 24.0625 16.625 23.8665 16.625 23.625C16.625 23.3835 16.429 23.1875 16.1875 23.1875H12.0312C11.7898 23.1875 11.5938 23.3835 11.5938 23.625C11.5938 23.8665 11.7898 24.0625 12.0312 24.0625ZM11.3299 22.6257C11.4117 22.7054 11.5211 22.75 11.6353 22.75H16.3647C16.4789 22.75 16.5883 22.7054 16.6701 22.6257C18.1331 21.2008 19.6875 19.0068 19.6875 16.17C19.6875 13.041 17.1395 10.5 14 10.5C10.8605 10.5 8.3125 13.041 8.3125 16.17C8.3125 19.0068 9.86694 21.2008 11.3299 22.6257ZM15.3125 21.875C15.8257 21.875 16.1853 21.875 16.1853 21.875C17.472 20.5848 18.8125 18.655 18.8125 16.17C18.8125 13.5231 16.6556 11.375 14 11.375C11.3444 11.375 9.1875 13.5231 9.1875 16.17C9.1875 18.655 10.528 20.5848 11.8147 21.875H12.6875V17.5H11.8125C10.8465 17.5 10.0625 16.716 10.0625 15.75C10.0625 14.784 10.8465 14 11.8125 14C12.7785 14 13.5625 14.784 13.5625 15.75V16.625H14.4375V15.75C14.4375 14.784 15.2215 14 16.1875 14C17.1535 14 17.9375 14.784 17.9375 15.75C17.9375 16.716 17.1535 17.5 16.1875 17.5H15.3125V21.875ZM13.5625 17.5V21.875H14.4375V17.5H13.5625ZM15.3125 16.625H16.1875C16.6705 16.625 17.0625 16.233 17.0625 15.75C17.0625 15.267 16.6705 14.875 16.1875 14.875C15.7045 14.875 15.3125 15.267 15.3125 15.75V16.625ZM12.6875 16.625V15.75C12.6875 15.267 12.2955 14.875 11.8125 14.875C11.3295 14.875 10.9375 15.267 10.9375 15.75C10.9375 16.233 11.3295 16.625 11.8125 16.625H12.6875ZM4.375 4.375V15.3125C4.375 15.554 4.571 15.75 4.8125 15.75C5.054 15.75 5.25 15.554 5.25 15.3125V6.65831C5.25744 6.66575 5.26444 6.67319 5.27188 6.68062C5.84631 7.25506 6.62506 7.5775 7.4375 7.5775C9.57819 7.5775 12.25 7.5775 12.25 7.5775C12.4915 7.5775 12.6875 7.3815 12.6875 7.14C12.6875 6.8985 12.4915 6.7025 12.25 6.7025C12.25 6.7025 9.57819 6.7025 7.4375 6.7025C6.85737 6.7025 6.30087 6.47194 5.8905 6.062C5.48056 5.65163 5.25 5.09512 5.25 4.515C5.25 4.46819 5.25 4.42181 5.25 4.375C5.25 3.79487 5.48056 3.23838 5.8905 2.828C6.30087 2.41806 6.85737 2.1875 7.4375 2.1875H20.9799V4.0075H7.4375C7.196 4.0075 7 4.2035 7 4.445C7 4.6865 7.196 4.8825 7.4375 4.8825H20.9799V6.7025H16.8757H16.8748H14C13.7585 6.7025 13.5625 6.8985 13.5625 7.14C13.5625 7.3815 13.7585 7.5775 14 7.5775H22.3125C22.554 7.5775 22.75 7.7735 22.75 8.015V15.9688C22.75 16.2102 22.946 16.4062 23.1875 16.4062C23.429 16.4062 23.625 16.2102 23.625 15.9688V8.015C23.625 7.29006 23.0374 6.7025 22.3125 6.7025H21.8549V1.75C21.8549 1.5085 21.6589 1.3125 21.4174 1.3125H7.4375C6.62506 1.3125 5.84631 1.63494 5.27188 2.20938C4.69744 2.78381 4.375 3.56256 4.375 4.375ZM11.5898 10.1535L11.1523 9.39575C11.0316 9.18663 10.7638 9.11488 10.5547 9.23563C10.3456 9.35638 10.2738 9.62412 10.3946 9.83325L10.8321 10.591C10.9528 10.8001 11.2206 10.8719 11.4297 10.7511C11.6388 10.6304 11.7106 10.3626 11.5898 10.1535ZM17.1679 10.591L17.6054 9.83325C17.7262 9.62412 17.6544 9.35638 17.4453 9.23563C17.2362 9.11488 16.9684 9.18663 16.8477 9.39575L16.4102 10.1535C16.2894 10.3626 16.3612 10.6304 16.5703 10.7511C16.7794 10.8719 17.0472 10.8001 17.1679 10.591ZM14.4375 9.625V8.75C14.4375 8.5085 14.2415 8.3125 14 8.3125C13.7585 8.3125 13.5625 8.5085 13.5625 8.75V9.625C13.5625 9.8665 13.7585 10.0625 14 10.0625C14.2415 10.0625 14.4375 9.8665 14.4375 9.625Z" fill="black"/>
</svg>
