<svg width="26" height="26" viewBox="0 0 26 26" fill="none" xmlns="http://www.w3.org/2000/svg">
<path d="M25.1875 2.03125C25.1871 1.70813 25.0586 1.39835 24.8302 1.16987C24.6016 0.941393 24.2919 0.812871 23.9688 0.8125H17.875C17.5519 0.812871 17.2421 0.941393 17.0136 1.16987C16.7851 1.39835 16.6566 1.70813 16.6562 2.03125V8.125C16.656 8.42502 16.767 8.71447 16.9676 8.9375C16.767 9.16053 16.656 9.44998 16.6562 9.75V10.675C16.605 10.632 16.5532 10.5895 16.5002 10.5481L15.9998 11.1882C16.8 11.8129 17.3852 12.6718 17.6738 13.645C17.9624 14.6183 17.94 15.6574 17.6097 16.6173C17.2794 17.5772 16.6577 18.4101 15.8314 18.9997C15.0049 19.5893 14.0152 19.9062 13 19.9062C12.7487 19.9063 12.4979 19.8871 12.2496 19.8489L12.1254 20.6519C12.4148 20.6964 12.7072 20.7188 13 20.7188C14.3382 20.7199 15.6335 20.247 16.6562 19.3841V23.9688C16.6561 24.0765 16.6133 24.1797 16.5371 24.2559C16.4609 24.332 16.3577 24.3749 16.25 24.375H9.75C9.64229 24.3749 9.53905 24.332 9.46288 24.2559C9.38671 24.1797 9.34385 24.0765 9.34375 23.9688V18.8422L9.62503 18.5491C8.92308 17.8756 8.43863 17.0076 8.23403 16.0565C8.02943 15.1055 8.11408 14.115 8.47702 13.2124C8.83995 12.3099 9.46461 11.5365 10.2706 10.9919C11.0767 10.4473 12.0272 10.1562 13 10.1562C13.1248 10.1562 13.2512 10.161 13.3756 10.1705L13.437 9.36025C13.2922 9.34929 13.1452 9.34375 13 9.34375C12.1146 9.34522 11.2417 9.55307 10.4506 9.95079C9.65956 10.3485 8.97208 10.9251 8.44274 11.6348C7.91339 12.3446 7.55676 13.168 7.40116 14.0396C7.24557 14.9113 7.29523 15.8072 7.5463 16.6562H2.03125C1.70813 16.6566 1.39835 16.7851 1.16987 17.0136C0.941393 17.2421 0.812871 17.5519 0.8125 17.875V23.9688C0.812871 24.2919 0.941393 24.6016 1.16987 24.8302C1.39835 25.0586 1.70813 25.1871 2.03125 25.1875H8.125C8.42502 25.1877 8.71447 25.0768 8.9375 24.8762C9.16053 25.0768 9.44998 25.1877 9.75 25.1875H16.25C16.55 25.1877 16.8395 25.0768 17.0625 24.8762C17.2855 25.0768 17.575 25.1877 17.875 25.1875H23.9688C24.2919 25.1871 24.6016 25.0586 24.8302 24.8302C25.0586 24.6016 25.1871 24.2919 25.1875 23.9688V17.875C25.1877 17.575 25.0768 17.2855 24.8762 17.0625C25.0768 16.8395 25.1877 16.55 25.1875 16.25V9.75C25.1877 9.44998 25.0768 9.16053 24.8762 8.9375C25.0768 8.71447 25.1877 8.42502 25.1875 8.125V2.03125ZM5.6875 17.4688H6.90625V19.9062H5.6875V17.4688ZM8.53125 23.9688C8.53115 24.0765 8.48829 24.1797 8.41212 24.2559C8.33595 24.332 8.23271 24.3749 8.125 24.375H2.03125C1.92354 24.3749 1.82028 24.332 1.74412 24.2559C1.66797 24.1797 1.62512 24.0765 1.625 23.9688V17.875C1.62512 17.7673 1.66797 17.6641 1.74412 17.5879C1.82028 17.5117 1.92354 17.4689 2.03125 17.4688H4.875V20.3125C4.87501 20.4203 4.91781 20.5235 4.994 20.5998C5.07018 20.6759 5.17349 20.7188 5.28125 20.7188H7.3125C7.42026 20.7188 7.52355 20.6759 7.59977 20.5998C7.67594 20.5235 7.71875 20.4203 7.71875 20.3125V17.4688H7.85723C8.04025 17.8538 8.26638 18.2169 8.53125 18.5509V23.9688ZM21.5312 1.625H22.75V4.0625H21.5312V1.625ZM24.375 23.9688C24.3749 24.0765 24.332 24.1797 24.2559 24.2559C24.1797 24.332 24.0765 24.3749 23.9688 24.375H17.875C17.7673 24.3749 17.6641 24.332 17.5879 24.2559C17.5117 24.1797 17.4689 24.0765 17.4688 23.9688V18.5457C17.7312 18.2127 17.9556 17.8515 18.138 17.4688H20.7188V20.3125C20.7188 20.4203 20.7616 20.5235 20.8377 20.5998C20.914 20.6759 21.0172 20.7188 21.125 20.7188H23.1562C23.264 20.7188 23.3673 20.6759 23.4435 20.5998C23.5197 20.5235 23.5625 20.4203 23.5625 20.3125V17.4688H23.9688C24.0765 17.4689 24.1797 17.5117 24.2559 17.5879C24.332 17.6641 24.3749 17.7673 24.375 17.875V23.9688ZM21.5312 19.9062V17.4688H22.75V19.9062H21.5312ZM24.375 16.25C24.3749 16.3577 24.332 16.4609 24.2559 16.5371C24.1797 16.6133 24.0765 16.6561 23.9688 16.6562H18.4506C18.7108 15.7826 18.7575 14.8592 18.5866 13.9637C18.4158 13.0683 18.0324 12.227 17.4688 11.5105V9.75C17.4689 9.64229 17.5117 9.53905 17.5879 9.46288C17.6641 9.38671 17.7673 9.34385 17.875 9.34375H20.7188V12.1875C20.7188 12.2953 20.7616 12.3985 20.8377 12.4748C20.914 12.5509 21.0172 12.5938 21.125 12.5938H23.1562C23.264 12.5938 23.3673 12.5509 23.4435 12.4748C23.5197 12.3985 23.5625 12.2953 23.5625 12.1875V9.34375H23.9688C24.0765 9.34385 24.1797 9.38671 24.2559 9.46288C24.332 9.53905 24.3749 9.64229 24.375 9.75V16.25ZM21.5312 11.7812V9.34375H22.75V11.7812H21.5312ZM24.375 8.125C24.3749 8.23271 24.332 8.33595 24.2559 8.41212C24.1797 8.48829 24.0765 8.53115 23.9688 8.53125H17.875C17.7673 8.53115 17.6641 8.48829 17.5879 8.41212C17.5117 8.33595 17.4689 8.23271 17.4688 8.125V2.03125C17.4689 1.92354 17.5117 1.82028 17.5879 1.74412C17.6641 1.66797 17.7673 1.62512 17.875 1.625H20.7188V4.46875C20.7188 4.57649 20.7616 4.67982 20.8377 4.756C20.914 4.83219 21.0172 4.87499 21.125 4.875H23.1562C23.264 4.87499 23.3673 4.83219 23.4435 4.756C23.5197 4.67982 23.5625 4.57649 23.5625 4.46875V1.625H23.9688C24.0765 1.62512 24.1797 1.66797 24.2559 1.74412C24.332 1.82028 24.3749 1.92354 24.375 2.03125V8.125Z" fill="#1A1A1A"/>
<path d="M2.55648 12.4748C2.63268 12.5509 2.73602 12.5938 2.84376 12.5938C2.95151 12.5938 3.05484 12.5509 3.13104 12.4748L7.10938 8.49636L8.44711 9.83414C8.52333 9.91032 8.62667 9.95312 8.73438 9.95312C8.84213 9.95312 8.94547 9.91032 9.02164 9.83414L13.8125 5.04326L15.1502 6.38102C15.2071 6.43784 15.2794 6.47654 15.3582 6.49218C15.437 6.50787 15.5188 6.4998 15.5929 6.46907C15.6672 6.4383 15.7307 6.38625 15.7753 6.31942C15.8199 6.25264 15.8438 6.17409 15.8438 6.09375V1.21875C15.8438 1.11101 15.8009 1.00768 15.7248 0.931496C15.6486 0.855309 15.5453 0.812505 15.4375 0.8125H10.5625C10.4822 0.81251 10.4036 0.836342 10.3368 0.880984C10.27 0.925625 10.2179 0.989072 10.1872 1.0633C10.1565 1.13753 10.1484 1.21921 10.1641 1.29801C10.1798 1.37682 10.2184 1.44921 10.2752 1.50603L11.613 2.84375L8.73438 5.72239L7.39664 4.3846C7.32047 4.30843 7.21713 4.26565 7.10938 4.26565C7.00167 4.26565 6.89833 4.30843 6.82211 4.3846L0.93148 10.2752C0.855298 10.3514 0.8125 10.4547 0.8125 10.5625C0.8125 10.6703 0.855298 10.7736 0.93148 10.8498L2.55648 12.4748ZM7.10938 5.24636L8.44711 6.58414C8.52333 6.66032 8.62667 6.70312 8.73438 6.70312C8.84213 6.70312 8.94547 6.66032 9.02164 6.58414L12.4748 3.13103C12.551 3.05484 12.5938 2.9515 12.5938 2.84375C12.5938 2.736 12.551 2.63266 12.4748 2.55647L11.5433 1.625H15.0312V5.11301L14.0998 4.18147C14.0236 4.10531 13.9203 4.06253 13.8125 4.06253C13.7048 4.06253 13.6015 4.10531 13.5252 4.18147L8.73438 8.97239L7.39664 7.63461C7.32047 7.55843 7.21713 7.51562 7.10938 7.51562C7.00167 7.51562 6.89833 7.55843 6.82211 7.63461L2.84376 11.613L1.79327 10.5625L7.10938 5.24636Z" fill="#1A1A1A"/>
<path d="M16.2144 12.4964L15.5348 11.8168C15.4703 11.7524 15.3859 11.7114 15.2953 11.7007C15.2047 11.6899 15.1131 11.7101 15.0353 11.7577L14.4037 12.1448L14.0475 11.9972L13.8756 11.2803C13.8543 11.1915 13.8038 11.1125 13.7321 11.056C13.6604 10.9995 13.5718 10.9688 13.4805 10.9688H12.5195C12.4282 10.9688 12.3396 10.9995 12.2679 11.056C12.1962 11.1125 12.1457 11.1915 12.1244 11.2803L11.9525 11.9972L11.5963 12.1448L10.9647 11.7577C10.8869 11.7101 10.7953 11.69 10.7047 11.7007C10.614 11.7114 10.5297 11.7524 10.4652 11.8168L9.7856 12.4965C9.72111 12.561 9.68018 12.6453 9.66946 12.7359C9.65875 12.8265 9.6788 12.9181 9.72649 12.9959L10.1135 13.6276L9.96592 13.9837L9.24904 14.1557C9.16028 14.177 9.08126 14.2275 9.02474 14.2992C8.96822 14.3708 8.9375 14.4595 8.9375 14.5507V15.5118C8.9375 15.603 8.96822 15.6917 9.02474 15.7633C9.08126 15.835 9.16028 15.8855 9.24904 15.9068L9.96592 16.0788L10.1135 16.4349L9.72649 17.0666C9.6788 17.1444 9.65875 17.236 9.66946 17.3266C9.68018 17.4172 9.72111 17.5016 9.7856 17.5661L10.4652 18.2457C10.5297 18.3101 10.6141 18.3511 10.7047 18.3618C10.7953 18.3725 10.8869 18.3524 10.9647 18.3048L11.5963 17.9177L11.9525 18.0653L12.1244 18.7822C12.1457 18.871 12.1962 18.95 12.2679 19.0065C12.3396 19.063 12.4282 19.0938 12.5195 19.0938H13.4805C13.5718 19.0938 13.6604 19.063 13.7321 19.0065C13.8038 18.95 13.8543 18.871 13.8756 18.7822L14.0475 18.0653L14.4037 17.9177L15.0353 18.3048C15.1131 18.3524 15.2047 18.3725 15.2953 18.3618C15.386 18.3511 15.4703 18.3101 15.5348 18.2457L16.2144 17.566C16.2789 17.5015 16.3198 17.4172 16.3305 17.3266C16.3413 17.236 16.3212 17.1444 16.2735 17.0666L15.8865 16.4349L16.0341 16.0788L16.751 15.9068C16.8397 15.8855 16.9187 15.835 16.9753 15.7633C17.0318 15.6917 17.0625 15.603 17.0625 15.5118V14.5507C17.0625 14.4595 17.0318 14.3708 16.9753 14.2992C16.9187 14.2275 16.8397 14.177 16.751 14.1557L16.0341 13.9837L15.8865 13.6276L16.2735 12.9959C16.3212 12.9181 16.3413 12.8265 16.3305 12.7359C16.3198 12.6453 16.2789 12.5609 16.2144 12.4964ZM16.25 14.8711V15.1914L15.6433 15.337C15.581 15.3519 15.523 15.3813 15.4743 15.423C15.4255 15.4646 15.3873 15.5172 15.3627 15.5764L15.0566 16.3152C15.0321 16.3744 15.0219 16.4386 15.0269 16.5025C15.0319 16.5664 15.052 16.6283 15.0855 16.6829L15.4134 17.218L15.1867 17.4446L14.6517 17.1167C14.597 17.0832 14.5352 17.0632 14.4713 17.0581C14.4074 17.0531 14.3431 17.0633 14.2839 17.0878L13.5452 17.3939C13.486 17.4185 13.4334 17.4567 13.3917 17.5055C13.3501 17.5543 13.3206 17.6122 13.3057 17.6746L13.1602 18.2812H12.8398L12.6943 17.6746C12.6794 17.6122 12.6499 17.5543 12.6083 17.5055C12.5666 17.4567 12.514 17.4185 12.4548 17.3939L11.7161 17.0878C11.6568 17.0633 11.5926 17.0531 11.5287 17.0581C11.4648 17.0632 11.403 17.0833 11.3483 17.1167L10.8133 17.4446L10.5866 17.218L10.9145 16.6829C10.948 16.6283 10.9681 16.5664 10.9731 16.5025C10.9781 16.4386 10.9679 16.3744 10.9434 16.3152L10.6373 15.5764C10.6127 15.5172 10.5745 15.4646 10.5257 15.423C10.477 15.3813 10.419 15.3519 10.3567 15.3369L9.75 15.1914V14.8711L10.3567 14.7255C10.419 14.7106 10.477 14.6812 10.5257 14.6395C10.5745 14.5979 10.6127 14.5453 10.6373 14.4861L10.9434 13.7473C10.9679 13.6881 10.9781 13.6239 10.9731 13.56C10.9681 13.4961 10.948 13.4342 10.9145 13.3796L10.5866 12.8445L10.8133 12.6179L11.3483 12.9458C11.403 12.9792 11.4648 12.9993 11.5287 13.0043C11.5926 13.0093 11.6568 12.9992 11.7161 12.9747L12.4548 12.6686C12.514 12.644 12.5666 12.6058 12.6083 12.557C12.6499 12.5082 12.6794 12.4503 12.6943 12.3879L12.8398 11.7812H13.1602L13.3057 12.3879C13.3206 12.4503 13.3501 12.5082 13.3917 12.557C13.4334 12.6058 13.486 12.644 13.5452 12.6686L14.2839 12.9747C14.3432 12.9992 14.4074 13.0094 14.4713 13.0044C14.5352 12.9993 14.597 12.9792 14.6517 12.9458L15.1867 12.6179L15.4134 12.8445L15.0855 13.3796C15.052 13.4342 15.0319 13.4961 15.0269 13.56C15.0219 13.6239 15.0321 13.6881 15.0566 13.7473L15.3627 14.4861C15.3873 14.5453 15.4255 14.5979 15.4743 14.6395C15.523 14.6812 15.581 14.7106 15.6433 14.7256L16.25 14.8711Z" fill="#1A1A1A"/>
<path d="M13 13.4062C12.6786 13.4062 12.3644 13.5016 12.0972 13.6801C11.8299 13.8587 11.6217 14.1125 11.4987 14.4094C11.3757 14.7063 11.3435 15.033 11.4062 15.3483C11.4689 15.6635 11.6237 15.953 11.851 16.1803C12.0782 16.4076 12.3678 16.5623 12.683 16.625C12.9982 16.6877 13.3249 16.6555 13.6219 16.5325C13.9188 16.4096 14.1726 16.2013 14.3511 15.934C14.5297 15.6668 14.625 15.3526 14.625 15.0312C14.6245 14.6004 14.4532 14.1874 14.1485 13.8827C13.8439 13.5781 13.4308 13.4068 13 13.4062ZM13 15.8438C12.8393 15.8438 12.6822 15.7961 12.5486 15.7068C12.415 15.6175 12.3108 15.4907 12.2494 15.3422C12.1879 15.1937 12.1718 15.0303 12.2031 14.8728C12.2345 14.7151 12.3119 14.5704 12.4255 14.4567C12.5391 14.3431 12.6839 14.2657 12.8415 14.2343C12.9991 14.203 13.1624 14.2191 13.3109 14.2806C13.4594 14.3421 13.5863 14.4462 13.6756 14.5799C13.7649 14.7135 13.8125 14.8705 13.8125 15.0312C13.8122 15.2467 13.7266 15.4532 13.5742 15.6055C13.4219 15.7578 13.2154 15.8435 13 15.8438Z" fill="#1A1A1A"/>
<path d="M2.03125 4.0625C2.35437 4.06287 2.66415 4.19139 2.89263 4.41987C3.12111 4.64835 3.24963 4.95813 3.25 5.28125C3.25 5.38901 3.2928 5.49235 3.36899 5.56852C3.44517 5.64469 3.54851 5.6875 3.65625 5.6875C3.76399 5.6875 3.86733 5.64469 3.94351 5.56852C4.0197 5.49235 4.0625 5.38901 4.0625 5.28125C4.06287 4.95813 4.19139 4.64835 4.41987 4.41987C4.64835 4.19139 4.95813 4.06287 5.28125 4.0625C5.38901 4.0625 5.49235 4.0197 5.56852 3.94351C5.64469 3.86733 5.6875 3.76399 5.6875 3.65625C5.6875 3.54851 5.64469 3.44517 5.56852 3.36899C5.49235 3.2928 5.38901 3.25 5.28125 3.25C4.95813 3.24963 4.64835 3.12111 4.41987 2.89263C4.19139 2.66415 4.06287 2.35437 4.0625 2.03125C4.0625 1.92351 4.0197 1.82017 3.94351 1.74399C3.86733 1.6678 3.76399 1.625 3.65625 1.625C3.54851 1.625 3.44517 1.6678 3.36899 1.74399C3.2928 1.82017 3.25 1.92351 3.25 2.03125C3.24963 2.35437 3.12111 2.66415 2.89263 2.89263C2.66415 3.12111 2.35437 3.24963 2.03125 3.25C1.92351 3.25 1.82017 3.2928 1.74399 3.36899C1.6678 3.44517 1.625 3.54851 1.625 3.65625C1.625 3.76399 1.6678 3.86733 1.74399 3.94351C1.82017 4.0197 1.92351 4.0625 2.03125 4.0625ZM3.65625 3.24871C3.7722 3.4031 3.9094 3.5403 4.06379 3.65625C3.9094 3.7722 3.7722 3.9094 3.65625 4.06379C3.5403 3.9094 3.4031 3.7722 3.24871 3.65625C3.4031 3.5403 3.5403 3.4031 3.65625 3.24871Z" fill="#1A1A1A"/>
<path d="M13.8125 6.5C13.5715 6.5 13.3358 6.5715 13.1354 6.70541C12.935 6.83932 12.7788 7.02965 12.6865 7.25237C12.5943 7.47505 12.5701 7.72012 12.6172 7.95651C12.6642 8.19295 12.7803 8.41009 12.9507 8.58056C13.1212 8.75098 13.3383 8.86707 13.5748 8.91409C13.8111 8.96111 14.0562 8.93699 14.2789 8.84472C14.5016 8.7525 14.6919 8.59625 14.8258 8.39587C14.9598 8.19543 15.0313 7.95981 15.0313 7.71875C15.0309 7.39563 14.9024 7.08586 14.6739 6.85735C14.4454 6.62888 14.1356 6.50036 13.8125 6.5ZM13.8125 8.125C13.7322 8.125 13.6536 8.10118 13.5868 8.05655C13.52 8.01191 13.4679 7.94843 13.4372 7.87419C13.4064 7.8 13.3984 7.71829 13.4141 7.63948C13.4297 7.56067 13.4684 7.4883 13.5252 7.43148C13.5821 7.37466 13.6544 7.33596 13.7332 7.32032C13.8121 7.30463 13.8938 7.31265 13.968 7.34343C14.0422 7.37415 14.1057 7.42625 14.1503 7.49303C14.1949 7.55986 14.2188 7.63841 14.2188 7.71875C14.2187 7.82646 14.1758 7.9297 14.0996 8.00587C14.0235 8.08204 13.9202 8.1249 13.8125 8.125Z" fill="#1A1A1A"/>
<path d="M4.875 12.5938C4.875 12.486 4.8322 12.3827 4.75601 12.3065C4.67983 12.2303 4.57649 12.1875 4.46875 12.1875C4.36101 12.1875 4.25767 12.2303 4.18149 12.3065C4.1053 12.3827 4.0625 12.486 4.0625 12.5938C4.06213 12.9169 3.93361 13.2266 3.70513 13.4552C3.47665 13.6836 3.16687 13.8121 2.84375 13.8125C2.73601 13.8125 2.63267 13.8553 2.55649 13.9315C2.4803 14.0077 2.4375 14.111 2.4375 14.2188C2.4375 14.3265 2.4803 14.4298 2.55649 14.506C2.63267 14.5822 2.73601 14.625 2.84375 14.625C3.16687 14.6254 3.47665 14.7539 3.70513 14.9823C3.93361 15.2109 4.06213 15.5206 4.0625 15.8438C4.0625 15.9515 4.1053 16.0548 4.18149 16.131C4.25767 16.2072 4.36101 16.25 4.46875 16.25C4.57649 16.25 4.67983 16.2072 4.75601 16.131C4.8322 16.0548 4.875 15.9515 4.875 15.8438C4.87537 15.5206 5.00389 15.2109 5.23235 14.9823C5.46086 14.7539 5.77063 14.6254 6.09375 14.625C6.20151 14.625 6.30485 14.5822 6.38102 14.506C6.45719 14.4298 6.5 14.3265 6.5 14.2188C6.5 14.111 6.45719 14.0077 6.38102 13.9315C6.30485 13.8553 6.20151 13.8125 6.09375 13.8125C5.77063 13.8121 5.46086 13.6836 5.23235 13.4552C5.00389 13.2266 4.87537 12.9169 4.875 12.5938ZM4.46875 14.6263C4.3528 14.4719 4.2156 14.3347 4.06121 14.2188C4.2156 14.1028 4.3528 13.9656 4.46875 13.8112C4.5847 13.9656 4.7219 14.1028 4.87629 14.2188C4.7219 14.3347 4.5847 14.4719 4.46875 14.6263Z" fill="#1A1A1A"/>
<path d="M10.375 20.0778C10.656 20.2242 10.9488 20.3468 11.2504 20.4444L11.5002 19.6712C11.242 19.5877 10.9913 19.4827 10.7506 19.3573L10.375 20.0778Z" fill="#1A1A1A"/>
<path d="M14.125 10.2867C14.3822 10.3475 14.6339 10.4292 14.8777 10.5311L15.1911 9.78146C14.9063 9.66248 14.6122 9.56701 14.3118 9.49597L14.125 10.2867Z" fill="#1A1A1A"/>
</svg>
