<svg width="30" height="30" viewBox="0 0 30 30" fill="none" xmlns="http://www.w3.org/2000/svg">
<path d="M5 16.9062L8.15625 13.75L5 10.5938L1.84375 13.75L5 16.9062ZM21.875 16.25L25 11.25L28.125 16.25H21.875ZM15 15C13.9583 15 13.0729 14.6354 12.3438 13.9062C11.6146 13.1771 11.25 12.2917 11.25 11.25C11.25 10.1875 11.6146 9.29688 12.3438 8.57812C13.0729 7.85938 13.9583 7.5 15 7.5C16.0625 7.5 16.9531 7.85938 17.6719 8.57812C18.3906 9.29688 18.75 10.1875 18.75 11.25C18.75 12.2917 18.3906 13.1771 17.6719 13.9062C16.9531 14.6354 16.0625 15 15 15ZM0 22.5V20.5312C0 19.6146 0.463542 18.8802 1.39062 18.3281C2.31771 17.776 3.52083 17.5 5 17.5C5.27083 17.5 5.53125 17.5052 5.78125 17.5156C6.03125 17.526 6.27083 17.5521 6.5 17.5938C6.20833 18.0104 5.98958 18.4583 5.84375 18.9375C5.69792 19.4167 5.625 19.9271 5.625 20.4688V22.5H0ZM7.5 22.5V20.4688C7.5 19.1146 8.19271 18.0208 9.57812 17.1875C10.9635 16.3542 12.7708 15.9375 15 15.9375C17.25 15.9375 19.0625 16.3542 20.4375 17.1875C21.8125 18.0208 22.5 19.1146 22.5 20.4688V22.5H7.5ZM25 17.5C26.5 17.5 27.7083 17.776 28.625 18.3281C29.5417 18.8802 30 19.6146 30 20.5312V22.5H24.375V20.4688C24.375 19.9271 24.3073 19.4167 24.1719 18.9375C24.0365 18.4583 23.8333 18.0104 23.5625 17.5938C23.7917 17.5521 24.026 17.526 24.2656 17.5156C24.5052 17.5052 24.75 17.5 25 17.5Z" fill="#F4C430"/>
</svg>
