<svg width="48" height="48" viewBox="0 0 48 48" fill="none" xmlns="http://www.w3.org/2000/svg">
<path d="M41.9522 35.7639C41.4124 34.8768 40.6671 34.1327 39.7791 33.5945H39.7744L31.5628 28.5517C31.6461 28.4862 31.7146 28.4038 31.7638 28.31C31.8129 28.2161 31.8416 28.1129 31.848 28.0071C31.8544 27.9014 31.8383 27.7955 31.8008 27.6964C31.7632 27.5973 31.7051 27.5073 31.6303 27.4323L29.235 25.0314C29.1236 24.9201 28.9799 24.8467 28.8244 24.8216C28.669 24.7965 28.5095 24.8211 28.3688 24.8917L27.5466 25.3032V24.5992L27.5728 24.5851C28.4493 24.1034 29.2009 23.4234 29.7677 22.5994C30.3345 21.7754 30.7008 20.8303 30.8372 19.8395H33.9159C34.2447 19.8385 34.5598 19.7074 34.7922 19.4748C35.0246 19.2422 35.1555 18.927 35.1562 18.5982V13.2751C35.156 12.9457 35.025 12.6299 34.7921 12.397C34.5592 12.1641 34.2434 12.0332 33.9141 12.0329H33.0225C32.8339 9.747 31.7927 7.61557 30.1054 6.0618C28.4182 4.50802 26.2084 3.64551 23.9147 3.64551C21.621 3.64551 19.4112 4.50802 17.7239 6.0618C16.0367 7.61557 14.9954 9.747 14.8069 12.0329H13.9153C13.5858 12.0334 13.2699 12.1645 13.0368 12.3976C12.8038 12.6306 12.6727 12.9465 12.6722 13.276V18.5992C12.6727 18.9287 12.8038 19.2446 13.0368 19.4776C13.2699 19.7107 13.5858 19.8418 13.9153 19.8423H14.8041C14.9697 20.6822 15.4064 21.4445 16.047 22.0123C16.6877 22.5801 17.4969 22.9221 18.3506 22.9857C18.8757 23.6388 19.5235 24.1828 20.2575 24.587L20.2838 24.601V25.3126L19.4587 24.9001C19.318 24.8298 19.1587 24.8056 19.0034 24.8308C18.8481 24.8561 18.7047 24.9295 18.5934 25.0407L16.2 27.4314C16.1194 27.5121 16.0583 27.6101 16.0213 27.718C15.9844 27.8259 15.9725 27.9408 15.9866 28.0539C16.0007 28.1671 16.0404 28.2756 16.1027 28.3711C16.165 28.4666 16.2483 28.5466 16.3463 28.6051L8.22187 33.5945C6.36094 34.7373 5.25 36.6142 5.25 38.6148V43.607C5.25 43.8059 5.32902 43.9967 5.46967 44.1373C5.61032 44.278 5.80109 44.357 6 44.357H42C42.1989 44.357 42.3897 44.278 42.5303 44.1373C42.671 43.9967 42.75 43.8059 42.75 43.607V38.6139C42.7457 37.6093 42.4701 36.6246 41.9522 35.7639ZM23.6709 29.2735L23.9212 29.0223L24.1716 29.2735V42.8167H23.6709V29.2735ZM25.6716 30.7735L25.7869 30.8889C25.8983 31.0001 26.042 31.0735 26.1974 31.0986C26.3529 31.1237 26.5124 31.0992 26.6531 31.0285L30 29.3495L37.5938 34.0154C37.2444 34.2181 36.9216 34.4634 36.6328 34.7457C35.0203 36.3057 34.155 39.032 34.0566 42.857H25.6669L25.6716 30.7735ZM28.5619 26.477L29.8397 27.7548L26.4647 29.4423L25.1859 28.1645L28.5619 26.477ZM24.4369 25.4739C24.9849 25.4737 25.53 25.3938 26.055 25.2367V26.056L23.925 27.1229L21.7856 26.0626V25.2414C22.311 25.3985 22.8564 25.4784 23.4047 25.4785L24.4369 25.4739ZM26.8575 23.2735C26.7863 23.3129 26.7141 23.3485 26.6419 23.3832C26.5726 23.3988 26.5057 23.4237 26.4431 23.4573C26.3859 23.4892 26.3278 23.5182 26.2688 23.5464C25.7079 23.7639 25.1116 23.8758 24.51 23.8764H23.3306C22.73 23.8758 22.1347 23.7642 21.5747 23.5473C21.5156 23.5182 21.4566 23.4892 21.3984 23.4535C21.3357 23.4194 21.2685 23.3941 21.1987 23.3785C21.1266 23.3439 21.0544 23.3082 20.9841 23.2689C20.8312 23.1834 20.6831 23.0895 20.5406 22.9876H21.2325C21.2874 23.1 21.3727 23.1947 21.4788 23.261C21.5849 23.3273 21.7074 23.3625 21.8325 23.3626H23.8538C24.0314 23.3624 24.2016 23.2916 24.3271 23.1659C24.4526 23.0403 24.5231 22.8699 24.5231 22.6923V21.7839C24.5231 21.6062 24.4526 21.4359 24.3271 21.3102C24.2016 21.1845 24.0314 21.1138 23.8538 21.1135H21.8325C21.7073 21.1136 21.5846 21.1488 21.4784 21.215C21.3721 21.2813 21.2866 21.3761 21.2316 21.4885H19.1372C18.6794 20.7301 18.4373 19.861 18.4369 18.9751V16.8339C18.6028 16.7551 18.7631 16.682 18.9469 16.6154C20.4319 16.0735 22.1503 15.7867 23.9156 15.7867C25.6809 15.7867 27.4003 16.0735 28.8844 16.6154C29.0588 16.6792 29.2294 16.7467 29.3953 16.816V18.9826C29.3932 19.8601 29.1559 20.7211 28.708 21.4757C28.2602 22.2304 27.6183 22.8512 26.8491 23.2735H26.8575ZM18.4322 15.2064L18.4181 15.212L18.4003 14.4123C19.9894 13.7373 21.9319 13.3679 23.9156 13.3679C25.8994 13.3679 27.8438 13.7373 29.4375 14.4142L29.4216 15.2139L29.4028 15.2064C27.7556 14.6045 25.8591 14.2867 23.9194 14.2867C21.9797 14.2867 20.0803 14.6045 18.4322 15.2064ZM29.4675 12.8129C27.8053 12.1932 25.905 11.8679 23.9156 11.8679C21.9263 11.8679 20.0278 12.1932 18.3656 12.8129V12.677C18.3656 9.90667 20.8584 7.65292 23.9184 7.65292C26.9784 7.65292 29.4703 9.90292 29.4731 12.677L29.4675 12.8129ZM33.6581 18.3442H30.9525V13.5329H33.6562L33.6581 18.3442ZM23.9166 5.14324C25.812 5.14572 27.639 5.85188 29.0435 7.12483C30.4479 8.39777 31.3296 10.1468 31.5178 12.0329H30.9375C30.585 8.73667 27.5719 6.15292 23.9175 6.15292C20.2631 6.15292 17.25 8.73667 16.8975 12.032H16.3125C16.5013 10.1457 17.3837 8.39676 18.7886 7.12402C20.1935 5.85128 22.0209 5.14542 23.9166 5.14324ZM15.4791 18.3414H14.1666V13.532H16.8722V18.3414H15.4791ZM16.3481 19.8414H16.9913C17.0488 20.2641 17.149 20.68 17.2903 21.0826C16.8492 20.7836 16.5193 20.3472 16.3519 19.8414H16.3481ZM19.2703 26.4789L20.6962 27.1923L22.6453 28.1673L21.3638 29.4489L17.9888 27.7614L19.2703 26.4789ZM6.75 42.857V38.6148C6.75 37.2085 7.515 35.8745 8.80688 35.0017C9.11813 35.0514 9.78656 35.2426 10.4653 35.971C11.3194 36.886 12.3281 38.8182 12.4397 42.857H6.75ZM11.3644 34.7457C11.0764 34.4636 10.7546 34.2183 10.4062 34.0154L17.9241 29.3982L21.18 31.0314C21.3209 31.1019 21.4804 31.1262 21.6358 31.101C21.7913 31.0757 21.9349 31.0022 22.0462 30.8907L22.1663 30.7717V42.856H13.9406C13.8422 39.032 12.9769 36.3057 11.3644 34.7457ZM41.25 42.857H35.5603C35.6719 38.8192 36.6806 36.886 37.5347 35.971C38.2134 35.2426 38.88 35.0523 39.1912 35.0017C39.7878 35.3986 40.2905 35.9211 40.6641 36.5326C41.0436 37.1608 41.2461 37.8799 41.25 38.6139V42.857ZM20.0147 32.416H16.0153C15.8164 32.416 15.6256 32.4951 15.485 32.6357C15.3443 32.7764 15.2653 32.9671 15.2653 33.166V37.1654C15.2653 37.3643 15.3443 37.5551 15.485 37.6958C15.6256 37.8364 15.8164 37.9154 16.0153 37.9154H20.0147C20.2136 37.9154 20.4044 37.8364 20.545 37.6958C20.6857 37.5551 20.7647 37.3643 20.7647 37.1654V33.166C20.7647 32.9671 20.6857 32.7764 20.545 32.6357C20.4044 32.4951 20.2136 32.416 20.0147 32.416ZM19.2647 36.4154H16.7653V33.916H19.2647V36.4154ZM34.5806 37.1654V33.166C34.5806 32.9671 34.5016 32.7764 34.361 32.6357C34.2203 32.4951 34.0295 32.416 33.8306 32.416H27.2812C27.0823 32.416 26.8916 32.4951 26.7509 32.6357C26.6103 32.7764 26.5312 32.9671 26.5312 33.166V37.1654C26.5312 37.3643 26.6103 37.5551 26.7509 37.6958C26.8916 37.8364 27.0823 37.9154 27.2812 37.9154H33.8306C34.0295 37.9154 34.2203 37.8364 34.361 37.6958C34.5016 37.5551 34.5806 37.3643 34.5806 37.1654ZM33.0806 36.4154H28.0312V33.916H33.0806V36.4154ZM20.7497 39.9995C20.7497 40.1984 20.6707 40.3892 20.53 40.5298C20.3894 40.6705 20.1986 40.7495 19.9997 40.7495H16.0003C15.8014 40.7495 15.6106 40.6705 15.47 40.5298C15.3293 40.3892 15.2503 40.1984 15.2503 39.9995C15.2503 39.8006 15.3293 39.6098 15.47 39.4692C15.6106 39.3285 15.8014 39.2495 16.0003 39.2495H19.9997C20.1986 39.2495 20.3894 39.3285 20.53 39.4692C20.6707 39.6098 20.7497 39.8006 20.7497 39.9995Z" fill="#F4C430"/>
</svg>
