<svg width="45" height="50" viewBox="0 0 45 50" fill="none" xmlns="http://www.w3.org/2000/svg">
<path d="M21.2214 2.67406L20.0345 0C19.2172 9.31772 16.8988 11.7551 8.19139 22.0461C7.89213 22.42 7.61115 22.8087 7.34863 23.2144C8.76158 24.9941 10.6633 26.8063 12.9398 28.5263C13.5481 28.9863 14.1822 29.4387 14.8422 29.8816C15.6962 28.5215 16.6571 27.2564 17.5957 26.0784C17.7787 25.8478 17.9598 25.6228 18.1427 25.3924C20.4874 22.4577 22.9115 19.4212 23.7518 15.7233C24.6847 11.6296 23.0523 6.77691 21.2214 2.67406ZM22.3998 13.9019C22.3643 14.3927 22.3082 14.8837 22.2173 15.3664C22.1245 15.8662 21.9799 16.3408 21.8133 16.7944C21.6504 17.2522 21.4562 17.6861 21.2527 18.1138C21.0512 18.5435 20.8274 18.9559 20.6018 19.3645C20.1433 20.1809 19.6461 20.9634 19.1211 21.7226C18.0713 23.2391 16.9351 24.6813 15.677 26.0041C16.6475 24.4332 17.618 22.8759 18.5349 21.2914C19.4372 19.7017 20.3338 18.0943 20.9521 16.3977C21.1021 15.9736 21.2318 15.5461 21.3171 15.1152C21.4007 14.6687 21.4622 14.2126 21.5106 13.7517C21.6003 12.8314 21.6143 11.8897 21.5895 10.9431C21.5217 9.04835 21.286 7.13093 20.9414 5.20691C21.3241 6.11982 21.6016 7.07066 21.8384 8.02809C21.9503 8.50927 22.0531 8.99146 22.1393 9.47822C22.2199 9.96464 22.2876 10.4538 22.3405 10.9456C22.4409 11.9271 22.4712 12.9184 22.3998 13.9019Z" fill="#F4C430"/>
<path d="M27.5387 13.2152L25.0493 9.06296C25.5942 11.4768 25.7686 13.9197 25.251 16.2046C24.3293 20.2451 21.7997 23.414 19.3515 26.4775C19.1686 26.7061 18.9912 26.9333 18.8083 27.16C17.9178 28.2801 16.9994 29.4809 16.1934 30.7619C17.5557 31.6045 19.0067 32.4157 20.5334 33.1594C21.5014 33.6321 22.4658 34.064 23.4191 34.4545C24.1973 34.7755 24.9682 35.0669 25.7279 35.3305C26.674 34.1529 27.6273 32.9375 28.3742 31.6539C28.9028 30.7409 29.3155 29.757 29.6304 28.7501C31.2233 23.6958 30.3944 17.9784 27.5387 13.2152ZM28.9419 24.5975C28.759 26.3126 28.3419 27.9845 27.6611 29.5142C27.3226 30.2802 26.9213 31.0104 26.4593 31.6897C25.9898 32.3645 25.4761 33.0069 24.8594 33.5256C25.3546 32.8857 25.778 32.1937 26.1534 31.475C26.5324 30.7603 26.8506 30.012 27.1321 29.2493C27.4042 28.4819 27.6413 27.7003 27.8157 26.8984C27.9975 26.101 28.1313 25.2842 28.2097 24.4614C28.2974 23.6411 28.3206 22.8081 28.3013 21.9698C28.2913 21.1323 28.2184 20.29 28.1273 19.448C27.9264 17.7627 27.6038 16.0755 27.1463 14.4012C27.8935 15.9846 28.3859 17.6809 28.6993 19.3982C28.7397 19.6134 28.7726 19.8281 28.8092 20.045C28.8366 20.2612 28.8677 20.4776 28.8915 20.6934C28.9425 21.1274 28.9772 21.562 29.0024 21.9976C29.0381 22.866 29.0277 23.7366 28.9419 24.5975Z" fill="#F4C430"/>
<path d="M34.0399 24.0622L32.3018 21.1638L32.2742 21.1172C32.2779 21.1349 32.2779 21.1542 32.2779 21.1716C32.4 25.4998 31.5098 29.4404 29.7053 32.562C29.0268 33.7314 28.2119 34.8207 27.3767 35.8662C30.3257 36.7537 33.0778 37.2093 35.4319 37.2271C36.109 37.2317 36.7511 37.2009 37.3562 37.1343C37.4529 36.3995 37.5001 35.6475 37.501 34.8822C37.5057 30.9029 36.2133 27.1409 34.0399 24.0622ZM35.9217 36.4457C35.8566 35.3148 35.834 34.216 35.6858 33.1133C35.6367 32.5638 35.5303 32.0177 35.4591 31.4721C35.349 30.9277 35.2686 30.3815 35.1362 29.8429C34.8996 28.7583 34.6112 27.683 34.2767 26.614C33.9403 25.5447 33.5652 24.486 33.144 23.4197C33.8274 24.3424 34.3648 25.3754 34.8119 26.434C35.2644 27.4951 35.6064 28.5995 35.8541 29.7215C35.9899 30.2797 36.063 30.8482 36.1509 31.4142L36.2273 32.2665C36.2364 32.4079 36.2547 32.5483 36.2564 32.691L36.2615 33.1155C36.3025 34.2505 36.1627 35.3733 35.9217 36.4457Z" fill="#F4C430"/>
<path d="M19.2762 38.9793C16.6366 37.885 14.2194 36.4507 12.0506 34.5497C10.967 33.5998 10.0371 32.4939 8.85041 31.6716C7.62286 30.821 6.36959 30.0378 5.21273 29.083C5.189 29.0636 5.16857 29.0415 5.14681 29.0204C5.05321 29.424 4.97197 29.8336 4.90753 30.2496C4.90374 30.2687 4.90193 30.2897 4.89814 30.3088C4.76054 31.1786 4.69165 32.0713 4.69165 32.9754C4.69165 41.4131 10.6772 48.4113 18.5252 49.7397C18.5252 49.7397 21.7013 50.2979 23.6976 49.7798C27.0113 49.2714 29.9994 47.7574 32.3643 45.5457C32.4611 45.4558 32.556 45.3641 32.6509 45.2723C33.6394 44.3006 34.5108 43.2039 35.2413 42.0063C29.8135 41.7354 24.3481 41.0819 19.2762 38.9793Z" fill="#F4C430"/>
<path d="M19.276 38.9793C16.6365 37.885 14.2192 36.4507 12.0504 34.5497C10.9668 33.5998 10.0369 32.4939 8.85022 31.6716C7.62267 30.821 6.3694 30.0378 5.21254 29.083C5.18881 29.0636 5.16838 29.0415 5.14662 29.0204C5.05302 29.424 4.97178 29.8336 4.90734 30.2496C4.90355 30.2687 4.90174 30.2897 4.89795 30.3088C7.67392 33.4705 11.4528 36.6321 15.9275 39.3504C21.7158 42.8676 27.5729 44.978 32.364 45.5457C32.4607 45.4558 32.5556 45.3641 32.6506 45.2723C33.639 44.3006 34.5104 43.2039 35.241 42.0063C29.8133 41.7354 24.3479 41.0819 19.276 38.9793Z" fill="#F4C430"/>
<path d="M41.698 29.719C42.682 31.7493 42.8982 33.6441 42.1688 35.1863C39.9543 39.8695 29.8535 39.5209 19.6094 34.4077C9.36522 29.2944 2.85549 21.352 5.07017 16.6689C5.79955 15.1267 7.38274 14.1301 9.54452 13.6699C8.62381 13.6662 7.75089 13.7182 6.93466 13.826C4.57183 14.1384 2.869 16.346 3.11274 18.7807C3.26534 20.3046 3.74159 22.197 4.87983 24.3396C5.56225 25.6241 6.60359 26.6989 7.57439 27.7916C9.52606 29.9753 11.7328 31.9324 14.1014 33.6603C16.475 35.3822 18.9976 36.9 21.6342 38.188C18.9367 37.0412 16.3298 35.6514 13.8631 34.022C11.3983 32.3912 9.07403 30.5156 6.97965 28.3762C5.9332 27.3036 4.94707 26.1732 4.05602 24.9398C3.16761 23.7087 2.38632 22.3477 1.91122 20.8308C1.84629 20.6437 1.80328 20.4485 1.74856 20.2574C1.69929 20.0644 1.66139 19.8678 1.61805 19.6727C1.54306 19.2735 1.49709 18.8692 1.47896 18.4635C1.44221 17.6522 1.51785 16.8345 1.71264 16.0379C1.72302 15.9952 1.73505 15.9529 1.74626 15.9104C1.22402 16.385 0.806926 16.9344 0.510624 17.5611C-2.10401 23.0902 5.57971 32.4665 17.6729 38.5027C29.7676 44.5397 41.6911 44.9501 44.3057 39.421C45.5466 36.7969 44.468 33.3082 41.698 29.719Z" fill="#1A1A1A"/>
</svg>
