<svg width="167" height="40" viewBox="0 0 167 40" fill="none" xmlns="http://www.w3.org/2000/svg">
<g clip-path="url(#clip0_18512_278243)">
<path d="M50.9453 27.4514H62.6864V23.9392H55.1183V10.71H50.9453V27.4514Z" fill="#1A1A1A"/>
<path d="M69.6434 25.1104C67.9695 25.1104 67.0972 23.6587 67.0972 21.4811C67.0972 19.3035 67.9695 17.8284 69.6434 17.8284C71.3173 17.8284 72.2133 19.3035 72.2133 21.4811C72.2133 23.6587 71.3173 25.1104 69.6434 25.1104ZM69.667 27.8265C73.5571 27.8265 76.1034 25.087 76.1034 21.4811C76.1034 17.8753 73.5571 15.1357 69.667 15.1357C65.8004 15.1357 63.207 17.8753 63.207 21.4811C63.207 25.087 65.8004 27.8265 69.667 27.8265Z" fill="#1A1A1A"/>
<path d="M82.8371 31.5962C84.6289 31.5962 86.2085 31.1982 87.2694 30.2616C88.2361 29.3952 88.8726 28.084 88.8726 26.2811V15.4635H85.1947V16.7513H85.1475C84.4402 15.7445 83.3558 15.1123 81.7526 15.1123C78.7584 15.1123 76.6836 17.5943 76.6836 21.1065C76.6836 24.7825 79.2063 26.7962 81.9176 26.7962C83.3793 26.7962 84.2988 26.2108 85.0061 25.4147H85.1004V26.6089C85.1004 28.0606 84.4168 28.9035 82.79 28.9035C81.5169 28.9035 80.8802 28.365 80.668 27.7328H76.9429C77.3202 30.2382 79.5128 31.5962 82.8371 31.5962ZM82.8135 23.963C81.3753 23.963 80.4323 22.7923 80.4323 20.9894C80.4323 19.163 81.3753 17.9923 82.8135 17.9923C84.4167 17.9923 85.2654 19.3504 85.2654 20.966C85.2654 22.6518 84.4874 23.963 82.8135 23.963Z" fill="#1A1A1A"/>
<path d="M96.4344 25.1104C94.7605 25.1104 93.8882 23.6587 93.8882 21.4811C93.8882 19.3035 94.7605 17.8284 96.4344 17.8284C98.1084 17.8284 99.004 19.3035 99.004 21.4811C99.004 23.6587 98.1084 25.1104 96.4344 25.1104ZM96.458 27.8265C100.348 27.8265 102.894 25.087 102.894 21.4811C102.894 17.8753 100.348 15.1357 96.458 15.1357C92.5915 15.1357 89.998 17.8753 89.998 21.4811C89.998 25.087 92.5915 27.8265 96.458 27.8265Z" fill="#1A1A1A"/>
<path d="M104.018 27.4514H107.861V15.4631H104.018V27.4514ZM104.018 13.8007H107.861V10.71H104.018V13.8007Z" fill="#1A1A1A"/>
<path d="M109.528 31.4089H113.371V26.2108H113.418C114.172 27.2177 115.28 27.8265 116.836 27.8265C119.996 27.8265 122.094 25.3445 122.094 21.4577C122.094 17.8518 120.137 15.1123 116.931 15.1123C115.28 15.1123 114.101 15.8382 113.276 16.9152H113.206V15.4635H109.528V31.4089ZM115.846 24.8762C114.196 24.8762 113.253 23.5416 113.253 21.5982C113.253 19.6547 114.101 18.1796 115.775 18.1796C117.426 18.1796 118.204 19.5377 118.204 21.5982C118.204 23.6352 117.308 24.8762 115.846 24.8762Z" fill="#1A1A1A"/>
<path d="M128.351 27.8265C131.51 27.8265 133.844 26.4684 133.844 23.846C133.844 20.7786 131.345 20.2401 129.223 19.8889C127.691 19.6079 126.323 19.4908 126.323 18.6479C126.323 17.8986 127.054 17.5474 127.997 17.5474C129.058 17.5474 129.789 17.8752 129.931 18.9523H133.467C133.278 16.5874 131.44 15.1123 128.021 15.1123C125.168 15.1123 122.811 16.4235 122.811 18.9523C122.811 21.7621 125.05 22.324 127.149 22.6752C128.752 22.9562 130.214 23.0733 130.214 24.1504C130.214 24.923 129.483 25.3445 128.327 25.3445C127.054 25.3445 126.253 24.7591 126.111 23.565H122.48C122.598 26.2108 124.815 27.8265 128.351 27.8265Z" fill="#1A1A1A"/>
<path d="M139.062 27.8024C140.736 27.8024 141.797 27.1468 142.669 25.9761H142.74V27.4512H146.418V15.4629H142.575V22.1595C142.575 23.5878 141.773 24.5712 140.453 24.5712C139.227 24.5712 138.638 23.8453 138.638 22.5341V15.4629H134.818V23.3302C134.818 25.9995 136.28 27.8024 139.062 27.8024Z" fill="#1A1A1A"/>
<path d="M148.09 27.4518H151.933V20.7318C151.933 19.3035 152.64 18.2967 153.843 18.2967C154.998 18.2967 155.54 19.046 155.54 20.3338V27.4518H159.383V20.7318C159.383 19.3035 160.067 18.2967 161.293 18.2967C162.448 18.2967 162.99 19.046 162.99 20.3338V27.4518H166.833V19.6547C166.833 16.9621 165.466 15.1123 162.731 15.1123C161.175 15.1123 159.878 15.7679 158.935 17.2196H158.888C158.275 15.9318 157.072 15.1123 155.493 15.1123C153.748 15.1123 152.593 15.9318 151.838 17.1728H151.768V15.4635H148.09V27.4518Z" fill="#1A1A1A"/>
<path fill-rule="evenodd" clip-rule="evenodd" d="M20.3189 39.1592C31.1697 39.1592 39.966 30.4233 39.966 19.647C39.966 8.87068 31.1697 0.134766 20.3189 0.134766C9.46814 0.134766 0.671875 8.87068 0.671875 19.647C0.671875 30.4233 9.46814 39.1592 20.3189 39.1592ZM26.4481 9.22436C26.7465 8.17188 25.7181 7.54952 24.7788 8.21408L11.6675 17.4905C10.6489 18.2112 10.8091 19.647 11.9081 19.647H15.3607V19.6204H22.0896L16.6068 21.5417L14.1897 30.0696C13.8914 31.1221 14.9197 31.7444 15.8591 31.0799L28.9704 21.8036C29.989 21.0829 29.8287 19.647 28.7297 19.647H23.494L26.4481 9.22436Z" fill="#F4C430"/>
</g>
<defs>
<clipPath id="clip0_18512_278243">
<rect width="167" height="40" fill="white"/>
</clipPath>
</defs>
</svg>
