<svg width="170" height="70" viewBox="0 0 170 70" fill="none" xmlns="http://www.w3.org/2000/svg">
<path d="M31.3053 3.74368L29.6515 0C28.5125 13.0448 25.282 16.4571 13.1487 30.8646C12.7317 31.388 12.3402 31.9322 11.9744 32.5001C13.9432 34.9918 16.5932 37.5288 19.7653 39.9368C20.6129 40.5808 21.4965 41.2141 22.4162 41.8342C23.6062 39.9301 24.9451 38.159 26.2531 36.5098C26.508 36.1869 26.7604 35.8719 27.0153 35.5493C30.2825 31.4408 33.6604 27.1897 34.8313 22.0127C36.1312 16.2815 33.8565 9.48767 31.3053 3.74368ZM32.9474 19.4627C32.8978 20.1498 32.8197 20.8372 32.6929 21.513C32.5637 22.2127 32.3623 22.8771 32.1301 23.5121C31.903 24.1531 31.6325 24.7606 31.3489 25.3593C31.0681 25.9609 30.7562 26.5383 30.4419 27.1103C29.803 28.2532 29.1102 29.3488 28.3786 30.4116C26.9158 32.5347 25.3325 34.5538 23.5795 36.4057C24.9318 34.2065 26.2841 32.0263 27.5618 29.8079C28.819 27.5824 30.0685 25.3321 30.93 22.9568C31.139 22.363 31.3197 21.7645 31.4387 21.1612C31.5551 20.5362 31.6408 19.8976 31.7083 19.2524C31.8332 17.9639 31.8527 16.6456 31.8183 15.3203C31.7237 12.6677 31.3953 9.9833 30.9151 7.28967C31.4483 8.56775 31.835 9.89892 32.165 11.2393C32.3209 11.913 32.4642 12.588 32.5843 13.2695C32.6966 13.9505 32.791 14.6353 32.8647 15.3239C33.0045 16.6979 33.0468 18.0858 32.9474 19.4627Z" fill="#F4C430"/>
<path d="M40.1081 18.5017L36.6393 12.6885C37.3987 16.0678 37.6416 19.488 36.9203 22.6867C35.636 28.3435 32.1112 32.78 28.6997 37.0688C28.4448 37.3888 28.1978 37.7069 27.9429 38.0243C26.7019 39.5925 25.4222 41.2736 24.2991 43.0669C26.1974 44.2466 28.2194 45.3823 30.3467 46.4235C31.6955 47.0853 33.0393 47.69 34.3678 48.2366C35.4521 48.686 36.5263 49.0939 37.5849 49.463C38.9032 47.8144 40.2316 46.1128 41.2723 44.3159C42.009 43.0375 42.584 41.6602 43.0228 40.2505C45.2424 33.1744 44.0874 25.1701 40.1081 18.5017ZM42.0634 34.4368C41.8085 36.838 41.2273 39.1787 40.2787 41.3202C39.8071 42.3926 39.2479 43.4149 38.604 44.3659C37.9498 45.3107 37.234 46.21 36.3747 46.9362C37.0648 46.0403 37.6547 45.0715 38.1778 44.0653C38.706 43.0648 39.1494 42.0171 39.5416 40.9493C39.9207 39.8751 40.2512 38.7807 40.4941 37.6581C40.7474 36.5417 40.9339 35.3982 41.0432 34.2463C41.1653 33.0979 41.1977 31.9317 41.1708 30.7581C41.1568 29.5855 41.0553 28.4063 40.9283 27.2275C40.6484 24.8681 40.1988 22.5061 39.5613 20.1621C40.6025 22.3788 41.2886 24.7536 41.7254 27.1578C41.7817 27.4591 41.8276 27.7597 41.8786 28.0633C41.9167 28.366 41.9601 28.6689 41.9932 28.9711C42.0643 29.5786 42.1126 30.1871 42.1477 30.797C42.1975 32.0127 42.1831 33.2315 42.0634 34.4368Z" fill="#F4C430"/>
<path d="M49.167 33.6874L46.7451 29.6296L46.7068 29.5645C46.7118 29.5891 46.7118 29.6161 46.7118 29.6405C46.882 35.7 45.6415 41.2169 43.127 45.5871C42.1816 47.2243 41.0461 48.7493 39.8823 50.213C43.9916 51.4555 47.8264 52.0934 51.1067 52.1183C52.0503 52.1247 52.9449 52.0815 53.7882 51.9884C53.923 50.9596 53.9886 49.9067 53.99 48.8354C53.9964 43.2644 52.1957 37.9976 49.167 33.6874ZM51.7892 51.0244C51.6985 49.441 51.667 47.9026 51.4606 46.3589C51.3922 45.5897 51.2438 44.825 51.1446 44.0613C50.9912 43.299 50.8792 42.5344 50.6948 41.7804C50.365 40.2619 49.9632 38.7565 49.497 37.2599C49.0283 35.7628 48.5057 34.2807 47.9188 32.7878C48.871 34.0797 49.6199 35.5258 50.2429 37.008C50.8734 38.4934 51.3499 40.0396 51.6951 41.6104C51.8843 42.3919 51.9862 43.1879 52.1086 43.9802L52.2152 45.1735C52.2278 45.3714 52.2533 45.5679 52.2556 45.7677L52.2627 46.3619C52.3199 47.951 52.1252 49.523 51.7892 51.0244Z" fill="#F4C430"/>
<path d="M28.5949 54.5714C24.9169 53.0394 21.5486 51.0313 18.5264 48.3699C17.0166 47.0401 15.7208 45.4918 14.0672 44.3406C12.3567 43.1497 10.6103 42.0532 8.99831 40.7166C8.96525 40.6893 8.93677 40.6585 8.90646 40.6289C8.77603 41.194 8.66282 41.7674 8.57303 42.3498C8.56775 42.3765 8.56523 42.4059 8.55995 42.4327C8.3682 43.6503 8.27222 44.9002 8.27222 46.166C8.27222 57.9787 16.6127 67.7761 27.5485 69.6359C27.5485 69.6359 31.9742 70.4174 34.7559 69.6921C39.3734 68.9803 43.5371 66.8607 46.8325 63.7644C46.9673 63.6385 47.0996 63.51 47.2319 63.3816C48.6092 62.0212 49.8235 60.4858 50.8414 58.8092C43.278 58.43 35.6623 57.515 28.5949 54.5714Z" fill="#F4C430"/>
<path d="M28.5945 54.5714C24.9165 53.0394 21.5483 51.0313 18.5261 48.3699C17.0162 47.0401 15.7204 45.4918 14.0668 44.3406C12.3563 43.1497 10.61 42.0532 8.99794 40.7166C8.96487 40.6893 8.93639 40.6585 8.90608 40.6289C8.77565 41.194 8.66244 41.7674 8.57266 42.3498C8.56738 42.3765 8.56485 42.4059 8.55957 42.4327C12.4277 46.859 17.6934 51.2854 23.9286 55.0909C31.9942 60.015 40.1558 62.9696 46.8319 63.7644C46.9667 63.6385 47.099 63.51 47.2312 63.3816C48.6086 62.0213 49.8229 60.4858 50.8408 58.8092C43.2777 58.43 35.6619 57.515 28.5945 54.5714Z" fill="#F4C430"/>
<path d="M59.8384 41.6067C61.2095 44.4491 61.5108 47.1018 60.4944 49.2609C57.4086 55.8174 43.3338 55.3294 29.0591 48.1708C14.7845 41.0122 5.71358 29.8928 8.79961 23.3365C9.81596 21.1774 12.022 19.7822 15.0344 19.138C13.7514 19.1327 12.535 19.2055 11.3977 19.3565C8.1052 19.7938 5.73241 22.8845 6.07204 26.293C6.28468 28.4265 6.94832 31.0758 8.53439 34.0755C9.48529 35.8738 10.9363 37.3785 12.2891 38.9083C15.0086 41.9655 18.0836 44.7054 21.3841 47.1245C24.6915 49.5351 28.2068 51.6601 31.8806 53.4632C28.1218 51.8578 24.4892 49.912 21.0521 47.6308C17.6175 45.3477 14.3788 42.7219 11.4604 39.7268C10.0022 38.2252 8.62807 36.6425 7.38645 34.9157C6.14851 33.1923 5.05982 31.2868 4.39779 29.1632C4.30731 28.9013 4.24738 28.628 4.17114 28.3604C4.10248 28.0902 4.04967 27.815 3.98927 27.5419C3.88479 26.983 3.82072 26.417 3.79546 25.849C3.74426 24.7132 3.84966 23.5683 4.12108 22.4531C4.13555 22.3933 4.15231 22.3341 4.16793 22.2746C3.44022 22.939 2.85902 23.7082 2.44614 24.5857C-1.1972 32.3264 9.50963 45.4532 26.3607 53.9039C43.2141 62.3557 59.8287 62.9303 63.4721 55.1895C65.2012 51.5158 63.6982 46.6315 59.8384 41.6067Z" fill="black"/>
<path d="M91.1248 50.75C87.1331 50.75 83.958 49.6538 81.5993 47.4615C79.2406 45.2388 78.0613 42.0721 78.0613 37.9615V30.2885C78.0613 26.1779 79.2406 23.0264 81.5993 20.8341C83.958 18.6114 87.1331 17.5 91.1248 17.5C95.1164 17.5 98.2915 18.6114 100.65 20.8341C103.009 23.0264 104.188 26.1779 104.188 30.2885V37.9615C104.188 42.0721 103.009 45.2388 100.65 47.4615C98.2915 49.6538 95.1164 50.75 91.1248 50.75ZM91.1248 45.3606C93.3625 45.3606 95.1013 44.7059 96.3411 43.3966C97.5809 42.0873 98.2008 40.3365 98.2008 38.1442V30.1058C98.2008 27.9135 97.5809 26.1627 96.3411 24.8534C95.1013 23.5441 93.3625 22.8894 91.1248 22.8894C88.9173 22.8894 87.1785 23.5441 85.9084 24.8534C84.6686 26.1627 84.0487 27.9135 84.0487 30.1058V38.1442C84.0487 40.3365 84.6686 42.0873 85.9084 43.3966C87.1785 44.7059 88.9173 45.3606 91.1248 45.3606Z" fill="white"/>
<path d="M109.621 50.1106V27.4567H115.337V50.1106H109.621ZM112.479 24.8077C111.451 24.8077 110.574 24.4728 109.848 23.8029C109.153 23.133 108.805 22.25 108.805 21.1538C108.805 20.0577 109.153 19.1747 109.848 18.5048C110.574 17.8349 111.451 17.5 112.479 17.5C113.537 17.5 114.414 17.8349 115.11 18.5048C115.805 19.1747 116.153 20.0577 116.153 21.1538C116.153 22.25 115.805 23.133 115.11 23.8029C114.414 24.4728 113.537 24.8077 112.479 24.8077Z" fill="white"/>
<path d="M121.67 50.1106V18.1394H127.385V50.1106H121.67Z" fill="white"/>
<path d="M133.719 50.1106V27.4567H139.434V50.1106H133.719ZM136.576 24.8077C135.548 24.8077 134.671 24.4728 133.945 23.8029C133.25 23.133 132.902 22.25 132.902 21.1538C132.902 20.0577 133.25 19.1747 133.945 18.5048C134.671 17.8349 135.548 17.5 136.576 17.5C137.635 17.5 138.512 17.8349 139.207 18.5048C139.903 19.1747 140.25 20.0577 140.25 21.1538C140.25 22.25 139.903 23.133 139.207 23.8029C138.512 24.4728 137.635 24.8077 136.576 24.8077Z" fill="white"/>
<path d="M143.771 50.1106L151.936 38.6923L143.862 27.4567H150.485L155.61 34.9928H156.427L161.552 27.4567H168.175L160.101 38.6923L168.265 50.1106H161.552L156.427 42.4832H155.61L150.485 50.1106H143.771Z" fill="white"/>
</svg>
