<svg width="166" height="40" viewBox="0 0 166 40" fill="none" xmlns="http://www.w3.org/2000/svg">
<g clip-path="url(#clip0_18512_278257)">
<path d="M50.0703 28.6077H61.7411V25.0955H54.2184V11.8662H50.0703V28.6077Z" fill="#1A1A1A"/>
<path d="M68.6556 26.2666C66.9917 26.2666 66.1246 24.8149 66.1246 22.6374C66.1246 20.4598 66.9917 18.9847 68.6556 18.9847C70.3196 18.9847 71.2101 20.4598 71.2101 22.6374C71.2101 24.8149 70.3196 26.2666 68.6556 26.2666ZM68.6791 28.9827C72.5459 28.9827 75.0769 26.2432 75.0769 22.6374C75.0769 19.0315 72.5459 16.292 68.6791 16.292C64.8357 16.292 62.2578 19.0315 62.2578 22.6374C62.2578 26.2432 64.8357 28.9827 68.6791 28.9827Z" fill="#1A1A1A"/>
<path d="M81.769 32.7525C83.55 32.7525 85.1202 32.3544 86.1748 31.4178C87.1356 30.5515 87.7684 29.2403 87.7684 27.4373V16.6198H84.1125V17.9076H84.0656C83.3626 16.9008 82.2845 16.2686 80.6909 16.2686C77.7146 16.2686 75.6523 18.7505 75.6523 22.2627C75.6523 25.9388 78.1599 27.9525 80.855 27.9525C82.308 27.9525 83.2219 27.3671 83.925 26.571H84.0187V27.7651C84.0187 29.2168 83.3391 30.0598 81.7221 30.0598C80.4566 30.0598 79.8238 29.5212 79.6129 28.889H75.9101C76.2851 31.3944 78.4646 32.7525 81.769 32.7525ZM81.7455 25.1193C80.316 25.1193 79.3786 23.9486 79.3786 22.1456C79.3786 20.3193 80.316 19.1486 81.7455 19.1486C83.3391 19.1486 84.1828 20.5066 84.1828 22.1222C84.1828 23.8081 83.4094 25.1193 81.7455 25.1193Z" fill="#1A1A1A"/>
<path d="M95.2865 26.2666C93.6226 26.2666 92.7555 24.8149 92.7555 22.6374C92.7555 20.4598 93.6226 18.9847 95.2865 18.9847C96.9504 18.9847 97.8408 20.4598 97.8408 22.6374C97.8408 24.8149 96.9504 26.2666 95.2865 26.2666ZM95.3099 28.9827C99.1766 28.9827 101.708 26.2432 101.708 22.6374C101.708 19.0315 99.1766 16.292 95.3099 16.292C91.4666 16.292 88.8887 19.0315 88.8887 22.6374C88.8887 26.2432 91.4666 28.9827 95.3099 28.9827Z" fill="#1A1A1A"/>
<path d="M102.824 28.6077H106.644V16.6194H102.824V28.6077ZM102.824 14.9569H106.644V11.8662H102.824V14.9569Z" fill="#1A1A1A"/>
<path d="M108.301 32.5651H112.121V27.3671H112.168C112.918 28.3739 114.019 28.9827 115.566 28.9827C118.706 28.9827 120.792 26.5007 120.792 22.6139C120.792 19.0081 118.847 16.2686 115.659 16.2686C114.019 16.2686 112.847 16.9944 112.027 18.0715H111.957V16.6198H108.301V32.5651ZM114.581 26.0325C112.941 26.0325 112.004 24.6978 112.004 22.7544C112.004 20.811 112.847 19.3359 114.511 19.3359C116.152 19.3359 116.925 20.6939 116.925 22.7544C116.925 24.7915 116.034 26.0325 114.581 26.0325Z" fill="#1A1A1A"/>
<path d="M127.011 28.9827C130.151 28.9827 132.471 27.6247 132.471 25.0022C132.471 21.9349 129.987 21.3964 127.878 21.0451C126.355 20.7642 124.995 20.6471 124.995 19.8042C124.995 19.0549 125.722 18.7037 126.659 18.7037C127.714 18.7037 128.44 19.0315 128.581 20.1086H132.096C131.909 17.7437 130.081 16.2686 126.683 16.2686C123.847 16.2686 121.504 17.5798 121.504 20.1086C121.504 22.9183 123.73 23.4803 125.816 23.8315C127.409 24.1125 128.862 24.2295 128.862 25.3066C128.862 26.0793 128.136 26.5007 126.987 26.5007C125.722 26.5007 124.925 25.9154 124.785 24.7212H121.176C121.293 27.3671 123.496 28.9827 127.011 28.9827Z" fill="#1A1A1A"/>
<path d="M137.66 28.9587C139.324 28.9587 140.378 28.303 141.245 27.1323H141.316V28.6074H144.972V16.6191H141.152V23.3157C141.152 24.744 140.355 25.7274 139.042 25.7274C137.824 25.7274 137.238 25.0016 137.238 23.6904V16.6191H133.441V24.4865C133.441 27.1557 134.894 28.9587 137.66 28.9587Z" fill="#1A1A1A"/>
<path d="M146.635 28.6081H150.455V21.8881C150.455 20.4598 151.158 19.4529 152.353 19.4529C153.501 19.4529 154.04 20.2022 154.04 21.49V28.6081H157.86V21.8881C157.86 20.4598 158.54 19.4529 159.759 19.4529C160.907 19.4529 161.446 20.2022 161.446 21.49V28.6081H165.266V20.811C165.266 18.1183 163.907 16.2686 161.188 16.2686C159.641 16.2686 158.352 16.9242 157.415 18.3759H157.368C156.759 17.0881 155.564 16.2686 153.993 16.2686C152.259 16.2686 151.111 17.0881 150.361 18.329H150.291V16.6198H146.635V28.6081Z" fill="#1A1A1A"/>
<path fill-rule="evenodd" clip-rule="evenodd" d="M19.629 39.3398C30.4149 39.3398 39.1584 30.6039 39.1584 19.8276C39.1584 9.05133 30.4149 0.31543 19.629 0.31543C8.84321 0.31543 0.0996094 9.05133 0.0996094 19.8276C0.0996094 30.6039 8.84321 39.3398 19.629 39.3398ZM22.6433 15.3911C24.308 13.7278 24.308 11.0311 22.6433 9.36778C20.9785 7.70448 18.2795 7.70448 16.6147 9.36778C14.95 11.0311 14.95 13.7278 16.6147 15.3911L19.629 18.4027L22.6433 15.3911ZM24.0695 22.8393C25.7342 24.5026 28.4333 24.5026 30.0981 22.8393C31.7628 21.176 31.7628 18.4793 30.0981 16.816C28.4333 15.1528 25.7342 15.1528 24.0695 16.816L21.0552 19.8277L24.0695 22.8393ZM22.6433 30.2875C24.308 28.6242 24.308 25.9275 22.6433 24.2642L19.629 21.2526L16.6147 24.2642C14.95 25.9275 14.95 28.6242 16.6147 30.2875C18.2795 31.9508 20.9785 31.9508 22.6433 30.2875ZM9.15992 22.8393C7.49519 21.176 7.49519 18.4793 9.15992 16.816C10.8247 15.1528 13.5238 15.1528 15.1886 16.816L18.2028 19.8277L15.1886 22.8393C13.5238 24.5026 10.8247 24.5026 9.15992 22.8393Z" fill="#F4C430"/>
</g>
<defs>
<clipPath id="clip0_18512_278257">
<rect width="166" height="40" fill="white"/>
</clipPath>
</defs>
</svg>
