<svg width="50" height="50" viewBox="0 0 50 50" fill="none" xmlns="http://www.w3.org/2000/svg">
<rect width="50" height="50" rx="25" fill="#1A1A1A"/>
<g clip-path="url(#clip0_18267_68058)">
<path d="M35.3593 18.0938V21.4726C35.3593 22.1976 35.2041 22.9142 34.904 23.5742C34.604 24.2342 34.1661 24.8223 33.6199 25.2989L27.2501 30.8568C25.9581 31.9841 24.0345 31.9926 22.7326 30.8768L16.8202 25.809C16.264 25.3322 15.8175 24.7408 15.5114 24.0753C15.2053 23.4098 15.0469 22.6859 15.0469 21.9533V18.0938C15.0469 15.2892 17.3204 13.0157 20.125 13.0157H30.2812C33.0858 13.0157 35.3593 15.2892 35.3593 18.0938Z" stroke="white" stroke-width="2.49999" stroke-miterlimit="10" stroke-linecap="round" stroke-linejoin="round"/>
<path d="M25 35.6133V36.9844" stroke="white" stroke-width="2.49999" stroke-miterlimit="10" stroke-linecap="round" stroke-linejoin="round"/>
<path d="M28.6562 33.9375V35.3594" stroke="white" stroke-width="2.49999" stroke-miterlimit="10" stroke-linecap="round" stroke-linejoin="round"/>
<path d="M21.3438 33.9375V35.3594" stroke="white" stroke-width="2.49999" stroke-miterlimit="10" stroke-linecap="round" stroke-linejoin="round"/>
<path d="M24.2524 17.8461L23.7527 18.8552C23.6927 18.9761 23.6043 19.0807 23.4949 19.1598C23.3856 19.239 23.2587 19.2905 23.125 19.3097L22.0077 19.4716C21.3239 19.5706 21.0508 20.4081 21.5456 20.8889L22.3541 21.6743C22.4509 21.7682 22.5233 21.8843 22.5651 22.0124C22.6069 22.1406 22.6168 22.277 22.5939 22.4099L22.4031 23.519C22.2862 24.1978 23.0011 24.7154 23.6127 24.3949L24.6121 23.8712C24.7318 23.8085 24.8649 23.7758 25 23.7758C25.1351 23.7758 25.2682 23.8085 25.3879 23.8712L26.3873 24.3949C26.9989 24.7154 27.7138 24.1978 27.5969 23.519L27.4061 22.4099C27.3833 22.277 27.3932 22.1406 27.4349 22.0124C27.4767 21.8843 27.5491 21.7682 27.6459 21.6743L28.4544 20.8889C28.9492 20.4081 28.6761 19.5706 27.9923 19.4716L26.875 19.3097C26.7414 19.2904 26.6145 19.239 26.5051 19.1598C26.3958 19.0807 26.3073 18.9761 26.2473 18.8552L25.7476 17.8461C25.4418 17.2285 24.5582 17.2285 24.2524 17.8461Z" stroke="white" stroke-width="2.49999" stroke-miterlimit="10" stroke-linecap="round" stroke-linejoin="round"/>
</g>
<defs>
<clipPath id="clip0_18267_68058">
<rect width="26" height="26" fill="white" transform="translate(12 12)"/>
</clipPath>
</defs>
</svg>
