<svg width="68" height="68" viewBox="0 0 68 68" fill="none" xmlns="http://www.w3.org/2000/svg">
<path d="M0 34C0 15.2223 15.2223 0 34 0C52.7777 0 68 15.2223 68 34C68 52.7777 52.7777 68 34 68C15.2223 68 0 52.7777 0 34Z" fill="#F4C430"/>
<path d="M25.7557 17.4338C25.8383 17.4331 25.8383 17.4331 25.9226 17.4325C26.0388 17.432 26.1551 17.4322 26.2713 17.4331C26.4491 17.434 26.6265 17.4317 26.8043 17.4291C26.9174 17.429 27.0305 17.4292 27.1435 17.4295C27.1966 17.4286 27.2496 17.4277 27.3042 17.4268C27.5726 17.4314 27.6907 17.4508 27.8896 17.6319C28.0142 17.8464 28.0188 17.9819 27.9956 18.2245C28.079 18.2486 28.079 18.2486 28.1642 18.2731C28.4865 18.3854 28.7867 18.5295 29.0933 18.6772C29.1585 18.7083 29.2238 18.7395 29.291 18.7716C29.43 18.8381 29.5691 18.9046 29.7081 18.9713C30.0687 19.1444 30.4298 19.3166 30.7908 19.489C30.8609 19.5225 30.931 19.556 31.0033 19.5905C31.4869 19.8215 31.9713 20.0504 32.4578 20.2755C33.0001 20.5264 33.5414 20.7792 34.082 21.0335C35.1814 21.5513 35.1814 21.5513 36.2838 22.0629C36.5945 22.206 36.9025 22.3519 37.2069 22.5072C37.7423 22.7758 38.1857 22.9806 38.7955 22.9887C39.3093 22.9956 39.5113 23.077 39.8715 23.4203C39.9871 23.5183 40.1042 23.6147 40.2212 23.7112C40.3507 23.818 40.4793 23.9259 40.6077 24.0339C41.0128 24.3734 41.4288 24.6999 41.8454 25.0258C41.951 25.1088 41.951 25.1088 42.0587 25.1935C42.1227 25.2434 42.1866 25.2934 42.2525 25.3449C42.4686 25.5284 42.4697 25.5857 42.4935 25.8728C42.5045 26.0668 42.4836 26.1383 42.3664 26.2988C42.1187 26.4811 41.8921 26.4626 41.5943 26.455C41.5369 26.4546 41.4796 26.4542 41.4206 26.4538C41.238 26.4523 41.0555 26.4489 40.8729 26.4454C40.7489 26.444 40.6249 26.4428 40.5009 26.4417C40.1974 26.4389 39.894 26.4335 39.5904 26.4283C39.5904 27.1954 39.5904 27.9624 39.5904 28.7527C39.9615 28.7527 40.3325 28.7527 40.7148 28.7527C41.0661 28.9578 41.0661 28.9578 41.1364 29.0945C41.1442 29.2069 41.1476 29.3195 41.1488 29.4321C41.1497 29.5023 41.1506 29.5726 41.1516 29.645C41.1523 29.7593 41.1523 29.7593 41.1531 29.8759C41.1537 29.954 41.1543 30.0321 41.1549 30.1125C41.1558 30.2779 41.1566 30.4433 41.1571 30.6087C41.1583 30.862 41.1614 31.1152 41.1645 31.3685C41.1652 31.529 41.1658 31.6895 41.1663 31.85C41.1675 31.9259 41.1688 32.0018 41.17 32.08C41.1697 32.1861 41.1697 32.1861 41.1694 32.2943C41.17 32.3875 41.17 32.3875 41.1707 32.4826C41.1256 32.7019 41.0297 32.7823 40.8553 32.923C40.6859 33.0054 40.5775 33.0009 40.3883 33.0024C40.3205 33.003 40.2527 33.0037 40.1829 33.0044C40.1094 33.0046 40.0359 33.0049 39.9602 33.0052C39.8848 33.0056 39.8094 33.006 39.7317 33.0064C39.5719 33.0071 39.4121 33.0075 39.2523 33.0078C39.008 33.0084 38.7638 33.0106 38.5195 33.0127C38.3643 33.0132 38.2092 33.0135 38.054 33.0138C37.981 33.0146 37.9079 33.0155 37.8326 33.0163C37.1929 33.0144 37.1929 33.0144 36.9201 32.7863C36.8329 32.6167 36.84 32.5017 36.8385 32.312C36.8378 32.2417 36.8371 32.1714 36.8365 32.099C36.836 31.9847 36.836 31.9847 36.8355 31.8681C36.8351 31.7901 36.8347 31.712 36.8343 31.6316C36.8337 31.4662 36.8332 31.3008 36.8329 31.1354C36.8323 30.8821 36.8301 30.6289 36.8279 30.3756C36.8274 30.2151 36.827 30.0546 36.8268 29.8941C36.8259 29.8182 36.825 29.7423 36.8241 29.664C36.8243 29.5933 36.8246 29.5226 36.8248 29.4498C36.8245 29.3876 36.8243 29.3255 36.824 29.2615C36.8552 29.0597 36.9164 28.9675 37.0606 28.8211C37.4834 28.684 37.9501 28.7527 38.3958 28.7527C38.3958 27.9857 38.3958 27.2186 38.3958 26.4283C34.9637 26.4283 31.5317 26.4283 27.9956 26.4283C27.9956 33.4446 27.9956 40.4609 27.9956 47.6898C28.6913 47.6898 29.387 47.6898 30.1037 47.6898C30.4991 48.0744 30.4991 48.0744 30.4994 48.3411C30.5003 48.4002 30.5012 48.4593 30.5021 48.5202C30.5012 48.5832 30.5003 48.6461 30.4993 48.711C30.4995 48.7765 30.4996 48.842 30.4998 48.9094C30.4997 49.0476 30.4988 49.1857 30.497 49.3238C30.4946 49.535 30.4956 49.7459 30.497 49.9571C30.4965 50.0915 30.4958 50.2259 30.4949 50.3603C30.4953 50.4233 30.4956 50.4862 30.496 50.5511C30.4948 50.6102 30.4937 50.6693 30.4926 50.7302C30.4919 50.8077 30.4919 50.8077 30.4913 50.8867C30.4334 51.1313 30.3772 51.2195 30.174 51.3815C29.8796 51.4341 29.5872 51.4274 29.2886 51.4247C29.1979 51.4252 29.1071 51.4256 29.0136 51.4261C28.7649 51.4274 28.5162 51.4265 28.2675 51.4252C28.0072 51.4241 27.7469 51.4247 27.4866 51.425C27.0494 51.4253 26.6123 51.4242 26.1751 51.4223C25.6698 51.4201 25.1645 51.4201 24.6591 51.4213C24.1729 51.4224 23.6867 51.4219 23.2005 51.4208C22.9936 51.4203 22.7868 51.4204 22.5799 51.4209C22.291 51.4215 22.0022 51.4199 21.7133 51.418C21.6273 51.4184 21.5414 51.4189 21.4528 51.4193C21.3742 51.4185 21.2956 51.4176 21.2146 51.4167C21.1463 51.4165 21.078 51.4163 21.0076 51.4161C20.7764 51.3716 20.6923 51.2846 20.5468 51.1081C20.5106 50.9576 20.5106 50.9576 20.5093 50.7927C20.5076 50.6996 20.5076 50.6996 20.5059 50.6046C20.5063 50.5381 20.5066 50.4716 20.507 50.403C20.5063 50.2999 20.5063 50.2999 20.5057 50.1947C20.5052 50.0494 20.5054 49.9041 20.5063 49.7589C20.5073 49.5364 20.5049 49.3142 20.5022 49.0918C20.5021 48.9506 20.5023 48.8095 20.5026 48.6683C20.5017 48.6018 20.5007 48.5352 20.4998 48.4667C20.5011 48.3736 20.5011 48.3736 20.5024 48.2787C20.5025 48.2242 20.5026 48.1698 20.5027 48.1137C20.5468 47.9633 20.5468 47.9633 20.8982 47.6898C21.5938 47.6898 22.2895 47.6898 23.0063 47.6898C23.0063 40.6735 23.0063 33.6572 23.0063 26.4283C22.5657 26.4283 22.1251 26.4283 21.6711 26.4283C21.6711 26.5862 21.6711 26.7442 21.6711 26.9069C21.5574 27.105 21.5574 27.105 21.3198 27.2487C20.9903 27.2988 20.662 27.2952 20.3294 27.2917C20.2315 27.2917 20.1336 27.2919 20.0357 27.2922C19.8308 27.2924 19.626 27.2914 19.4211 27.2895C19.159 27.2872 18.8971 27.2876 18.635 27.2889C18.4329 27.2896 18.2308 27.289 18.0288 27.2879C17.9322 27.2876 17.8356 27.2876 17.739 27.288C17.6038 27.2884 17.4686 27.2868 17.3334 27.2852C17.2566 27.2847 17.1798 27.2843 17.1006 27.2839C16.8363 27.2392 16.7214 27.1682 16.5413 26.9752C16.4976 26.7755 16.4976 26.7755 16.4981 26.5406C16.4974 26.4525 16.4968 26.3645 16.4961 26.2737C16.4972 26.1779 16.4984 26.082 16.4996 25.9861C16.4997 25.8875 16.4997 25.7889 16.4996 25.6903C16.4997 25.4839 16.501 25.2775 16.5032 25.0711C16.506 24.8067 16.5063 24.5424 16.5058 24.278C16.5056 24.0744 16.5064 23.8709 16.5076 23.6674C16.5081 23.57 16.5083 23.4725 16.5083 23.375C16.5084 23.2387 16.5101 23.1024 16.5118 22.9661C16.5124 22.8886 16.513 22.8111 16.5136 22.7313C16.5444 22.5093 16.5907 22.4154 16.7521 22.258C16.9461 22.1951 17.055 22.182 17.2542 22.1843C17.3419 22.1849 17.3419 22.1849 17.4313 22.1855C17.5258 22.1864 17.5258 22.1864 17.6223 22.1873C17.7564 22.187 17.8906 22.1866 18.0247 22.1861C18.2357 22.1854 18.4465 22.1854 18.6575 22.188C19.5754 22.2357 19.5754 22.2357 20.3681 21.866C20.4531 21.7705 20.5364 21.6734 20.6171 21.5744C20.6941 21.5097 20.7731 21.4472 20.8545 21.3877C20.891 21.3602 20.9276 21.3326 20.9652 21.3042C21.0025 21.2763 21.0398 21.2485 21.0782 21.2198C21.4403 20.946 21.7987 20.6683 22.1543 20.3866C22.2009 20.3496 22.2476 20.3126 22.2957 20.2745C22.5364 20.0838 22.7766 19.8927 23.0167 19.7013C23.0646 19.6633 23.1124 19.6253 23.1617 19.5861C23.2565 19.5107 23.3511 19.4352 23.4457 19.3594C23.6587 19.1899 23.8722 19.0265 24.1002 18.8764C24.5861 18.5615 24.5861 18.5615 24.8334 18.0664C24.8464 17.9843 24.8464 17.9843 24.8597 17.9006C24.9872 17.4516 25.3358 17.4311 25.7557 17.4338ZM25.9577 18.5663C25.6701 19.5029 25.3957 20.4428 25.1317 21.3859C25.0997 21.5001 25.0676 21.6142 25.0354 21.7283C24.9898 21.8902 24.9446 22.0522 24.8995 22.2143C24.8857 22.263 24.8719 22.3117 24.8577 22.3619C24.7951 22.5892 24.7631 22.7724 24.7631 23.0101C25.4356 23.0101 26.1081 23.0101 26.801 23.0101C26.801 21.5436 26.801 20.0772 26.801 18.5663C26.5227 18.5663 26.2444 18.5663 25.9577 18.5663ZM27.9956 19.5234C27.9956 20.674 27.9956 21.8246 27.9956 23.0101C30.4305 23.0101 32.8654 23.0101 35.3741 23.0101C35.1831 22.8707 35.042 22.7718 34.8352 22.6744C34.7855 22.6508 34.7358 22.6272 34.6846 22.6029C34.6312 22.5779 34.5779 22.553 34.5229 22.5272C34.4668 22.5007 34.4108 22.4742 34.353 22.4469C34.1709 22.3609 33.9885 22.2753 33.8062 22.1897C33.6803 22.1304 33.5545 22.071 33.4287 22.0117C32.6578 21.6483 31.8861 21.2867 31.1125 20.9287C30.8355 20.8004 30.5591 20.6709 30.283 20.5409C30.2055 20.5045 30.1281 20.4681 30.0483 20.4306C29.9014 20.3616 29.7547 20.2924 29.608 20.223C29.0758 19.9731 28.5404 19.7506 27.9956 19.5234ZM24.1306 20.3438C24.0761 20.3894 24.0216 20.435 23.9654 20.4819C23.5523 20.8254 23.1353 21.1627 22.7076 21.4889C22.6667 21.5206 22.6258 21.5522 22.5837 21.5847C22.4022 21.7241 22.2224 21.8547 22.0283 21.9774C21.8283 22.0986 21.8283 22.0986 21.6009 22.3264C21.6241 22.552 21.6472 22.7776 21.6711 23.0101C22.2741 23.0101 22.877 23.0101 23.4982 23.0101C23.6001 22.6635 23.7017 22.3168 23.8023 21.9698C23.8366 21.8518 23.8712 21.7338 23.906 21.6159C23.9559 21.4465 24.0051 21.277 24.0541 21.1073C24.0698 21.0545 24.0855 21.0018 24.1017 20.9474C24.1909 20.6464 24.1909 20.6464 24.1306 20.3438ZM17.6657 23.3519C17.6657 24.2543 17.6657 25.1567 17.6657 26.0865C18.5932 26.0865 19.5208 26.0865 20.4765 26.0865C20.4765 25.1841 20.4765 24.2816 20.4765 23.3519C19.5489 23.3519 18.6214 23.3519 17.6657 23.3519ZM22.2333 24.1723C22.3956 24.4204 22.558 24.6686 22.7252 24.9243C22.9809 24.7999 23.1098 24.7036 23.305 24.5098C23.3546 24.4611 23.4042 24.4123 23.4554 24.3621C23.5763 24.2595 23.5763 24.2595 23.5685 24.1723C23.1279 24.1723 22.6873 24.1723 22.2333 24.1723ZM26.5199 24.1723C26.7745 24.4613 27.0148 24.73 27.2929 24.9926C27.5498 24.8877 27.7136 24.7363 27.9078 24.544C27.9639 24.4889 28.0201 24.4338 28.0779 24.3771C28.2143 24.2631 28.2143 24.2631 28.2064 24.1723C27.6499 24.1723 27.0933 24.1723 26.5199 24.1723ZM31.2281 24.1723C31.4827 24.4613 31.723 24.73 32.0011 24.9926C32.258 24.8877 32.4218 24.7363 32.616 24.544C32.6721 24.4889 32.7283 24.4338 32.7861 24.3771C32.9225 24.2631 32.9225 24.2631 32.9146 24.1723C32.3581 24.1723 31.8015 24.1723 31.2281 24.1723ZM35.9363 24.1723C36.1909 24.4613 36.4312 24.73 36.7093 24.9926C36.9662 24.8877 37.13 24.7363 37.3242 24.544C37.3803 24.4889 37.4365 24.4338 37.4943 24.3771C37.6307 24.2631 37.6307 24.2631 37.6228 24.1723C37.0663 24.1723 36.5097 24.1723 35.9363 24.1723ZM38.7926 24.6656C38.753 24.7045 38.7133 24.7433 38.6725 24.7833C38.6326 24.8218 38.5927 24.8604 38.5516 24.9001C38.3493 25.0574 38.3493 25.0574 38.2553 25.2661C38.8814 25.2661 39.5075 25.2661 40.1526 25.2661C39.927 25.0466 39.7049 24.8353 39.4674 24.6295C39.4127 24.5818 39.358 24.5341 39.3016 24.485C39.0524 24.2831 38.996 24.4682 38.7926 24.6656ZM24.7911 24.6078C24.7199 24.6774 24.6491 24.7472 24.5786 24.8175C24.5243 24.8704 24.5243 24.8704 24.4688 24.9244C24.284 25.0708 24.284 25.0708 24.2009 25.2661C24.7575 25.2661 25.314 25.2661 25.8874 25.2661C25.5168 24.8393 25.5168 24.8393 25.1145 24.4457C24.95 24.4304 24.95 24.4304 24.7911 24.6078ZM29.6821 24.4457C29.5531 24.5694 29.4243 24.6934 29.2956 24.8175C29.2587 24.8528 29.2219 24.888 29.1839 24.9244C29.091 25.0142 28.9999 25.1059 28.9091 25.1977C28.9091 25.2203 28.9091 25.2429 28.9091 25.2661C29.4425 25.2661 29.9758 25.2661 30.5254 25.2661C30.2404 24.9427 30.016 24.7009 29.6821 24.4457ZM34.3903 24.4457C34.2613 24.5694 34.1325 24.6934 34.0038 24.8175C33.967 24.8528 33.9301 24.888 33.8921 24.9244C33.7992 25.0142 33.7081 25.1059 33.6173 25.1977C33.6173 25.2203 33.6173 25.2429 33.6173 25.2661C34.1507 25.2661 34.684 25.2661 35.2336 25.2661C34.9486 24.9427 34.7242 24.7009 34.3903 24.4457ZM25.0442 26.4283C25.4035 26.8361 25.4035 26.8361 25.7812 27.2228C25.8366 27.2768 25.892 27.3307 25.9491 27.3864C26.0055 27.441 26.062 27.4957 26.1202 27.5521C26.1781 27.6086 26.2359 27.6651 26.2955 27.7234C26.3504 27.7767 26.4054 27.8301 26.462 27.8851C26.5119 27.9336 26.5618 27.9821 26.6133 28.0321C26.7127 28.1452 26.7127 28.1452 26.801 28.1374C26.801 27.5734 26.801 27.0094 26.801 26.4283C26.2212 26.4283 25.6415 26.4283 25.0442 26.4283ZM24.2009 27.3854C24.2009 28.8518 24.2009 30.3183 24.2009 31.8291C24.5279 31.5565 24.8388 31.2864 25.1405 30.9901C25.1804 30.9512 25.2202 30.9123 25.2613 30.8723C25.3867 30.7499 25.5119 30.6272 25.6371 30.5046C25.7229 30.4208 25.8086 30.337 25.8944 30.2533C26.1031 30.0495 26.3116 29.8455 26.5199 29.6415C26.2461 29.323 25.9621 29.0203 25.6599 28.7273C25.6201 28.6886 25.5803 28.6498 25.5393 28.6098C25.4562 28.5289 25.373 28.4481 25.2897 28.3674C25.1616 28.2431 25.0339 28.1185 24.9062 27.9939C24.8252 27.915 24.744 27.8362 24.6629 27.7574C24.6246 27.72 24.5863 27.6827 24.5469 27.6441C24.3987 27.4659 24.3987 27.4659 24.2009 27.3854ZM38.0444 29.9149C38.0444 30.5466 38.0444 31.1783 38.0444 31.8291C38.6706 31.8291 39.2967 31.8291 39.9418 31.8291C39.9418 31.1974 39.9418 30.5658 39.9418 29.9149C39.3157 29.9149 38.6895 29.9149 38.0444 29.9149ZM26.6369 31.1602C26.5971 31.199 26.5573 31.2379 26.5163 31.2779C26.4713 31.3217 26.4263 31.3655 26.3799 31.4107C26.3311 31.4585 26.2822 31.5064 26.2319 31.5557C26.1821 31.6042 26.1323 31.6528 26.081 31.7028C25.9211 31.8587 25.7616 32.0148 25.602 32.171C25.494 32.2764 25.3859 32.3818 25.2779 32.4872C25.0124 32.7462 24.7471 33.0054 24.482 33.2648C24.5742 33.4629 24.6729 33.6043 24.8309 33.7576C24.8729 33.7986 24.9149 33.8397 24.9581 33.8819C25.0258 33.9471 25.0258 33.9471 25.095 34.0136C25.1414 34.0588 25.1878 34.1039 25.2357 34.1504C25.3336 34.2455 25.4317 34.3404 25.53 34.4352C25.6811 34.5809 25.8316 34.7272 25.982 34.8735C26.0772 34.9658 26.1724 35.058 26.2676 35.1502C26.3129 35.1942 26.3582 35.2382 26.4049 35.2835C26.5765 35.4904 26.5765 35.4904 26.801 35.5892C26.801 34.1002 26.801 32.6112 26.801 31.0771C26.7182 31.0695 26.7182 31.0695 26.6369 31.1602ZM24.2009 34.8372C24.2009 36.3036 24.2009 37.7701 24.2009 39.2809C24.5279 39.0083 24.8388 38.7382 25.1405 38.4418C25.1804 38.403 25.2202 38.3641 25.2613 38.3241C25.3867 38.2016 25.5119 38.079 25.6371 37.9563C25.7229 37.8726 25.8086 37.7888 25.8944 37.7051C26.1031 37.5013 26.3116 37.2973 26.5199 37.0932C26.2461 36.7748 25.9621 36.4721 25.6599 36.1791C25.6201 36.1404 25.5803 36.1016 25.5393 36.0616C25.4562 35.9807 25.373 35.8999 25.2897 35.8192C25.1616 35.6949 25.0339 35.5703 24.9062 35.4457C24.8252 35.3668 24.744 35.288 24.6629 35.2092C24.6246 35.1718 24.5863 35.1344 24.5469 35.0959C24.3987 34.9177 24.3987 34.9177 24.2009 34.8372ZM26.6369 38.612C26.5971 38.6508 26.5573 38.6897 26.5163 38.7297C26.4713 38.7735 26.4263 38.8173 26.3799 38.8625C26.3311 38.9103 26.2822 38.9582 26.2319 39.0075C26.1821 39.056 26.1323 39.1046 26.081 39.1546C25.9211 39.3105 25.7616 39.4666 25.602 39.6227C25.494 39.7282 25.3859 39.8336 25.2779 39.9389C25.0124 40.198 24.7471 40.4572 24.482 40.7166C24.5742 40.9147 24.6729 41.0561 24.8309 41.2094C24.8729 41.2504 24.9149 41.2914 24.9581 41.3337C25.0258 41.3989 25.0258 41.3989 25.095 41.4654C25.1414 41.5105 25.1878 41.5557 25.2357 41.6022C25.3336 41.6973 25.4317 41.7922 25.53 41.8869C25.6811 42.0327 25.8316 42.1789 25.982 42.3253C26.0772 42.4176 26.1724 42.5098 26.2676 42.602C26.3129 42.646 26.3582 42.69 26.4049 42.7353C26.5765 42.9422 26.5765 42.9422 26.801 43.041C26.801 41.552 26.801 40.063 26.801 38.5289C26.7182 38.5212 26.7182 38.5212 26.6369 38.612ZM24.2009 42.289C24.2009 43.778 24.2009 45.267 24.2009 46.8011C24.5279 46.5284 24.8388 46.2584 25.1405 45.962C25.1804 45.9231 25.2202 45.8842 25.2613 45.8442C25.3867 45.7218 25.5119 45.5991 25.6371 45.4765C25.7229 45.3927 25.8086 45.3089 25.8944 45.2252C26.1031 45.0214 26.3116 44.8175 26.5199 44.6134C26.4277 44.4153 26.329 44.2739 26.171 44.1206C26.129 44.0796 26.087 44.0385 26.0438 43.9962C25.9986 43.9528 25.9535 43.9093 25.9069 43.8646C25.8605 43.8194 25.8141 43.7743 25.7662 43.7278C25.6683 43.6327 25.5702 43.5378 25.4719 43.443C25.3208 43.2973 25.1703 43.151 25.0199 43.0047C24.9247 42.9124 24.8295 42.8202 24.7343 42.728C24.6663 42.662 24.6663 42.662 24.597 42.5947C24.4254 42.3878 24.4254 42.3878 24.2009 42.289ZM26.4656 46.2291C26.4291 46.2648 26.3925 46.3004 26.3549 46.3372C26.3176 46.3735 26.2802 46.4097 26.2418 46.4471C26.1627 46.5239 26.0837 46.6009 26.0048 46.6779C25.8836 46.7963 25.7619 46.9143 25.6403 47.0322C25.5637 47.1067 25.4872 47.1813 25.4106 47.2559C25.3556 47.3092 25.3556 47.3092 25.2995 47.3635C25.1228 47.503 25.1228 47.503 25.0442 47.6898C25.6239 47.6898 26.2037 47.6898 26.801 47.6898C26.801 47.1258 26.801 46.5618 26.801 45.9807C26.6535 45.9807 26.5644 46.1336 26.4656 46.2291ZM21.7414 48.852C21.7414 49.3258 21.7414 49.7996 21.7414 50.2877C24.2227 50.2877 26.704 50.2877 29.2605 50.2877C29.2605 49.8139 29.2605 49.3401 29.2605 48.852C26.7792 48.852 24.2979 48.852 21.7414 48.852Z" fill="#1A1A1A"/>
<path d="M44.4563 20.4289C44.5105 20.4284 44.5648 20.4279 44.6207 20.4274C44.7999 20.4262 44.979 20.427 45.1582 20.4279C45.2828 20.4277 45.4074 20.4275 45.532 20.4271C45.7931 20.4267 46.0542 20.4273 46.3153 20.4286C46.6499 20.4301 46.9845 20.4293 47.3192 20.4276C47.5765 20.4266 47.8338 20.4269 48.0911 20.4277C48.2145 20.4278 48.3379 20.4276 48.4613 20.427C48.6338 20.4263 48.8061 20.4273 48.9786 20.4289C49.0296 20.4283 49.0806 20.4278 49.1331 20.4272C49.3692 20.431 49.4978 20.4474 49.6881 20.5901C49.9089 20.8884 49.8756 21.1949 49.8741 21.5481C49.8741 21.6101 49.8741 21.672 49.8741 21.7359C49.8741 21.9409 49.8735 22.1459 49.873 22.3509C49.8729 22.4929 49.8728 22.635 49.8727 22.777C49.8724 23.1511 49.8717 23.5251 49.871 23.8992C49.8703 24.2808 49.87 24.6625 49.8696 25.0441C49.8689 25.793 49.8677 26.542 49.8662 27.2909C49.9238 27.2888 49.9238 27.2888 49.9825 27.2866C50.1571 27.2809 50.3317 27.2773 50.5064 27.2738C50.5668 27.2715 50.6272 27.2693 50.6894 27.2669C50.777 27.2656 50.777 27.2656 50.8664 27.2642C50.9469 27.2621 50.9469 27.2621 51.029 27.2599C51.2453 27.304 51.32 27.396 51.4579 27.564C51.4926 27.7486 51.4926 27.7486 51.4928 27.9646C51.4935 28.047 51.4942 28.1295 51.4949 28.2144C51.4943 28.3059 51.4937 28.3975 51.4931 28.4891C51.4934 28.5863 51.4938 28.6835 51.4944 28.7807C51.4955 29.0481 51.495 29.3154 51.4941 29.5828C51.4935 29.8711 51.4944 30.1593 51.4952 30.4475C51.4964 31.0123 51.4962 31.5771 51.4954 32.1419C51.4947 32.6008 51.4947 33.0597 51.495 33.5187C51.495 33.5839 51.495 33.6492 51.4951 33.7164C51.4952 33.8489 51.4953 33.9815 51.4954 34.114C51.4962 35.3576 51.4952 36.6013 51.4938 37.8449C51.4925 38.9126 51.4927 39.9802 51.494 41.0479C51.4955 42.287 51.4961 43.5261 51.4952 44.7652C51.4951 44.8973 51.4951 45.0293 51.495 45.1614C51.4949 45.2589 51.4949 45.2589 51.4948 45.3583C51.4946 45.8168 51.495 46.2753 51.4956 46.7338C51.4964 47.2924 51.4962 47.8509 51.4947 48.4095C51.494 48.6946 51.4937 48.9797 51.4946 49.2649C51.4955 49.5257 51.495 49.7865 51.4935 50.0473C51.4932 50.1419 51.4934 50.2364 51.4941 50.3309C51.4949 50.4591 51.4939 50.5873 51.4928 50.7154C51.4927 50.7867 51.4927 50.858 51.4926 50.9315C51.4483 51.1671 51.3747 51.2475 51.1811 51.3892C51.0357 51.4234 51.0357 51.4234 50.8765 51.4235C50.8157 51.4242 50.7548 51.4249 50.692 51.4257C50.6254 51.4251 50.5588 51.4245 50.4902 51.4238C50.3838 51.4245 50.3838 51.4245 50.2752 51.4251C50.0366 51.4262 49.7981 51.4253 49.5595 51.4245C49.3888 51.4249 49.2181 51.4253 49.0474 51.4259C48.6313 51.4271 48.2154 51.4269 47.7993 51.4261C47.4613 51.4255 47.1232 51.4254 46.7852 51.4257C46.713 51.4258 46.713 51.4258 46.6394 51.4258C46.5417 51.4259 46.444 51.426 46.3463 51.4261C45.43 51.4269 44.5137 51.426 43.5973 51.4245C42.8109 51.4233 42.0244 51.4235 41.2379 51.4248C40.3249 51.4262 39.4118 51.4268 38.4988 51.426C38.4015 51.4259 38.3041 51.4258 38.2068 51.4257C38.1589 51.4257 38.111 51.4256 38.0617 51.4256C37.724 51.4253 37.3863 51.4257 37.0486 51.4264C36.5941 51.4272 36.1397 51.4266 35.6853 51.425C35.5183 51.4247 35.3512 51.4248 35.1842 51.4254C34.9567 51.4261 34.7292 51.4252 34.5017 51.4238C34.4018 51.4247 34.4018 51.4247 34.2999 51.4257C33.8571 51.4205 33.8571 51.4205 33.6315 51.2676C33.5283 51.1071 33.4993 51.0292 33.4989 50.8415C33.4981 50.7875 33.4973 50.7335 33.4965 50.6779C33.4971 50.6193 33.4976 50.5607 33.4982 50.5004C33.4975 50.4071 33.4975 50.4071 33.4968 50.3119C33.4955 50.1063 33.4963 49.9008 33.4973 49.6953C33.4971 49.5525 33.4968 49.4096 33.4965 49.2668C33.4961 48.9675 33.4967 48.6681 33.498 48.3688C33.4995 47.985 33.4986 47.6012 33.497 47.2173C33.496 46.9224 33.4963 46.6275 33.497 46.3325C33.4972 46.191 33.497 46.0495 33.4963 45.9079C33.4956 45.7102 33.4967 45.5125 33.4982 45.3147C33.4977 45.2561 33.4971 45.1975 33.4965 45.1372C33.4973 45.0832 33.4981 45.0292 33.4989 44.9736C33.499 44.9269 33.4991 44.8802 33.4992 44.832C33.5514 44.6325 33.6473 44.5505 33.8109 44.4259C33.9834 44.3931 33.9834 44.3931 34.179 44.3949C34.2524 44.3949 34.3258 44.395 34.4014 44.395C34.4802 44.3964 34.559 44.3978 34.6402 44.3993C34.7212 44.3996 34.8023 44.4 34.8857 44.4004C35.1445 44.402 35.4033 44.4054 35.6621 44.4089C35.8375 44.4102 36.013 44.4115 36.1884 44.4126C36.6185 44.4156 37.0486 44.4202 37.4787 44.4259C37.4784 44.3777 37.478 44.3294 37.4777 44.2797C37.4701 43.106 37.4643 41.9323 37.4608 40.7586C37.459 40.191 37.4565 39.6234 37.4526 39.0558C37.4491 38.5611 37.4469 38.0664 37.4461 37.5717C37.4457 37.3097 37.4446 37.0478 37.4421 36.7859C37.4397 36.5393 37.439 36.2927 37.4395 36.0461C37.4394 35.9125 37.4375 35.7789 37.4356 35.6454C37.4391 35.0647 37.4391 35.0647 37.6279 34.7804C37.8555 34.6455 37.9809 34.6222 38.2451 34.625C38.3698 34.625 38.3698 34.625 38.497 34.6251C38.586 34.6268 38.6751 34.6286 38.7668 34.6304C38.8594 34.631 38.952 34.6315 39.0446 34.6319C39.2875 34.6332 39.5304 34.6365 39.7733 34.6403C40.0215 34.6438 40.2697 34.6453 40.5179 34.6471C41.0042 34.6507 41.4906 34.6565 41.977 34.6637C41.9763 34.5764 41.9757 34.4891 41.9751 34.3991C41.9695 33.5764 41.9653 32.7537 41.9626 31.931C41.9612 31.5081 41.9592 31.0851 41.9561 30.6622C41.9531 30.2541 41.9514 29.846 41.9507 29.4378C41.9502 29.2821 41.9492 29.1263 41.9477 28.9705C41.9457 28.7525 41.9454 28.5345 41.9455 28.3165C41.9445 28.2519 41.9435 28.1874 41.9425 28.1209C41.9442 27.8527 41.9612 27.6671 42.073 27.4201C42.3552 27.2184 42.6245 27.2544 42.9631 27.2696C43.0279 27.2711 43.0926 27.2726 43.1594 27.2742C43.319 27.2782 43.4784 27.2839 43.6379 27.2909C43.6372 27.2094 43.6366 27.1279 43.636 27.0439C43.6304 26.2765 43.6262 25.509 43.6235 24.7416C43.6221 24.347 43.6201 23.9524 43.617 23.5579C43.614 23.1772 43.6123 22.7966 43.6116 22.4159C43.6111 22.2705 43.6101 22.1252 43.6086 21.9798C43.6066 21.7765 43.6063 21.5732 43.6064 21.3699C43.6054 21.3096 43.6044 21.2493 43.6034 21.1871C43.6051 20.9355 43.6107 20.7816 43.7444 20.5634C43.9794 20.4265 44.191 20.426 44.4563 20.4289ZM44.8143 21.6247C44.8143 23.4946 44.8143 25.3644 44.8143 27.2909C46.0932 27.2909 47.3721 27.2909 48.6898 27.2909C48.6898 25.4211 48.6898 23.5512 48.6898 21.6247C47.4109 21.6247 46.132 21.6247 44.8143 21.6247ZM43.1534 28.4514C43.1534 30.5015 43.1534 32.5516 43.1534 34.6637C45.5285 34.6637 47.9036 34.6637 50.3507 34.6637C50.3507 32.6137 50.3507 30.5636 50.3507 28.4514C47.9756 28.4514 45.6005 28.4514 43.1534 28.4514ZM38.6552 35.8243C38.6552 38.6628 38.6552 41.5014 38.6552 44.4259C42.5147 44.4259 46.3742 44.4259 50.3507 44.4259C50.3507 41.5874 50.3507 38.7488 50.3507 35.8243C46.4911 35.8243 42.6316 35.8243 38.6552 35.8243ZM34.7105 45.5865C34.7105 47.1409 34.7105 48.6953 34.7105 50.2969C39.8718 50.2969 45.033 50.2969 50.3507 50.2969C50.3507 48.7424 50.3507 47.188 50.3507 45.5865C45.1894 45.5865 40.0282 45.5865 34.7105 45.5865Z" fill="#1A1A1A"/>
<path d="M40.1271 36.4373C40.1973 36.4364 40.2675 36.4355 40.3398 36.4346C40.4165 36.4351 40.4933 36.4355 40.5723 36.436C40.6939 36.4351 40.6939 36.4351 40.8179 36.4342C41.04 36.4326 41.2621 36.4328 41.4842 36.4334C41.6696 36.4338 41.8551 36.4333 42.0406 36.4328C42.4782 36.4316 42.9158 36.4318 43.3534 36.433C43.8048 36.4342 44.256 36.4331 44.7073 36.4308C45.095 36.429 45.4826 36.4285 45.8702 36.4291C46.1017 36.4294 46.3331 36.4293 46.5646 36.4278C46.8227 36.4263 47.0807 36.4276 47.3388 36.4292C47.4154 36.4284 47.492 36.4276 47.571 36.4268C48.0786 36.4331 48.0786 36.4331 48.3435 36.6114C48.4881 36.8826 48.4984 37.1135 48.4943 37.4191C48.495 37.5085 48.495 37.5085 48.4957 37.5997C48.4968 37.7964 48.4955 37.9929 48.4942 38.1896C48.4942 38.3265 48.4944 38.4634 48.4946 38.6003C48.4948 38.887 48.4939 39.1737 48.4922 39.4605C48.49 39.8278 48.4904 40.1951 48.4916 40.5625C48.4922 40.8451 48.4917 41.1277 48.4907 41.4104C48.4904 41.5458 48.4904 41.6813 48.4908 41.8167C48.4912 42.0061 48.4899 42.1954 48.4881 42.3847C48.4885 42.4406 48.489 42.4964 48.4894 42.554C48.4854 42.8128 48.4632 42.9689 48.3375 43.1908C48.1299 43.404 47.9588 43.4089 47.6857 43.4099C47.5847 43.4105 47.5847 43.4105 47.4816 43.4111C47.4077 43.4111 47.3338 43.4112 47.2577 43.4113C47.1798 43.4116 47.102 43.412 47.0218 43.4123C46.8082 43.4132 46.5946 43.4137 46.381 43.414C46.2475 43.4142 46.114 43.4145 45.9805 43.4148C45.5627 43.4157 45.1448 43.4164 44.727 43.4167C44.2449 43.417 43.7629 43.4182 43.2808 43.4202C42.908 43.4217 42.5352 43.4224 42.1624 43.4225C41.9399 43.4226 41.7173 43.423 41.4947 43.4242C41.2463 43.4256 40.998 43.4253 40.7496 43.4248C40.6761 43.4255 40.6025 43.4261 40.5268 43.4268C39.8936 43.4232 39.8936 43.4232 39.5916 43.1923C39.4878 42.9652 39.5178 42.7135 39.5171 42.4638C39.5167 42.4027 39.5163 42.3417 39.5158 42.2787C39.5146 42.0762 39.5138 41.8736 39.5132 41.671C39.513 41.602 39.5127 41.5329 39.5124 41.4617C39.5111 41.0962 39.5102 40.7308 39.5096 40.3653C39.5089 39.9873 39.5067 39.6093 39.5042 39.2313C39.5026 38.9411 39.502 38.6508 39.5018 38.3606C39.5015 38.2212 39.5008 38.0819 39.4996 37.9425C39.4981 37.7476 39.4981 37.5528 39.4986 37.3579C39.4977 37.3002 39.4969 37.2425 39.4961 37.183C39.4981 36.9451 39.5009 36.7893 39.6352 36.5967C39.8142 36.4453 39.9028 36.438 40.1271 36.4373ZM40.6045 37.6506C40.6045 38.1992 40.6045 38.7478 40.6045 39.3131C41.1059 39.3131 41.6073 39.3131 42.1238 39.3131C42.1238 38.7644 42.1238 38.2158 42.1238 37.6506C41.6224 37.6506 41.1211 37.6506 40.6045 37.6506ZM43.2 37.6506C43.2 38.1992 43.2 38.7478 43.2 39.3131C43.7223 39.3131 44.2446 39.3131 44.7827 39.3131C44.7827 38.7644 44.7827 38.2158 44.7827 37.6506C44.2604 37.6506 43.7381 37.6506 43.2 37.6506ZM45.8588 37.6506C45.8588 38.1992 45.8588 38.7478 45.8588 39.3131C46.3602 39.3131 46.8616 39.3131 47.3782 39.3131C47.3782 38.7644 47.3782 38.2158 47.3782 37.6506C46.8768 37.6506 46.3754 37.6506 45.8588 37.6506ZM40.6045 40.4907C40.6045 41.0622 40.6045 41.6337 40.6045 42.2225C41.1059 42.2225 41.6073 42.2225 42.1238 42.2225C42.1238 41.651 42.1238 41.0795 42.1238 40.4907C41.6224 40.4907 41.1211 40.4907 40.6045 40.4907ZM43.2 40.4907C43.2 41.0622 43.2 41.6337 43.2 42.2225C43.7223 42.2225 44.2446 42.2225 44.7827 42.2225C44.7827 41.651 44.7827 41.0795 44.7827 40.4907C44.2604 40.4907 43.7381 40.4907 43.2 40.4907ZM45.8588 40.4907C45.8588 41.0622 45.8588 41.6337 45.8588 42.2225C46.3602 42.2225 46.8616 42.2225 47.3782 42.2225C47.3782 41.651 47.3782 41.0795 47.3782 40.4907C46.8768 40.4907 46.3754 40.4907 45.8588 40.4907Z" fill="#1A1A1A"/>
<path d="M44.3196 29.429C44.3713 29.4285 44.423 29.428 44.4763 29.4275C44.6469 29.4262 44.8175 29.427 44.9881 29.428C45.1068 29.4278 45.2255 29.4275 45.3442 29.4272C45.5928 29.4267 45.8415 29.4274 46.0901 29.4287C46.4089 29.4304 46.7275 29.4295 47.0463 29.4277C47.2913 29.4266 47.5363 29.427 47.7814 29.4277C47.8989 29.4279 48.0164 29.4277 48.1339 29.427C48.2982 29.4262 48.4624 29.4274 48.6266 29.429C48.6752 29.4284 48.7238 29.4278 48.7738 29.4272C48.9987 29.4314 49.1211 29.449 49.3024 29.6034C49.509 29.9203 49.4837 30.2463 49.4854 30.6223C49.4858 30.685 49.4861 30.7477 49.4865 30.8123C49.4872 30.9449 49.4876 31.0776 49.4878 31.2102C49.4885 31.4127 49.4905 31.6152 49.4926 31.8176C49.493 31.9466 49.4934 32.0756 49.4936 32.2046C49.4944 32.2649 49.4953 32.3253 49.4961 32.3875C49.4949 32.7297 49.4736 32.9546 49.2743 33.2316C49.0351 33.4102 48.858 33.4015 48.5814 33.4018C48.5311 33.4024 48.4808 33.403 48.429 33.4037C48.2626 33.4055 48.0962 33.4061 47.9298 33.4066C47.8142 33.4073 47.6985 33.4079 47.5828 33.4086C47.3403 33.4098 47.0977 33.4104 46.8551 33.4106C46.5445 33.411 46.2339 33.4138 45.9232 33.4172C45.6843 33.4194 45.4453 33.4199 45.2064 33.42C45.0918 33.4203 44.9773 33.4212 44.8628 33.4227C44.7025 33.4247 44.5423 33.4244 44.382 33.4234C44.3348 33.4245 44.2876 33.4256 44.239 33.4268C43.9888 33.4227 43.8764 33.3849 43.6755 33.2129C43.5373 33.0058 43.4989 32.927 43.4986 32.6748C43.4978 32.6108 43.4969 32.5467 43.4961 32.4807C43.497 32.4125 43.4978 32.3443 43.4987 32.2741C43.4986 32.2032 43.4984 32.1323 43.4983 32.0593C43.4983 31.9099 43.4992 31.7604 43.5008 31.611C43.5031 31.3822 43.5022 31.1536 43.5009 30.9249C43.5014 30.7795 43.502 30.6341 43.5029 30.4888C43.5025 30.4204 43.5022 30.352 43.5019 30.2816C43.5029 30.2178 43.504 30.154 43.505 30.0883C43.5054 30.0323 43.5059 29.9764 43.5063 29.9188C43.61 29.4408 43.9409 29.4244 44.3196 29.429ZM44.6606 30.6482C44.6606 31.1354 44.6606 31.6225 44.6606 32.1244C45.0739 32.1244 45.4871 32.1244 45.9129 32.1244C45.9129 31.6373 45.9129 31.1501 45.9129 30.6482C45.4997 30.6482 45.0864 30.6482 44.6606 30.6482ZM47.0334 30.6482C47.0334 31.1354 47.0334 31.6225 47.0334 32.1244C47.4684 32.1244 47.9034 32.1244 48.3515 32.1244C48.3515 31.6373 48.3515 31.1501 48.3515 30.6482C47.9165 30.6482 47.4815 30.6482 47.0334 30.6482Z" fill="#1A1A1A"/>
</svg>
