<svg width="68" height="68" viewBox="0 0 68 68" fill="none" xmlns="http://www.w3.org/2000/svg">
<path d="M0 34C0 15.2223 15.2223 0 34 0C52.7777 0 68 15.2223 68 34C68 52.7777 52.7777 68 34 68C15.2223 68 0 52.7777 0 34Z" fill="#F4C430"/>
<g clip-path="url(#clip0_18919_538130)">
<path d="M26.1094 14.1562C26.5477 14.1562 26.986 14.1562 27.4375 14.1562C27.4375 15.007 27.4375 15.8578 27.4375 16.7344C27.7268 16.7289 27.7268 16.7289 28.0219 16.7234C28.2094 16.7209 28.3968 16.7191 28.5843 16.7172C28.7143 16.7156 28.8442 16.7135 28.9742 16.7108C29.1613 16.707 29.3484 16.7052 29.5356 16.7039C29.6223 16.7014 29.6223 16.7014 29.7107 16.699C29.9992 16.6988 30.1573 16.725 30.4021 16.8828C30.6925 17.1799 30.6556 17.4587 30.6593 17.8541C30.6599 17.9188 30.6605 17.9836 30.6612 18.0503C30.6623 18.1875 30.6631 18.3246 30.6637 18.4618C30.665 18.6712 30.6685 18.8805 30.6719 19.0899C30.6727 19.2232 30.6734 19.3565 30.6739 19.4898C30.6753 19.5522 30.6766 19.6147 30.6781 19.679C30.6768 19.989 30.6631 20.1367 30.4921 20.4049C30.2551 20.6327 30.1304 20.6501 29.8106 20.6455C29.7467 20.6448 29.6829 20.6441 29.6171 20.6434C29.5681 20.6425 29.5192 20.6416 29.4688 20.6406C29.477 20.6901 29.4852 20.7396 29.4937 20.7907C29.8359 22.8599 30.1449 24.9343 30.4563 27.0084C30.5257 27.4708 30.5953 27.9331 30.6649 28.3954C30.7327 28.8449 30.8003 29.2943 30.8678 29.7438C30.8963 29.9336 30.9249 30.1234 30.9535 30.3132C30.993 30.5758 31.0324 30.8383 31.0718 31.1009C31.0836 31.1791 31.0954 31.2573 31.1076 31.3378C31.1235 31.4443 31.1235 31.4443 31.1397 31.553C31.1537 31.6457 31.1537 31.6457 31.1679 31.7403C31.1875 31.8906 31.1875 31.8906 31.1875 32.0469C32.0383 32.0469 32.8891 32.0469 33.7656 32.0469C33.7656 31.2219 33.7656 30.3969 33.7656 29.5469C33.5336 29.5469 33.3016 29.5469 33.0625 29.5469C33.0625 29.1086 33.0625 28.6703 33.0625 28.2188C33.3203 28.2188 33.5781 28.2188 33.8438 28.2188C33.847 28.1446 33.8502 28.0705 33.8535 27.9941C33.913 27.5705 34.1572 27.2396 34.3906 26.8906C34.4374 26.8197 34.4841 26.7488 34.5322 26.6758C35.1742 26.0155 36.0348 25.6835 36.9395 25.6211C37.8659 25.6388 38.6553 26.0104 39.3321 26.627C39.7391 27.0555 40.0938 27.6191 40.0938 28.2188C40.3258 28.2188 40.5578 28.2188 40.7969 28.2188C40.7969 28.657 40.7969 29.0953 40.7969 29.5469C40.5906 29.5469 40.3844 29.5469 40.1719 29.5469C40.1719 30.3719 40.1719 31.1969 40.1719 32.0469C40.6469 32.0664 41.1185 32.0815 41.5933 32.0865C41.7543 32.0893 41.9151 32.0946 42.0759 32.1023C42.9686 32.1705 42.9686 32.1705 43.7634 31.8431C44.0306 31.5327 44.211 31.1865 44.3821 30.8167C44.5281 30.52 44.7145 30.2506 44.8985 29.9766C44.9703 29.866 45.0419 29.7553 45.1133 29.6445C46.4024 27.6523 47.6914 25.6602 48.9805 23.668C49.016 23.6131 49.0515 23.5582 49.088 23.5017C49.1591 23.3919 49.2303 23.2822 49.3016 23.1725C49.4897 22.8826 49.6758 22.5916 49.8591 22.2986C49.8976 22.2377 49.936 22.1768 49.9757 22.114C50.0494 21.9971 50.1226 21.8798 50.1951 21.7621C50.2284 21.7096 50.2618 21.657 50.2961 21.6028C50.3394 21.5333 50.3394 21.5333 50.3837 21.4623C50.5081 21.3159 50.6184 21.2568 50.7969 21.1875C51.4197 21.1755 51.734 21.588 52.1558 21.9914C52.3521 22.1826 52.5464 22.3757 52.7403 22.5693C52.8069 22.635 52.8736 22.7008 52.9423 22.7685C53.0378 22.8637 53.0378 22.8637 53.1352 22.9609C53.2212 23.0465 53.2212 23.0465 53.3091 23.1338C53.5503 23.4068 53.6289 23.6181 53.6293 23.9814C53.6297 24.0564 53.6302 24.1314 53.6307 24.2087C53.6304 24.291 53.6301 24.3732 53.6298 24.4579C53.6301 24.5454 53.6304 24.6329 53.6307 24.723C53.6315 25.0173 53.6312 25.3116 53.6309 25.6059C53.6312 25.8165 53.6316 26.027 53.6321 26.2376C53.6331 26.7509 53.6332 27.2642 53.633 27.7776C53.6329 28.1949 53.633 28.6123 53.6333 29.0296C53.6334 29.089 53.6334 29.1484 53.6335 29.2096C53.6336 29.3302 53.6337 29.4508 53.6338 29.5715C53.6346 30.7033 53.6344 31.8352 53.634 32.967C53.6336 34.002 53.6344 35.0369 53.6359 36.0718C53.6374 37.1346 53.6381 38.1975 53.6378 39.2603C53.6377 39.8569 53.6378 40.4535 53.639 41.0501C53.6399 41.5583 53.64 42.0664 53.639 42.5745C53.6386 42.8336 53.6386 43.0927 53.6394 43.3518C53.6403 43.6331 53.6396 43.9144 53.6386 44.1957C53.6392 44.277 53.6398 44.3583 53.6404 44.4421C53.6352 45.1405 53.4996 45.8348 52.9844 46.3438C52.4688 46.6998 51.9766 46.8853 51.3438 46.8125C50.5732 46.6387 50.1985 46.2875 49.7862 45.6357C49.6142 45.1892 49.6908 44.6209 49.7031 44.1562C50.1414 44.1562 50.5797 44.1562 51.0313 44.1562C51.044 44.3699 51.0567 44.5835 51.0694 44.7971C51.1139 45.04 51.1695 45.1546 51.3438 45.3281C51.6977 45.3729 51.6977 45.3729 52.0232 45.2497C52.187 44.9989 52.1563 44.7296 52.1532 44.4398C52.1534 44.3722 52.1536 44.3047 52.1538 44.2352C52.1542 44.0081 52.1529 43.781 52.1516 43.5539C52.1516 43.3915 52.1516 43.229 52.1517 43.0666C52.1518 42.6248 52.1504 42.1831 52.1488 41.7413C52.1473 41.2799 52.1472 40.8185 52.1469 40.3572C52.1462 39.4831 52.1442 38.6091 52.1419 37.735C52.1393 36.7401 52.138 35.7452 52.1368 34.7502C52.1344 32.7033 52.1302 30.6563 52.125 28.6094C50.9899 32.1244 50.9899 32.1244 49.874 35.6455C49.514 36.793 49.1514 37.939 48.7656 39.0781C48.9222 39.0734 49.0788 39.0686 49.2353 39.0638C49.3906 39.0781 49.3906 39.0781 49.5811 39.2246C49.8113 39.5377 49.7951 39.804 49.7971 40.1807C49.7976 40.2437 49.798 40.3067 49.7985 40.3717C49.7992 40.5052 49.7997 40.6387 49.8 40.7722C49.8008 40.9759 49.8032 41.1796 49.8057 41.3833C49.8062 41.513 49.8066 41.6428 49.8069 41.7725C49.8079 41.8332 49.8088 41.894 49.8098 41.9565C49.8084 42.3139 49.7716 42.546 49.5469 42.8281C49.2657 43.0156 49.0653 43.0054 48.7409 43.0021C48.6829 43.0021 48.625 43.0022 48.5653 43.0022C48.3738 43.0021 48.1823 43.0009 47.9908 42.9996C47.858 42.9993 47.7252 42.9991 47.5924 42.999C47.243 42.9984 46.8935 42.9968 46.544 42.9951C46.1874 42.9935 45.8308 42.9928 45.4742 42.992C44.7744 42.9903 44.0747 42.9876 43.375 42.9844C43.375 43.5773 43.375 44.1703 43.375 44.7812C43.6328 44.7812 43.8906 44.7812 44.1563 44.7812C44.5089 44.9396 44.5089 44.9396 44.625 45.1719C44.6322 45.3283 44.6342 45.4849 44.6339 45.6414C44.6339 45.74 44.6339 45.8385 44.6339 45.94C44.6335 46.0479 44.6331 46.1559 44.6326 46.2638C44.6325 46.3739 44.6324 46.484 44.6323 46.5942C44.632 46.8842 44.6312 47.1742 44.6304 47.4642C44.6296 47.7601 44.6292 48.0559 44.6288 48.3518C44.628 48.9325 44.6267 49.5131 44.625 50.0938C44.7082 50.0686 44.7915 50.0434 44.8772 50.0174C45.8327 49.7582 46.8736 49.8808 47.75 50.3281C48.2525 50.6309 48.6371 51.0606 49.0427 51.4777C49.3594 51.7968 49.6776 52.0261 50.0938 52.2031C50.1679 52.237 50.242 52.2708 50.3184 52.3057C50.9328 52.4408 51.5593 52.4134 52.125 52.125C52.3719 51.9563 52.5995 51.7704 52.8281 51.5781C52.9318 51.4993 53.0358 51.421 53.1406 51.3438C53.2867 51.4793 53.4313 51.6161 53.5752 51.7539C53.6169 51.7923 53.6585 51.8306 53.7014 51.8702C53.9977 52.1569 53.9977 52.1569 54.0083 52.3661C53.6187 53.0405 52.8404 53.454 52.125 53.6875C51.0333 53.9548 50.0353 53.8476 49.0385 53.317C48.5931 53.0454 48.2277 52.6767 47.8593 52.3112C47.2728 51.7311 46.7812 51.3903 45.9385 51.3242C44.955 51.3887 44.3164 51.8707 43.6533 52.5547C42.8598 53.3714 42.0257 53.7733 40.8811 53.8438C39.8535 53.8438 38.9768 53.5154 38.2188 52.8281C38.0763 52.684 37.9348 52.5392 37.794 52.3936C37.1748 51.7641 36.5741 51.4012 35.6895 51.3193C34.8086 51.3953 34.2656 51.7691 33.6631 52.3887C32.8266 53.2425 31.9241 53.7768 30.7188 53.8438C29.4482 53.817 28.491 53.3509 27.5938 52.4375C27.5222 52.362 27.5222 52.362 27.4491 52.2849C26.8867 51.6943 26.2694 51.3947 25.4551 51.3193C24.5715 51.3955 24.0295 51.7716 23.4278 52.391C22.612 53.2306 21.6909 53.7869 20.4917 53.8456C19.0444 53.8346 18.1057 53.1793 17.125 52.2031C16.4309 51.5248 15.7793 51.2994 14.8106 51.2852C14.7321 51.2828 14.6537 51.2805 14.5728 51.2781C14.3819 51.2727 14.191 51.269 14 51.2656C14 50.8273 14 50.3891 14 49.9375C14.3191 49.929 14.6379 49.9228 14.9571 49.918C15.0461 49.9154 15.1351 49.9127 15.2268 49.91C16.3434 49.8973 17.199 50.2562 17.996 51.0325C18.1594 51.1947 18.3198 51.3596 18.4794 51.5256C18.6474 51.6941 18.8088 51.8297 19 51.9688C19 51.8845 18.9999 51.8002 18.9998 51.7133C18.9995 50.919 19.0017 50.1247 19.0063 49.3304C19.0086 48.922 19.01 48.5137 19.0094 48.1053C19.0089 47.7112 19.0106 47.3171 19.014 46.923C19.0148 46.7726 19.0149 46.6223 19.0141 46.4719C19.0132 46.2613 19.0151 46.0508 19.0178 45.8402C19.0163 45.7469 19.0163 45.7469 19.0149 45.6518C19.022 45.3344 19.0679 45.1847 19.2675 44.9348C19.5469 44.7813 19.5469 44.7812 20.3281 44.7812C20.3281 44.1883 20.3281 43.5953 20.3281 42.9844C20.1527 42.9856 19.9772 42.9868 19.7965 42.9881C19.2165 42.992 18.6365 42.9946 18.0565 42.9965C17.7049 42.9977 17.3532 42.9994 17.0016 43.0021C16.6622 43.0046 16.3229 43.006 15.9835 43.0066C15.854 43.007 15.7246 43.0079 15.5952 43.0092C15.4138 43.0109 15.2324 43.0111 15.051 43.011C14.9709 43.0122 14.9709 43.0122 14.8892 43.0135C14.5541 43.0114 14.3451 42.9542 14.0781 42.75C13.977 42.5477 13.9884 42.3987 13.9862 42.1722C13.9852 42.0841 13.9842 41.9959 13.9832 41.9051C13.9823 41.7617 13.9823 41.7617 13.9814 41.6154C13.9808 41.5175 13.9801 41.4196 13.9795 41.3188C13.9784 41.1113 13.9776 40.904 13.977 40.6965C13.9761 40.431 13.9734 40.1656 13.9703 39.9C13.9678 39.6466 13.9674 39.3932 13.9668 39.1398C13.9654 39.0445 13.964 38.9492 13.9626 38.851C13.9628 38.7623 13.9631 38.6737 13.9633 38.5824C13.9628 38.5045 13.9624 38.4265 13.9619 38.3462C14.0119 38.0763 14.0901 37.9867 14.3125 37.8281C14.531 37.7905 14.531 37.7905 14.7855 37.7926C14.8809 37.7927 14.9762 37.7927 15.0745 37.7927C15.1771 37.7943 15.2798 37.7959 15.3855 37.7976C15.4919 37.7982 15.5983 37.7986 15.7047 37.7989C15.9842 37.8001 16.2637 37.8032 16.5431 37.8067C16.8285 37.8099 17.114 37.8113 17.3994 37.8129C17.959 37.8162 18.5186 37.8215 19.0781 37.8281C19.0761 37.7639 19.0741 37.6997 19.0719 37.6335C19.0638 37.342 19.0587 37.0504 19.0537 36.7588C19.0505 36.6577 19.0472 36.5567 19.0438 36.4525C19.0426 36.3551 19.0413 36.2577 19.04 36.1573C19.038 36.0677 19.0359 35.9781 19.0338 35.8858C19.092 35.564 19.2157 35.4502 19.4688 35.25C19.7354 35.2057 19.7354 35.2057 20.0367 35.2119C20.0899 35.2124 20.1431 35.213 20.1979 35.2135C20.3667 35.2157 20.5354 35.2206 20.7041 35.2256C20.819 35.2275 20.9339 35.2293 21.0488 35.2309C21.3295 35.2352 21.61 35.242 21.8906 35.25C21.894 35.198 21.8974 35.1461 21.9009 35.0925C21.9535 34.3755 22.0567 33.6685 22.1641 32.9582C22.1842 32.8241 22.2042 32.6901 22.2242 32.556C22.2781 32.1948 22.3325 31.8336 22.3869 31.4725C22.4438 31.094 22.5004 30.7155 22.557 30.337C22.6641 29.6215 22.7715 28.906 22.8791 28.1906C23.0016 27.3755 23.1237 26.5604 23.2458 25.7453C23.4968 24.0697 23.7483 22.3942 24 20.7188C23.928 20.713 23.928 20.713 23.8545 20.7071C23.7914 20.7013 23.7283 20.6954 23.6632 20.6894C23.6007 20.684 23.5382 20.6785 23.4738 20.6729C23.2969 20.6406 23.2969 20.6406 23.0605 20.4849C22.8489 20.1627 22.8525 19.917 22.8599 19.5392C22.8599 19.4712 22.8599 19.4031 22.8599 19.333C22.8603 19.1895 22.8617 19.046 22.8639 18.9026C22.8672 18.6831 22.8671 18.4637 22.8666 18.2442C22.8674 18.1046 22.8684 17.965 22.8696 17.8254C22.8697 17.7271 22.8697 17.7271 22.8697 17.6268C22.8752 17.3547 22.8808 17.1723 23.0111 16.9299C23.2937 16.6738 23.6384 16.7243 23.9961 16.7267C24.0564 16.7269 24.1168 16.727 24.179 16.7271C24.3716 16.7275 24.5642 16.7285 24.7569 16.7295C24.8875 16.7299 25.0182 16.7302 25.1489 16.7306C25.469 16.7314 25.7892 16.7329 26.1094 16.7344C26.1094 15.8836 26.1094 15.0328 26.1094 14.1562ZM24.2344 18.0625C24.2344 18.475 24.2344 18.8875 24.2344 19.3125C25.8844 19.3125 27.5344 19.3125 29.2344 19.3125C29.2344 18.9 29.2344 18.4875 29.2344 18.0625C27.5844 18.0625 25.9344 18.0625 24.2344 18.0625ZM25.4063 20.6406C25.3668 20.8782 25.3278 21.1158 25.2891 21.3535C25.2779 21.4204 25.2667 21.4873 25.2552 21.5562C25.1987 21.906 25.1579 22.2379 25.1719 22.5938C25.9936 23.1884 25.9936 23.1884 26.9516 23.3443C27.4126 23.1892 27.8156 22.9396 28.2188 22.6719C28.2703 22.6461 28.3219 22.6203 28.375 22.5938C28.3507 22.3838 28.3263 22.1738 28.3018 21.9639C28.2916 21.8757 28.2916 21.8757 28.2812 21.7858C28.2609 21.6123 28.2401 21.439 28.2188 21.2656C28.2122 21.2119 28.2057 21.1581 28.1989 21.1027C28.1834 20.8495 28.1834 20.8495 28.0625 20.6406C27.8656 20.6337 27.6708 20.6316 27.4738 20.633C27.415 20.6331 27.3561 20.6332 27.2955 20.6333C27.1068 20.6338 26.9182 20.6347 26.7295 20.6357C26.6019 20.6361 26.4743 20.6365 26.3467 20.6368C26.0332 20.6377 25.7197 20.639 25.4063 20.6406ZM51.1094 22.9844C50.7212 23.4627 50.3857 23.9841 50.0547 24.5029C50.0199 24.5565 49.9851 24.6101 49.9493 24.6653C49.7768 24.9398 49.7031 25.0745 49.7031 25.4062C49.8302 25.5791 49.8302 25.5791 50.0053 25.7444C50.068 25.8068 50.1307 25.8693 50.1954 25.9336C50.2618 25.998 50.3281 26.0625 50.3965 26.1289C50.4951 26.2274 50.4951 26.2274 50.5958 26.3279C50.8843 26.667 50.8843 26.667 51.2656 26.8125C51.3905 26.4403 51.5143 26.0677 51.6371 25.6948C51.679 25.568 51.7212 25.4413 51.7637 25.3147C51.8248 25.1327 51.8848 24.9503 51.9447 24.7678C51.9735 24.6831 51.9735 24.6831 52.0028 24.5966C52.1325 24.2181 52.1325 24.2181 52.0469 23.8438C51.9072 23.6855 51.7689 23.5401 51.6172 23.3945C51.5772 23.355 51.5372 23.3154 51.4961 23.2746C51.3301 23.0739 51.3301 23.0739 51.1094 22.9844ZM24.9375 24C24.9117 24.1031 24.886 24.2063 24.8594 24.3125C24.9883 24.2609 25.1172 24.2094 25.25 24.1562C25.1469 24.1047 25.0438 24.0531 24.9375 24ZM28.4531 24C28.4016 24.0516 28.35 24.1031 28.2969 24.1562C28.4 24.182 28.5031 24.2078 28.6094 24.2344C28.6094 24.157 28.6094 24.0797 28.6094 24C28.5578 24 28.5063 24 28.4531 24ZM25.6846 25.3232C25.5914 25.3705 25.498 25.4176 25.4046 25.4644C24.9284 25.6859 24.9284 25.6859 24.5999 26.0699C24.5305 26.3263 24.5129 26.5719 24.4981 26.8369C24.4922 26.9349 24.4864 27.0329 24.4804 27.1339C24.4765 27.2083 24.4727 27.2827 24.4688 27.3594C24.5878 27.4189 24.5878 27.4189 24.7092 27.4796C24.7609 27.5055 24.8125 27.5313 24.8657 27.5579C24.9793 27.6147 25.093 27.6712 25.2068 27.7275C25.4719 27.8591 25.7354 27.9918 25.994 28.1357C26.074 28.1792 26.154 28.2228 26.2363 28.2676C26.3418 28.3271 26.3418 28.3271 26.4494 28.3878C26.9605 28.5491 27.6318 28.0653 28.0869 27.8428C28.1736 27.802 28.2603 27.7613 28.3495 27.7193C28.4318 27.679 28.514 27.6387 28.5987 27.5971C28.6739 27.5609 28.749 27.5246 28.8265 27.4873C29.0166 27.3733 29.0166 27.3733 29.0626 27.1638C29.0677 27.0994 29.0728 27.0351 29.0781 26.9688C29.0866 26.8919 29.0951 26.8151 29.1038 26.7359C29.0962 26.4237 29.0643 26.234 28.9219 25.9531C28.5443 25.6395 28.079 25.442 27.6281 25.2564C27.4375 25.1719 27.4375 25.1719 27.2691 25.0647C26.677 24.7091 26.2432 25.0183 25.6846 25.3232ZM48.7656 26.5C48.6462 26.6735 48.5366 26.8468 48.4287 27.0273C48.359 27.1416 48.2891 27.2557 48.2191 27.3698C48.1815 27.431 48.144 27.4923 48.1053 27.5554C47.8911 27.9003 47.6691 28.2401 47.4473 28.5801C47.4046 28.6457 47.3618 28.7114 47.3178 28.779C47.2769 28.8416 47.2361 28.9043 47.194 28.9689C47.1555 29.0282 47.1171 29.0876 47.0775 29.1487C47.0095 29.2511 46.9396 29.3522 46.8668 29.4513C46.6977 29.6697 46.6977 29.6697 46.6724 29.9335C46.7461 30.124 46.8349 30.2225 46.9799 30.3659C47.0315 30.4175 47.0831 30.4691 47.1363 30.5222C47.1923 30.577 47.2483 30.6318 47.306 30.6882C47.3631 30.745 47.4202 30.8018 47.4791 30.8603C47.6616 31.0415 47.845 31.2219 48.0283 31.4023C48.1522 31.5251 48.2761 31.6479 48.3999 31.7707C48.7035 32.0717 49.0077 32.372 49.3125 32.6719C49.4556 32.4573 49.5238 32.2991 49.6025 32.0573C49.6278 31.9801 49.653 31.9029 49.6791 31.8234C49.7058 31.7401 49.7326 31.6569 49.7602 31.5711C49.8018 31.4427 49.8018 31.4427 49.8442 31.3116C49.9026 31.1305 49.9609 30.9493 50.0189 30.7681C50.1081 30.4904 50.1985 30.2131 50.2889 29.9358C50.3455 29.7599 50.402 29.584 50.4585 29.408C50.4857 29.3249 50.513 29.2418 50.541 29.1562C50.5778 29.0401 50.5778 29.0401 50.6154 28.9216C50.6373 28.8536 50.6592 28.7856 50.6818 28.7155C50.7221 28.5145 50.7143 28.4087 50.6406 28.2188C50.4738 28.017 50.4738 28.017 50.2625 27.8123C50.2249 27.7745 50.1872 27.7368 50.1484 27.698C50.0689 27.6187 49.9891 27.5396 49.909 27.4608C49.7862 27.3399 49.6644 27.2179 49.5428 27.0957C49.2045 26.6887 49.2045 26.6887 48.7656 26.5ZM35.3648 27.9044C35.2347 28.051 35.2347 28.051 35.25 28.2188C36.3844 28.2188 37.5188 28.2188 38.6875 28.2188C38.4706 27.7741 38.4706 27.7741 38.1504 27.457C38.099 27.4123 38.0477 27.3676 37.9948 27.3215C37.0237 26.6315 36.0467 27.115 35.3648 27.9044ZM24.2344 28.7656C24.0929 28.9071 24.1264 29.126 24.1123 29.3174C24.101 29.4705 24.0898 29.6235 24.0781 29.7812C24.4391 29.6008 24.8 29.4203 25.1719 29.2344C24.7454 28.8973 24.7454 28.8973 24.2344 28.7656ZM28.7168 28.9609C28.6385 28.9972 28.5601 29.0334 28.4794 29.0708C28.4192 29.099 28.3589 29.1272 28.2969 29.1562C28.483 29.3657 28.6762 29.4777 28.9268 29.6006C28.9954 29.6347 29.0639 29.6689 29.1346 29.704C29.3041 29.7916 29.3041 29.7916 29.4688 29.7812C29.4172 29.4461 29.3656 29.1109 29.3125 28.7656C29.0844 28.7656 28.9226 28.8652 28.7168 28.9609ZM35.0938 29.5469C35.0938 30.3719 35.0938 31.1969 35.0938 32.0469C36.3313 32.0469 37.5688 32.0469 38.8438 32.0469C38.8438 31.2219 38.8438 30.3969 38.8438 29.5469C37.6063 29.5469 36.3688 29.5469 35.0938 29.5469ZM26.2959 30.1844C26.2246 30.2204 26.1533 30.2563 26.0799 30.2934C26.0042 30.3323 25.9286 30.3711 25.8506 30.4111C25.6951 30.4906 25.5396 30.5701 25.384 30.6495C25.3079 30.6883 25.2319 30.7271 25.1535 30.7672C24.966 30.8608 24.7776 30.9493 24.5863 31.0346C24.5107 31.0691 24.5107 31.0691 24.4336 31.1043C24.3022 31.1638 24.1701 31.2215 24.0379 31.2791C23.7053 31.5238 23.6878 31.942 23.6268 32.332C23.6073 32.4679 23.5884 32.6039 23.5697 32.7399C23.5595 32.812 23.5494 32.884 23.5389 32.9583C23.5067 33.1867 23.475 33.4151 23.4434 33.6436C23.4215 33.7991 23.3997 33.9547 23.3778 34.1103C23.3243 34.4902 23.2716 34.8701 23.2188 35.25C23.7344 35.25 24.25 35.25 24.7813 35.25C24.7842 35.0628 24.7871 34.8756 24.7901 34.6827C24.7937 34.5006 24.7977 34.3186 24.8018 34.1366C24.8044 34.0104 24.8066 33.8843 24.8083 33.7581C24.811 33.5763 24.8151 33.3947 24.8194 33.213C24.8199 33.1569 24.8204 33.1008 24.8209 33.043C24.8309 32.6998 24.8831 32.4766 25.0938 32.2031C25.2986 32.1007 25.4543 32.1124 25.6837 32.109C25.7744 32.1074 25.8651 32.1058 25.9586 32.1042C26.0569 32.1029 26.1552 32.1016 26.2565 32.1003C26.3568 32.0987 26.4572 32.097 26.5606 32.0954C26.8275 32.091 27.0944 32.0872 27.3613 32.0834C27.6336 32.0795 27.9059 32.0751 28.1782 32.0708C28.7125 32.0624 29.2469 32.0545 29.7813 32.0469C29.7807 31.8084 29.7786 31.6437 29.7031 31.4219C29.5234 31.2486 29.3141 31.1561 29.0885 31.0532C29.0268 31.0229 28.965 30.9926 28.9014 30.9613C28.7041 30.8652 28.5055 30.7725 28.3067 30.6797C28.1734 30.615 28.0402 30.5501 27.9072 30.485C27.1228 30.0434 27.1228 30.0434 26.2959 30.1844ZM45.7969 31.1094C45.7257 31.2119 45.6583 31.317 45.5924 31.4231C45.5514 31.4887 45.5104 31.5542 45.4682 31.6218C45.4252 31.6912 45.3822 31.7605 45.3379 31.832C45.2536 31.9676 45.1692 32.1031 45.0846 32.2385C45.0471 32.2991 45.0095 32.3596 44.9708 32.422C44.8594 32.5938 44.8594 32.5938 44.7369 32.7231C44.5803 32.9795 44.5941 33.217 44.5984 33.5083C44.5984 33.5685 44.5983 33.6288 44.5983 33.6908C44.5985 33.8895 44.6003 34.0882 44.6021 34.2869C44.6026 34.4248 44.6029 34.5627 44.6031 34.7006C44.604 35.0634 44.6063 35.4261 44.6089 35.7888C44.6113 36.159 44.6124 36.5292 44.6136 36.8995C44.6161 37.6257 44.6202 38.3519 44.625 39.0781C45.5016 39.0781 46.3781 39.0781 47.2813 39.0781C47.5272 38.4701 47.5272 38.4701 47.7452 37.8558C47.7705 37.7789 47.7957 37.702 47.8218 37.6228C47.8477 37.5426 47.8737 37.4624 47.9005 37.3798C47.9417 37.2528 47.9417 37.2528 47.9838 37.1232C48.0412 36.9457 48.0985 36.7681 48.1557 36.5905C48.2435 36.3185 48.3325 36.0469 48.4216 35.7754C48.4774 35.6022 48.5332 35.429 48.5889 35.2558C48.6157 35.1748 48.6425 35.0938 48.6701 35.0104C48.6941 34.9348 48.7181 34.8591 48.7429 34.7812C48.7643 34.715 48.7857 34.6488 48.8078 34.5806C48.8505 34.3552 48.8372 34.218 48.7656 34C48.6484 33.8375 48.6484 33.8375 48.4927 33.6903C48.435 33.6325 48.3774 33.5746 48.3181 33.515C48.2242 33.4232 48.2242 33.4232 48.1284 33.3295C48.0646 33.2659 48.0007 33.2023 47.9349 33.1368C47.8 33.0027 47.6647 32.8689 47.529 32.7355C47.3204 32.5304 47.1129 32.3242 46.9056 32.1178C46.7745 31.9878 46.6434 31.8579 46.5122 31.728C46.4184 31.635 46.4184 31.635 46.3226 31.5401C46.265 31.4835 46.2074 31.4269 46.148 31.3685C46.0971 31.3184 46.0461 31.2682 45.9936 31.2165C45.892 31.1006 45.892 31.1006 45.7969 31.1094ZM26.1875 33.375C26.1617 34.2516 26.136 35.1281 26.1094 36.0312C25.875 36.4219 25.875 36.4219 25.7969 36.5C25.6292 36.5097 25.4612 36.5139 25.2932 36.516C25.2406 36.5168 25.188 36.5176 25.1338 36.5184C24.9592 36.5209 24.7847 36.5228 24.6101 36.5247C24.4893 36.5263 24.3686 36.528 24.2478 36.5296C23.9294 36.534 23.611 36.5378 23.2926 36.5416C22.968 36.5455 22.6433 36.5499 22.3187 36.5542C21.6812 36.5626 21.0437 36.5705 20.4063 36.5781C20.4063 36.9906 20.4063 37.4031 20.4063 37.8281C20.5364 37.8284 20.5364 37.8284 20.6692 37.8287C22.7777 37.8333 24.8863 37.8392 26.9948 37.8465C28.0145 37.8501 29.0341 37.8531 30.0538 37.8552C30.9423 37.857 31.8308 37.8596 32.7193 37.8632C33.19 37.8651 33.6606 37.8665 34.1313 37.867C34.574 37.8675 35.0166 37.869 35.4592 37.8714C35.622 37.8721 35.7848 37.8724 35.9476 37.8723C36.1693 37.8721 36.3908 37.8734 36.6124 37.8751C36.6774 37.8747 36.7424 37.8743 36.8093 37.874C37.2545 37.8795 37.2545 37.8795 37.5156 38.1406C37.593 38.6047 37.593 38.6047 37.6719 39.0781C39.5281 39.0781 41.3844 39.0781 43.2969 39.0781C43.2969 37.1961 43.2969 35.3141 43.2969 33.375C37.6508 33.375 32.0047 33.375 26.1875 33.375ZM15.3281 39.1562C15.3281 39.9813 15.3281 40.8062 15.3281 41.6562C26.2336 41.6562 37.1391 41.6562 48.375 41.6562C48.375 41.2437 48.375 40.8312 48.375 40.4062C48.2289 40.4061 48.0828 40.406 47.9322 40.4059C46.5573 40.4046 45.1823 40.4013 43.8074 40.3959C43.1005 40.3932 42.3936 40.3912 41.6866 40.391C41.0705 40.3907 40.4545 40.3891 39.8384 40.3859C39.5121 40.3842 39.1859 40.3832 38.8596 40.3839C38.5525 40.3845 38.2455 40.3833 37.9385 40.3806C37.8258 40.38 37.713 40.38 37.6003 40.3807C37.4464 40.3816 37.2926 40.3799 37.1387 40.3781C37.0526 40.3778 36.9665 40.3776 36.8777 40.3774C36.6563 40.3281 36.6563 40.3281 36.4747 40.1785C36.3438 39.9375 36.3438 39.9375 36.2656 39.1562C29.3563 39.1562 22.4469 39.1562 15.3281 39.1562ZM21.6563 42.9844C21.6563 43.5773 21.6563 44.1703 21.6563 44.7812C22.8938 44.7812 24.1313 44.7812 25.4063 44.7812C25.4063 44.1883 25.4063 43.5953 25.4063 42.9844C24.1688 42.9844 22.9313 42.9844 21.6563 42.9844ZM26.8125 42.9844C26.8125 43.5773 26.8125 44.1703 26.8125 44.7812C27.0703 44.807 27.3281 44.8328 27.5938 44.8594C27.8357 44.9861 27.8357 44.9861 27.9844 45.1719C28.0275 45.4221 28.0275 45.4221 28.0198 45.7219C28.019 45.7767 28.0182 45.8315 28.0173 45.888C28.0154 46.0069 28.0126 46.1257 28.0091 46.2445C28.0039 46.4336 28.0016 46.6224 28.0002 46.8116C27.996 47.349 27.9882 47.8863 27.974 48.4237C27.9655 48.7528 27.962 49.0817 27.9617 49.411C27.9606 49.5356 27.9576 49.6602 27.9526 49.7846C27.9311 50.3346 27.9201 50.8098 28.2803 51.254C28.8374 51.8539 29.5065 52.3651 30.3431 52.4561C31.2133 52.4834 31.8836 52.1599 32.5156 51.5781C32.658 51.4339 32.7995 51.2891 32.9404 51.1436C33.6174 50.4562 34.3419 50.0773 35.3023 49.9739C35.3657 49.967 35.429 49.9602 35.4943 49.9531C35.5667 49.9454 35.5667 49.9454 35.6406 49.9375C35.6413 49.8505 35.6413 49.8505 35.642 49.7616C35.6466 49.2145 35.6522 48.6673 35.6591 48.1202C35.6626 47.8389 35.6656 47.5576 35.6677 47.2763C35.6697 47.0048 35.6729 46.7333 35.6768 46.4618C35.6788 46.3079 35.6795 46.154 35.6803 46.0001C35.6819 45.9063 35.6834 45.8124 35.685 45.7158C35.6859 45.6332 35.6867 45.5506 35.6876 45.4655C35.723 45.2205 35.7804 45.1127 35.9531 44.9375C36.2633 44.8495 36.5696 44.8227 36.8906 44.7812C36.8906 44.1883 36.8906 43.5953 36.8906 42.9844C33.5649 42.9844 30.2391 42.9844 26.8125 42.9844ZM38.2969 42.9844C38.2969 43.5773 38.2969 44.1703 38.2969 44.7812C39.5344 44.7812 40.7719 44.7812 42.0469 44.7812C42.0469 44.1883 42.0469 43.5953 42.0469 42.9844C40.8094 42.9844 39.5719 42.9844 38.2969 42.9844ZM20.4063 46.1875C20.4063 48.25 20.4063 50.3125 20.4063 52.4375C21.4727 52.319 21.9093 51.978 22.6292 51.2289C22.9985 50.8486 23.3602 50.5545 23.8438 50.3281C23.895 50.303 23.9463 50.278 23.9991 50.2521C24.4917 50.0254 24.9426 50.0032 25.4746 50.0059C25.5657 50.0054 25.5657 50.0054 25.6586 50.0049C25.7485 50.0051 25.7485 50.0051 25.8402 50.0052C25.8938 50.0053 25.9474 50.0054 26.0025 50.0055C26.2479 50.0189 26.4911 50.059 26.7344 50.0938C26.7344 48.8047 26.7344 47.5156 26.7344 46.1875C24.6461 46.1875 22.5578 46.1875 20.4063 46.1875ZM36.9688 46.1875C36.9688 47.5023 36.9688 48.8172 36.9688 50.1719C37.2781 50.3266 37.5875 50.4813 37.9063 50.6406C38.099 50.7936 38.2634 50.9322 38.4336 51.1045C38.5192 51.1866 38.6049 51.2687 38.6906 51.3508C38.8258 51.4831 38.9602 51.6161 39.0946 51.7493C39.5759 52.2041 40.1313 52.4438 40.7969 52.4766C41.6701 52.431 42.2299 52.0269 42.8281 51.4219C42.9084 51.3631 42.9886 51.3043 43.0713 51.2437C43.3816 50.9306 43.3502 50.5906 43.3499 50.1694C43.3475 50.0689 43.3451 49.9684 43.3427 49.8649C43.3422 49.7717 43.3417 49.6784 43.3412 49.5824C43.3388 49.2352 43.3322 48.8881 43.3262 48.541C43.3165 47.7644 43.3069 46.9877 43.2969 46.1875C41.2086 46.1875 39.1203 46.1875 36.9688 46.1875Z" fill="#1A1A1A"/>
<path d="M34.3906 34.625C36.943 34.625 39.4953 34.625 42.125 34.625C42.125 35.0633 42.125 35.5016 42.125 35.9531C39.5727 35.9531 37.0203 35.9531 34.3906 35.9531C34.3906 35.5148 34.3906 35.0766 34.3906 34.625Z" fill="#1A1A1A"/>
</g>
<defs>
<clipPath id="clip0_18919_538130">
<rect width="40" height="40" fill="white" transform="translate(14 14)"/>
</clipPath>
</defs>
</svg>
