<svg width="222" height="222" viewBox="0 0 222 222" fill="none" xmlns="http://www.w3.org/2000/svg">
<g filter="url(#filter0_d_18082_31725)">
<path d="M114.313 41.9402C115.721 43.557 118.153 43.7757 119.828 42.4363L123.908 39.1726L126.581 43.6619C127.677 45.5042 130.032 46.1543 131.918 45.1355L136.516 42.6521L138.344 47.5466C139.095 49.5553 141.295 50.6148 143.333 49.949L148.299 48.3269L149.225 53.4695C149.605 55.5797 151.58 57.0155 153.705 56.7244L158.881 56.0144L158.873 61.24C158.869 63.384 160.558 65.1491 162.7 65.2419L167.919 65.4685L166.979 70.6082C166.593 72.717 167.938 74.7552 170.029 75.2292L175.125 76.3835L173.282 81.2722C172.525 83.2785 173.485 85.5253 175.458 86.365L180.265 88.4109L177.579 92.8914C176.476 94.7303 177.02 97.1123 178.811 98.2908L183.176 101.162L179.732 105.092C178.319 106.704 178.428 109.143 179.98 110.623L183.762 114.228L179.672 117.479C177.994 118.814 177.666 121.234 178.929 122.967L182.007 127.189L177.402 129.657C175.512 130.67 174.758 132.993 175.691 134.924L177.965 139.628L172.994 141.234C170.953 141.894 169.796 144.045 170.37 146.111L171.767 151.145L166.588 151.839C164.463 152.123 162.941 154.033 163.136 156.168L163.613 161.371L158.393 161.129C156.251 161.029 154.412 162.636 154.223 164.772L153.763 169.976L148.671 168.805C146.582 168.325 144.485 169.578 143.917 171.646L142.536 176.684L137.734 174.624C135.764 173.778 133.477 174.636 132.549 176.569L130.29 181.28L125.934 178.395C124.147 177.211 121.744 177.647 120.486 179.384L117.421 183.616L113.65 179.999C112.102 178.515 109.66 178.515 108.113 179.999L104.341 183.616L101.277 179.384C100.058 177.701 97.7648 177.239 95.9976 178.289L95.8286 178.395L91.4731 181.28L89.2134 176.569C88.286 174.636 85.999 173.778 84.0288 174.624L79.2271 176.684L77.8452 171.646C77.278 169.578 75.181 168.325 73.0913 168.805L67.9995 169.976L67.5396 164.772C67.3507 162.636 65.5114 161.029 63.3696 161.129L58.1499 161.371L58.6265 156.168C58.8219 154.033 57.2993 152.123 55.1743 151.839L49.9956 151.145L51.3931 146.111C51.9668 144.045 50.8094 141.894 48.769 141.234L43.7974 139.628L46.0718 134.924C47.0049 132.993 46.2505 130.67 44.3608 129.657L39.7554 127.189L42.8335 122.967C44.0965 121.234 43.7687 118.814 42.0903 117.479L38.0005 114.228L41.7827 110.623C43.3344 109.143 43.4437 106.704 42.0308 105.092L38.5864 101.162L42.9517 98.2908C44.743 97.1123 45.2867 94.7303 44.1841 92.8914L41.4976 88.4109L46.3052 86.365C48.2781 85.5253 49.2375 83.2785 48.481 81.2722L46.6382 76.3835L51.7339 75.2292C53.8247 74.7552 55.1696 72.717 54.7837 70.6082L53.8433 65.4685L59.063 65.2419C61.2051 65.1491 62.8933 63.384 62.8901 61.24L62.8813 56.0144L68.0581 56.7244C70.1824 57.0155 72.1579 55.5797 72.5376 53.4695L73.4634 48.3269L78.4292 49.949C80.4674 50.6148 82.6682 49.5553 83.4185 47.5466L85.2466 42.6521L89.8442 45.1355C91.7308 46.1543 94.0853 45.5042 95.1821 43.6619L97.855 39.1726L101.935 42.4363C103.609 43.7757 106.042 43.557 107.45 41.9402L110.881 37.9998L114.313 41.9402Z" fill="#F4C430" stroke="#F5F5F0" stroke-width="4"/>
<circle cx="110.381" cy="110.455" r="57.5" stroke="#1A1A1A" stroke-width="8"/>
<path d="M116.851 73.8903C115.898 73.7579 115.115 73.4275 114.501 72.8992C113.886 72.3709 113.448 71.6974 113.184 70.8787C112.932 70.052 112.876 69.1349 113.016 68.1273C113.153 67.1381 113.461 66.281 113.939 65.5559C114.416 64.8307 115.033 64.2945 115.788 63.9472C116.553 63.5919 117.426 63.4824 118.406 63.6186C119.257 63.7369 119.953 63.9798 120.496 64.3473C121.049 64.7069 121.465 65.17 121.744 65.7365C122.023 66.303 122.184 66.9472 122.225 67.6691L120.034 67.4635C120.008 66.9039 119.851 66.4438 119.562 66.0833C119.283 65.7147 118.82 65.4855 118.173 65.3955C117.609 65.3171 117.117 65.3994 116.697 65.6425C116.286 65.887 115.953 66.2505 115.697 66.7333C115.451 67.2173 115.283 67.7828 115.193 68.43C115.102 69.0863 115.108 69.6809 115.213 70.2138C115.329 70.7387 115.552 71.1701 115.881 71.5081C116.221 71.8474 116.686 72.0582 117.278 72.1404C117.712 72.2008 118.099 72.1651 118.438 72.0331C118.786 71.9025 119.069 71.6968 119.287 71.4162C119.514 71.1368 119.673 70.8056 119.764 70.4225L117.518 70.1101L117.732 68.5709L122.044 69.1705L121.333 74.2873L120.029 74.1061L120.211 71.9829L120.446 72.1286C120.293 72.5502 120.036 72.9056 119.675 73.1947C119.315 73.4838 118.89 73.6932 118.401 73.8231C117.922 73.945 117.405 73.9674 116.851 73.8903ZM126.003 76.1748C125.295 75.8851 124.737 75.4856 124.33 74.9764C123.936 74.4621 123.703 73.8727 123.632 73.2084C123.569 72.5475 123.688 71.85 123.988 71.1157C124.289 70.3814 124.691 69.8047 125.195 69.3856C125.711 68.9615 126.29 68.7042 126.932 68.6138C127.574 68.5234 128.249 68.6231 128.958 68.9128C129.649 69.1954 130.188 69.5921 130.574 70.1029C130.96 70.6137 131.176 71.2064 131.223 71.8809C131.278 72.559 131.147 73.2869 130.829 74.0644L130.67 74.4531L125.785 72.4554C125.585 73.0188 125.564 73.4892 125.722 73.8666C125.889 74.2474 126.197 74.5297 126.646 74.7134C126.975 74.8476 127.275 74.8898 127.547 74.8399C127.829 74.7935 128.075 74.6472 128.287 74.401L130.196 75.3178C129.732 75.9347 129.126 76.3175 128.38 76.466C127.634 76.6145 126.841 76.5174 126.003 76.1748ZM126.272 71.2632L129.162 72.4449C129.345 71.9246 129.358 71.4862 129.201 71.1297C129.053 70.7767 128.776 70.5172 128.37 70.3511C127.964 70.1851 127.572 70.1812 127.195 70.3395C126.83 70.4927 126.522 70.8006 126.272 71.2632ZM132.938 79.6817C132.293 79.2538 131.916 78.7915 131.808 78.2948C131.706 77.7903 131.871 77.2113 132.304 76.5578L136.178 70.7107L137.929 71.8706L134.194 77.5076C133.993 77.811 133.919 78.0584 133.971 78.2498C134.031 78.4464 134.19 78.6298 134.446 78.7999L135.322 79.3798L134.456 80.6869L132.938 79.6817ZM133.334 72.8233L134.2 71.5162L138.6 74.4314L137.734 75.7385L133.334 72.8233ZM137.857 83.7561L145.401 77.2836L149.867 82.49L148.507 83.6569L144.66 79.173L146.351 79.2724L142.897 82.2352L142.833 80.741L146.516 85.0336L145.177 86.1822L141.494 81.8896L142.961 82.1805L139.242 85.3711L137.857 83.7561ZM142.915 89.909L149.402 86.1373L150.401 87.8559L148.548 89.0141L148.507 88.8599C149.222 88.5848 149.802 88.4959 150.247 88.5933C150.692 88.6907 151.051 88.9734 151.323 89.4414L151.668 90.0344L150.167 90.907L149.822 90.3139C149.625 89.9751 149.419 89.7225 149.204 89.5562C148.988 89.39 148.751 89.3067 148.491 89.3063C148.237 89.314 147.944 89.414 147.613 89.6064L143.97 91.7245L142.915 89.909ZM146.427 97.8719C146.173 97.1502 146.1 96.4681 146.21 95.8256C146.332 95.1888 146.617 94.6229 147.066 94.128C147.518 93.6419 148.118 93.2668 148.866 93.0028C149.614 92.7388 150.312 92.6557 150.96 92.7536C151.621 92.8571 152.198 93.1186 152.692 93.538C153.187 93.9574 153.561 94.5279 153.816 95.2496C154.064 95.9537 154.126 96.6198 154.001 97.2478C153.877 97.8757 153.578 98.4315 153.105 98.915C152.636 99.4074 152.005 99.7933 151.213 100.073L150.817 100.213L149.06 95.2355C148.506 95.4607 148.141 95.7578 147.964 96.1269C147.791 96.5049 147.785 96.9227 147.946 97.3803C148.064 97.7148 148.233 97.9672 148.451 98.1375C148.673 98.3167 148.946 98.4034 149.27 98.3977L149.855 100.433C149.086 100.497 148.397 100.299 147.79 99.8405C147.183 99.3818 146.729 98.7256 146.427 97.8719ZM150.275 94.8068L151.314 97.7509C151.824 97.5412 152.16 97.2593 152.322 96.9052C152.487 96.5599 152.496 96.1804 152.35 95.7668C152.204 95.3531 151.947 95.058 151.578 94.8814C151.221 94.7106 150.786 94.6857 150.275 94.8068ZM148.243 105.899C148.157 105.139 148.239 104.458 148.49 103.856C148.751 103.263 149.156 102.775 149.705 102.394C150.254 102.021 150.923 101.79 151.711 101.701C152.499 101.611 153.198 101.686 153.808 101.927C154.428 102.176 154.932 102.56 155.32 103.08C155.708 103.599 155.945 104.239 156.031 105C156.116 105.742 156.027 106.405 155.764 106.989C155.502 107.573 155.086 108.047 154.517 108.413C153.949 108.787 153.248 109.022 152.413 109.117L151.996 109.164L151.4 103.92C150.809 104.015 150.387 104.223 150.132 104.543C149.878 104.873 149.779 105.278 149.834 105.761C149.874 106.113 149.981 106.397 150.156 106.612C150.332 106.836 150.578 106.982 150.896 107.049L151.01 109.164C150.246 109.053 149.619 108.706 149.13 108.123C148.641 107.54 148.345 106.799 148.243 105.899ZM152.68 103.774L153.032 106.876C153.576 106.786 153.967 106.587 154.204 106.278C154.442 105.979 154.537 105.611 154.487 105.175C154.438 104.739 154.253 104.394 153.933 104.139C153.623 103.893 153.205 103.771 152.68 103.774ZM146.058 120.719L147.176 120.192C147.125 119.959 147.108 119.687 147.125 119.374C147.139 119.071 147.188 118.742 147.272 118.388C147.498 117.434 147.907 116.658 148.499 116.06C149.101 115.464 149.824 115.064 150.668 114.861C151.521 114.66 152.438 114.676 153.419 114.908C154.382 115.136 155.203 115.517 155.882 116.052C156.558 116.596 157.038 117.266 157.319 118.062C157.599 118.866 157.619 119.773 157.381 120.781C157.142 121.789 156.718 122.585 156.11 123.17C155.499 123.764 154.771 124.148 153.924 124.322C153.077 124.495 152.172 124.468 151.21 124.24C150.31 124.027 149.557 123.686 148.949 123.216C148.339 122.755 147.873 122.189 147.552 121.518L145.655 122.422L146.058 120.719ZM149.016 118.8C148.988 118.919 148.967 119.029 148.952 119.131C148.946 119.235 148.951 119.337 148.966 119.436L150.934 118.478L150.527 120.194L149.42 120.68C149.609 121.013 149.888 121.294 150.255 121.525C150.63 121.767 151.117 121.959 151.716 122.101C152.306 122.241 152.873 122.279 153.415 122.216C153.965 122.164 154.438 121.988 154.835 121.689C155.232 121.389 155.499 120.949 155.637 120.368C155.777 119.778 155.736 119.26 155.515 118.814C155.295 118.369 154.952 117.995 154.486 117.693C154.027 117.402 153.503 117.187 152.913 117.047C152.331 116.909 151.766 116.867 151.216 116.919C150.674 116.982 150.204 117.164 149.807 117.463C149.417 117.773 149.153 118.219 149.016 118.8ZM144.514 126.532C144.88 125.85 145.384 125.432 146.028 125.279C146.675 125.138 147.393 125.28 148.183 125.703L152.44 127.984L151.448 129.835L147.623 127.785C147.113 127.512 146.697 127.389 146.374 127.418C146.06 127.451 145.813 127.636 145.632 127.973C145.429 128.352 145.4 128.712 145.545 129.054C145.694 129.409 146.027 129.726 146.545 130.003L150.284 132.007L149.293 133.858L142.678 130.314L143.584 128.623L145.511 129.592L145.336 129.8C144.731 129.349 144.359 128.848 144.22 128.297C144.081 127.746 144.179 127.158 144.514 126.532ZM139.352 134.136C139.854 133.558 140.412 133.159 141.025 132.938C141.646 132.724 142.282 132.69 142.934 132.836C143.585 132.983 144.21 133.317 144.809 133.838C145.407 134.359 145.82 134.929 146.048 135.549C146.283 136.174 146.337 136.809 146.209 137.453C146.082 138.097 145.767 138.707 145.264 139.284C144.762 139.861 144.2 140.257 143.58 140.472C142.96 140.687 142.324 140.721 141.672 140.574C141.027 140.434 140.405 140.103 139.807 139.582C139.209 139.061 138.792 138.487 138.557 137.862C138.322 137.237 138.268 136.602 138.396 135.958C138.531 135.32 138.849 134.713 139.352 134.136ZM140.566 135.193C140.223 135.587 140.107 136.025 140.22 136.507C140.34 136.995 140.674 137.478 141.223 137.956C141.772 138.434 142.293 138.696 142.786 138.741C143.285 138.792 143.707 138.621 144.05 138.227C144.393 137.833 144.505 137.392 144.385 136.904C144.273 136.422 143.942 135.942 143.393 135.464C142.844 134.986 142.319 134.721 141.82 134.67C141.327 134.624 140.909 134.799 140.566 135.193ZM133.703 139.688C134.315 139.214 134.874 139.005 135.379 139.062C135.889 139.127 136.385 139.469 136.865 140.089L141.161 145.634L139.501 146.92L135.359 141.575C135.136 141.287 134.926 141.137 134.728 141.125C134.522 141.119 134.298 141.211 134.054 141.399L133.224 142.042L132.264 140.803L133.703 139.688ZM140.072 142.262L141.032 143.502L136.86 146.735L135.9 145.495L140.072 142.262ZM129.171 142.245C129.861 141.893 130.507 141.763 131.109 141.855C131.707 141.959 132.151 142.298 132.444 142.872C132.744 143.463 132.792 144.009 132.587 144.512C132.378 145.027 131.949 145.543 131.302 146.061L129.359 147.584C129.58 148.017 129.845 148.29 130.154 148.405C130.46 148.532 130.796 148.503 131.162 148.316C131.519 148.134 131.756 147.909 131.871 147.641C131.99 147.382 131.998 147.079 131.895 146.733L133.824 145.861C134.072 146.657 134.025 147.377 133.683 148.023C133.337 148.68 132.727 149.232 131.854 149.676C130.856 150.184 129.987 150.328 129.246 150.108C128.497 149.892 127.89 149.327 127.424 148.412L126.262 146.129C126.165 145.937 126.07 145.823 125.978 145.786C125.882 145.762 125.771 145.782 125.647 145.845L125.459 145.94L124.805 144.655C124.855 144.609 124.942 144.544 125.067 144.459C125.183 144.379 125.304 144.307 125.428 144.244C125.695 144.108 125.967 144.027 126.247 144C126.518 143.977 126.779 144.038 127.031 144.182C127.287 144.335 127.518 144.615 127.726 145.023L127.5 144.98C127.431 144.639 127.447 144.3 127.549 143.966C127.643 143.635 127.828 143.321 128.106 143.022C128.375 142.728 128.73 142.469 129.171 142.245ZM129.376 143.758C129.068 143.915 128.827 144.111 128.654 144.346C128.484 144.589 128.392 144.861 128.378 145.162C128.363 145.462 128.436 145.771 128.597 146.087L128.762 146.411L130.119 145.312C130.389 145.101 130.567 144.885 130.653 144.663C130.735 144.454 130.721 144.241 130.611 144.025C130.497 143.8 130.333 143.664 130.12 143.615C129.907 143.567 129.659 143.614 129.376 143.758ZM121.151 145.657C121.896 145.443 122.492 145.456 122.94 145.696C123.39 145.946 123.723 146.447 123.94 147.2L125.878 153.941L123.86 154.522L121.991 148.023C121.891 147.673 121.751 147.456 121.571 147.372C121.383 147.29 121.14 147.291 120.844 147.377L119.835 147.667L119.402 146.16L121.151 145.657ZM126.114 150.406L126.548 151.913L121.475 153.372L121.042 151.865L126.114 150.406ZM118.193 146.376L119.267 153.803L117.189 154.104L116.115 146.677L118.193 146.376ZM119.441 154.712L119.681 156.374L117.534 156.685L117.293 155.022L119.441 154.712ZM111.027 146.527C111.792 146.543 112.455 146.716 113.018 147.046C113.58 147.385 114.013 147.851 114.318 148.446C114.623 149.041 114.766 149.735 114.749 150.528C114.732 151.321 114.559 152.003 114.229 152.575C113.899 153.156 113.446 153.604 112.87 153.918C112.294 154.233 111.623 154.382 110.858 154.365C110.093 154.349 109.429 154.171 108.867 153.832C108.305 153.494 107.872 153.027 107.567 152.432C107.262 151.847 107.118 151.157 107.135 150.364C107.152 149.571 107.326 148.884 107.656 148.303C107.985 147.722 108.439 147.274 109.015 146.96C109.591 146.655 110.261 146.511 111.027 146.527ZM110.992 148.137C110.469 148.125 110.059 148.317 109.761 148.712C109.463 149.117 109.306 149.683 109.291 150.411C109.275 151.138 109.408 151.706 109.688 152.114C109.969 152.53 110.37 152.744 110.893 152.756C111.415 152.767 111.826 152.57 112.124 152.166C112.422 151.771 112.578 151.209 112.594 150.482C112.61 149.754 112.477 149.181 112.197 148.765C111.916 148.357 111.514 148.148 110.992 148.137ZM105.957 146.376L104.09 153.644L102.26 153.174L102.725 151.024L102.965 151.158C102.754 151.682 102.498 152.078 102.197 152.348C101.887 152.616 101.547 152.779 101.175 152.837C100.804 152.896 100.419 152.875 100.021 152.772C99.4968 152.638 99.0829 152.411 98.7793 152.092C98.4667 151.771 98.2689 151.378 98.1858 150.914C98.0914 150.456 98.1161 149.946 98.26 149.386L99.4613 144.708L101.495 145.23L100.468 149.23C100.368 149.619 100.315 149.957 100.309 150.245C100.303 150.532 100.363 150.764 100.491 150.942C100.617 151.128 100.824 151.259 101.114 151.333C101.538 151.442 101.904 151.367 102.212 151.109C102.517 150.86 102.745 150.441 102.895 149.854L103.923 145.853L105.957 146.376ZM91.746 144.19C92.0354 144.36 92.2646 144.587 92.4333 144.871C92.5892 145.158 92.6685 145.465 92.6711 145.791C92.6657 146.113 92.5753 146.422 92.4 146.72C92.22 147.026 91.9905 147.259 91.7117 147.419C91.4248 147.575 91.1205 147.651 90.7987 147.645C90.4722 147.648 90.1601 147.561 89.8626 147.386C89.5651 147.211 89.3383 146.98 89.1824 146.693C89.0136 146.409 88.932 146.107 88.9374 145.785C88.9348 145.458 89.0236 145.142 89.2036 144.837C89.3789 144.539 89.61 144.312 89.8969 144.156C90.1757 143.996 90.4824 143.916 90.817 143.919C91.1388 143.924 91.4484 144.014 91.746 144.19ZM84.8637 134.356C85.5077 135.069 85.8951 135.826 86.0259 136.626C86.1567 137.425 86.0596 138.223 85.7346 139.02C85.3964 139.815 84.8496 140.554 84.0943 141.235C83.3529 141.904 82.5661 142.363 81.7339 142.611C80.9018 142.859 80.0849 142.873 79.2833 142.653C78.4686 142.433 77.7298 141.956 77.067 141.221C76.4918 140.584 76.1146 139.95 75.9355 139.32C75.7432 138.689 75.7223 138.066 75.8727 137.453C76.0231 136.839 76.3148 136.243 76.7476 135.664L78.2929 137.23C77.9528 137.675 77.7776 138.129 77.7671 138.591C77.7434 139.052 77.9504 139.525 78.3881 140.01C78.7695 140.433 79.1993 140.686 79.6774 140.771C80.1492 140.848 80.6382 140.783 81.1444 140.578C81.6443 140.366 82.1368 140.041 82.6218 139.603C83.1138 139.159 83.4909 138.7 83.7532 138.224C84.0024 137.748 84.1093 137.274 84.074 136.803C84.0324 136.325 83.8115 135.865 83.4114 135.421C83.1175 135.095 82.7984 134.874 82.4542 134.757C82.1037 134.634 81.7547 134.609 81.4072 134.684C81.0535 134.752 80.7186 134.903 80.4026 135.138L81.922 136.822L80.7683 137.863L77.8514 134.63L81.6867 131.169L82.5684 132.146L81.0635 133.655L80.9778 133.393C81.3661 133.168 81.7912 133.061 82.2532 133.072C82.7153 133.082 83.1754 133.195 83.6335 133.41C84.0785 133.625 84.4886 133.94 84.8637 134.356ZM79.3314 126.716C79.6861 127.394 79.8549 128.059 79.8376 128.71C79.8077 129.358 79.6058 129.958 79.2318 130.512C78.8536 131.058 78.3129 131.514 77.61 131.882C76.907 132.25 76.2278 132.431 75.5723 132.426C74.9041 132.418 74.2956 132.241 73.7466 131.896C73.1975 131.551 72.7457 131.04 72.3909 130.362C72.0448 129.7 71.8889 129.05 71.9231 128.41C71.9573 127.771 72.174 127.178 72.5731 126.633C72.9679 126.078 73.5375 125.607 74.2818 125.217L74.654 125.023L77.1004 129.7C77.6167 129.398 77.936 129.052 78.0582 128.661C78.1762 128.263 78.1227 127.848 77.8977 127.418C77.7333 127.104 77.5309 126.878 77.2904 126.74C77.0456 126.595 76.763 126.548 76.4425 126.599L75.5743 124.668C76.3267 124.495 77.0361 124.593 77.7025 124.961C78.3688 125.328 78.9118 125.913 79.3314 126.716ZM75.9591 130.297L74.512 127.53C74.037 127.81 73.7445 128.137 73.6345 128.511C73.5201 128.876 73.5646 129.253 73.7679 129.642C73.9712 130.03 74.2681 130.286 74.6586 130.408C75.0365 130.526 75.47 130.489 75.9591 130.297ZM76.2726 119.569C76.4939 120.311 76.4867 120.908 76.2508 121.358C76.006 121.811 75.5079 122.149 74.7566 122.373L68.035 124.377L67.435 122.365L73.9151 120.432C74.2639 120.328 74.4796 120.186 74.5621 120.006C74.642 119.816 74.638 119.574 74.55 119.279L74.2499 118.273L75.7526 117.825L76.2726 119.569ZM71.5721 124.579L70.0694 125.027L68.5614 119.969L70.064 119.521L71.5721 124.579ZM75.1364 113.285L65.1968 113.381L65.1301 106.522L66.922 106.504L66.9795 112.412L65.7501 111.248L70.2999 111.204L69.3874 112.389L69.3324 106.733L71.0963 106.716L71.1513 112.372L70.2159 111.205L75.1157 111.157L75.1364 113.285ZM75.2269 105.32L67.8351 104.027L68.1776 102.069L70.341 102.376L70.2731 102.52C69.5493 102.271 69.0485 101.965 68.7706 101.604C68.4926 101.243 68.4003 100.795 68.4936 100.262L68.6117 99.5864L70.3218 99.8855L70.2036 100.561C70.1361 100.947 70.1312 101.273 70.1889 101.539C70.2466 101.805 70.3745 102.022 70.5727 102.189C70.7724 102.347 71.0608 102.459 71.4377 102.525L75.5887 103.251L75.2269 105.32ZM77.6661 96.9649C77.3965 97.6812 77.013 98.2499 76.5154 98.671C76.0124 99.08 75.4299 99.3295 74.7678 99.4194C74.109 99.5005 73.4084 99.4014 72.6659 99.1219C71.9234 98.8425 71.3356 98.4567 70.9025 97.9646C70.464 97.4605 70.1905 96.8889 70.082 96.2497C69.9735 95.6105 70.0541 94.9328 70.3236 94.2165C70.5866 93.5177 70.968 92.9681 71.4677 92.5678C71.9674 92.1675 72.5537 91.9344 73.2267 91.8686C73.903 91.794 74.6342 91.9047 75.4204 92.2006L75.8135 92.3485L73.9543 97.2882C74.5233 97.4724 74.9941 97.4801 75.3668 97.3112C75.7428 97.1336 76.0162 96.8177 76.1872 96.3635C76.3121 96.0315 76.3458 95.7301 76.2882 95.4591C76.2339 95.1794 76.0807 94.9372 75.8286 94.7326L76.6912 92.7985C77.321 93.245 77.7206 93.8391 77.8901 94.5811C78.0597 95.323 77.985 96.1176 77.6661 96.9649ZM72.7489 96.8346L73.8486 93.9126C73.3233 93.7449 72.8847 93.7444 72.5328 93.9111C72.1841 94.0691 71.9326 94.3533 71.778 94.7639C71.6235 95.1744 71.6307 95.5661 71.7996 95.9388C71.963 96.2994 72.2794 96.598 72.7489 96.8346ZM81.4458 89.6548C81.022 90.292 80.5204 90.7598 79.9409 91.0582C79.3588 91.3436 78.735 91.4556 78.0697 91.3943C77.4095 91.3251 76.7491 91.0709 76.0885 90.6316C75.4279 90.1923 74.942 89.6842 74.6307 89.1073C74.3168 88.5174 74.1789 87.8989 74.217 87.2517C74.2551 86.6045 74.486 85.9623 74.9098 85.325C75.3233 84.7033 75.8185 84.2536 76.3954 83.976C76.9724 83.6983 77.5961 83.6031 78.2667 83.6904C78.9424 83.7698 79.63 84.0421 80.3294 84.5073L80.6792 84.7399L77.7565 89.1348C78.2694 89.4422 78.7264 89.5556 79.1275 89.4749C79.5338 89.3864 79.8714 89.1401 80.1401 88.736C80.3365 88.4407 80.4371 88.1545 80.442 87.8775C80.452 87.5928 80.3572 87.3224 80.1576 87.0663L81.4332 85.3758C81.9464 85.9525 82.2021 86.6213 82.2004 87.3824C82.1987 88.1434 81.9471 88.9009 81.4458 89.6548ZM76.684 88.4216L78.4128 85.8219C77.9387 85.5403 77.5115 85.4411 77.1311 85.5244C76.7558 85.5999 76.4467 85.8203 76.2038 86.1855C75.9609 86.5508 75.8798 86.934 75.9605 87.3352C76.0386 87.7234 76.2798 88.0855 76.684 88.4216ZM92.6515 79.7158L91.4574 79.3995C91.3463 79.6099 91.1838 79.8294 90.9699 80.058C90.7636 80.2811 90.5143 80.5011 90.2221 80.7182C89.4354 81.3026 88.6228 81.633 87.7843 81.7094C86.9402 81.7783 86.1299 81.6187 85.3533 81.2305C84.5711 80.8349 83.8795 80.2325 83.2784 79.4233C82.6885 78.6291 82.3058 77.8088 82.1305 76.9624C81.9627 76.1104 82.0272 75.2894 82.3239 74.4993C82.6281 73.7036 83.1961 72.9969 84.0277 72.3791C84.8594 71.7613 85.6963 71.4245 86.5384 71.3687C87.388 71.3073 88.1927 71.4827 88.9524 71.895C89.7121 72.3074 90.3869 72.9106 90.9769 73.7048C91.5279 74.4466 91.8847 75.193 92.0473 75.9442C92.2175 76.6898 92.2095 77.4224 92.0232 78.1421L94.0564 78.6723L92.6515 79.7158ZM89.1535 79.2797C89.2509 79.2073 89.338 79.1368 89.4149 79.0681C89.4862 78.9919 89.5482 78.9109 89.6008 78.8253L87.4781 78.2919L88.8941 77.24L90.0546 77.5814C90.1235 77.2046 90.0917 76.8097 89.9592 76.3965C89.8287 75.9703 89.5797 75.51 89.2124 75.0155C88.8507 74.5285 88.4418 74.1346 87.9858 73.8338C87.5318 73.52 87.0566 73.3498 86.5602 73.3232C86.0638 73.2967 85.5758 73.4615 85.0963 73.8177C84.6093 74.1794 84.3068 74.6018 84.1888 75.0847C84.0709 75.5676 84.0928 76.0745 84.2546 76.6054C84.4184 77.1232 84.6811 77.6257 85.0429 78.1127C85.3991 78.5922 85.8042 78.9889 86.2582 79.3027C86.7141 79.6035 87.1903 79.7671 87.6867 79.7937C88.1851 79.8072 88.674 79.6358 89.1535 79.2797ZM97.5777 76.2588C96.8583 76.546 96.2032 76.5412 95.6124 76.2445C95.0268 75.9355 94.5679 75.365 94.2357 74.5329L92.4451 70.0471L94.3954 69.2685L96.0044 73.2992C96.2189 73.8367 96.4587 74.1982 96.7238 74.3838C96.9853 74.5608 97.2938 74.5783 97.6492 74.4365C98.048 74.2773 98.3021 74.0201 98.4115 73.6649C98.5261 73.2975 98.4745 72.8408 98.2565 72.2947L96.6838 68.355L98.6342 67.5765L101.416 74.5457L99.6348 75.2568L98.7835 73.2752L99.0513 73.2286C99.2241 73.9636 99.1864 74.5866 98.9382 75.0977C98.69 75.6088 98.2365 75.9959 97.5777 76.2588ZM106.397 73.7832C105.64 73.8983 104.957 73.8419 104.346 73.6138C103.743 73.3751 103.241 72.989 102.839 72.4554C102.446 71.9204 102.19 71.2608 102.07 70.4765C101.951 69.6922 102 68.9908 102.217 68.3724C102.443 67.7434 102.807 67.2252 103.312 66.818C103.816 66.4108 104.447 66.1497 105.204 66.0345C105.942 65.9222 106.608 65.9861 107.201 66.2262C107.795 66.4663 108.285 66.8637 108.671 67.4186C109.067 67.972 109.328 68.6639 109.455 69.4944L109.518 69.9096L104.3 70.7036C104.417 71.29 104.641 71.7044 104.97 71.9469C105.309 72.188 105.719 72.272 106.198 72.199C106.549 72.1457 106.828 72.0276 107.037 71.8449C107.254 71.6607 107.39 71.4087 107.446 71.0888L109.554 70.8953C109.473 71.6629 109.15 72.3021 108.586 72.8128C108.022 73.3235 107.292 73.647 106.397 73.7832ZM104.106 69.4303L107.192 68.9606C107.082 68.4204 106.868 68.0376 106.55 67.8121C106.242 67.5853 105.871 67.5048 105.437 67.5708C105.004 67.6368 104.666 67.8346 104.423 68.1642C104.188 68.4831 104.083 68.9052 104.106 69.4303Z" fill="#1A1A1A"/>
<path d="M78.8813 110.955C78.8813 93.2817 93.2082 78.9548 110.881 78.9548C128.554 78.9548 142.881 93.2817 142.881 110.955C142.881 128.628 128.554 142.955 110.881 142.955C93.2082 142.955 78.8813 128.628 78.8813 110.955Z" fill="#1A1A1A"/>
<path d="M116.481 105.455L103.815 118.121C103.57 118.366 103.292 118.483 102.981 118.471C102.67 118.46 102.392 118.333 102.148 118.088C101.904 117.844 101.781 117.56 101.781 117.238C101.781 116.916 101.904 116.633 102.148 116.388L114.781 103.755H108.881C108.541 103.755 108.256 103.64 108.026 103.412C107.796 103.183 107.681 102.9 107.681 102.562C107.681 102.224 107.796 101.938 108.026 101.705C108.256 101.471 108.541 101.355 108.881 101.355H117.681C118.021 101.355 118.306 101.47 118.536 101.7C118.766 101.93 118.881 102.215 118.881 102.555V111.355C118.881 111.695 118.767 111.98 118.538 112.21C118.31 112.44 118.026 112.555 117.688 112.555C117.35 112.555 117.065 112.44 116.831 112.21C116.598 111.98 116.481 111.695 116.481 111.355V105.455Z" fill="white"/>
</g>
<defs>
<filter id="filter0_d_18082_31725" x="-1.11865" y="-1.04517" width="224" height="224" filterUnits="userSpaceOnUse" color-interpolation-filters="sRGB">
<feFlood flood-opacity="0" result="BackgroundImageFix"/>
<feColorMatrix in="SourceAlpha" type="matrix" values="0 0 0 0 0 0 0 0 0 0 0 0 0 0 0 0 0 0 127 0" result="hardAlpha"/>
<feOffset/>
<feGaussianBlur stdDeviation="18"/>
<feColorMatrix type="matrix" values="0 0 0 0 0.0279104 0 0 0 0 0.19209 0 0 0 0 0.13791 0 0 0 0.32 0"/>
<feBlend mode="normal" in2="BackgroundImageFix" result="effect1_dropShadow_18082_31725"/>
<feBlend mode="normal" in="SourceGraphic" in2="effect1_dropShadow_18082_31725" result="shape"/>
</filter>
</defs>
</svg>
