<svg width="222" height="222" viewBox="0 0 222 222" fill="none" xmlns="http://www.w3.org/2000/svg">
<g filter="url(#filter0_d_18919_550989)">
<path d="M114.312 41.9399C115.721 43.5568 118.153 43.7755 119.827 42.436L123.907 39.1724L126.58 43.6616C127.677 45.504 130.031 46.1541 131.918 45.1353L136.516 42.6519L138.344 47.5464C139.094 49.555 141.295 50.6145 143.333 49.9487L148.299 48.3267L149.225 53.4692C149.604 55.5795 151.58 57.0152 153.704 56.7241L158.881 56.0142L158.872 61.2397C158.869 63.3838 160.557 65.1489 162.699 65.2417L167.919 65.4683L166.979 70.6079C166.593 72.7168 167.937 74.755 170.028 75.229L175.124 76.3833L173.281 81.272C172.525 83.2783 173.484 85.5251 175.457 86.3647L180.265 88.4106L177.578 92.8911C176.475 94.7301 177.019 97.1121 178.811 98.2905L183.176 101.162L179.731 105.091C178.318 106.704 178.428 109.143 179.979 110.623L183.762 114.228L179.672 117.479C177.994 118.813 177.666 121.234 178.929 122.966L182.007 127.189L177.401 129.657C175.512 130.67 174.757 132.993 175.69 134.923L177.965 139.627L172.993 141.234C170.953 141.893 169.795 144.045 170.369 146.111L171.767 151.145L166.588 151.838C164.463 152.123 162.94 154.032 163.136 156.167L163.612 161.371L158.393 161.128C156.251 161.029 154.412 162.636 154.223 164.772L153.763 169.976L148.671 168.805C146.581 168.325 144.484 169.578 143.917 171.646L142.535 176.684L137.733 174.624C135.763 173.778 133.476 174.636 132.549 176.569L130.289 181.28L125.934 178.395C124.146 177.211 121.743 177.647 120.485 179.383L117.421 183.616L113.649 179.999C112.102 178.515 109.66 178.515 108.112 179.999L104.341 183.616L101.276 179.383C100.058 177.701 97.7643 177.239 95.9971 178.289L95.8281 178.395L91.4727 181.28L89.2129 176.569C88.2855 174.636 85.9986 173.778 84.0283 174.624L79.2266 176.684L77.8447 171.646C77.2775 169.578 75.1805 168.325 73.0908 168.805L67.999 169.976L67.5391 164.772C67.3502 162.636 65.5109 161.029 63.3691 161.128L58.1494 161.371L58.626 156.167C58.8214 154.032 57.2988 152.123 55.1738 151.838L49.9951 151.145L51.3926 146.111C51.9663 144.045 50.8089 141.893 48.7686 141.234L43.7969 139.627L46.0713 134.923C47.0044 132.993 46.25 130.67 44.3604 129.657L39.7549 127.189L42.833 122.966C44.096 121.234 43.7682 118.813 42.0898 117.479L38 114.228L41.7822 110.623C43.3339 109.143 43.4432 106.704 42.0303 105.091L38.5859 101.162L42.9512 98.2905C44.7425 97.1121 45.2863 94.7301 44.1836 92.8911L41.4971 88.4106L46.3047 86.3647C48.2776 85.5251 49.237 83.2782 48.4805 81.272L46.6377 76.3833L51.7334 75.229C53.8243 74.755 55.1692 72.7168 54.7832 70.6079L53.8428 65.4683L59.0625 65.2417C61.2046 65.1489 62.8928 63.3838 62.8896 61.2397L62.8809 56.0142L68.0576 56.7241C70.1819 57.0152 72.1574 55.5794 72.5371 53.4692L73.4629 48.3267L78.4287 49.9487C80.4669 50.6145 82.6677 49.555 83.418 47.5464L85.2461 42.6519L89.8438 45.1353C91.7303 46.1541 94.0848 45.5039 95.1816 43.6616L97.8545 39.1724L101.935 42.436C103.609 43.7754 106.041 43.5568 107.449 41.9399L110.881 37.9995L114.312 41.9399Z" fill="#F4C430" stroke="#F5F5F0" stroke-width="4"/>
<circle cx="110.381" cy="110.455" r="57.5" stroke="#1A1A1A" stroke-width="8"/>
<path d="M114.906 73.5187L114.009 63.2609L116.2 63.6524L116.65 70.8437L119.576 64.2557L121.409 64.5833L121.887 71.7795L124.786 65.1866L126.977 65.5781L122.597 74.8928L120.336 74.4889L119.856 67.9464L117.139 73.9176L114.906 73.5187ZM127.58 76.8593C126.888 76.5112 126.401 76.0676 126.118 75.5285C125.848 74.9853 125.858 74.426 126.147 73.8507C126.445 73.2586 126.857 72.8965 127.383 72.7641C127.922 72.6276 128.592 72.6667 129.393 72.8815L131.77 73.5444C131.988 73.1108 132.052 72.7353 131.961 72.4179C131.882 72.0963 131.659 71.8432 131.293 71.6587C130.934 71.4784 130.613 71.4213 130.329 71.4874C130.049 71.5452 129.8 71.7179 129.583 72.0054L127.738 70.968C128.232 70.2972 128.84 69.9083 129.563 69.8015C130.297 69.6905 131.103 69.8551 131.978 70.2954C132.979 70.7986 133.61 71.4137 133.871 72.1406C134.141 72.8716 134.045 73.6958 133.584 74.613L132.432 76.9018C132.336 77.0936 132.3 77.2375 132.325 77.3336C132.362 77.4255 132.444 77.5029 132.569 77.5658L132.756 77.6602L132.108 78.9484C132.042 78.9358 131.937 78.9042 131.796 78.8538C131.662 78.8076 131.533 78.753 131.408 78.6901C131.141 78.5559 130.914 78.3843 130.726 78.1751C130.547 77.9702 130.442 77.7237 130.409 77.4356C130.38 77.1392 130.469 76.7867 130.674 76.3781L130.774 76.5849C130.54 76.8432 130.257 77.0304 129.927 77.1465C129.606 77.2668 129.243 77.3035 128.838 77.2566C128.441 77.214 128.022 77.0815 127.58 76.8593ZM128.678 75.7975C128.987 75.9526 129.287 76.0305 129.579 76.0312C129.876 76.0235 130.149 75.9365 130.4 75.7701C130.651 75.6038 130.856 75.3621 131.016 75.0453L131.179 74.7201L129.49 74.2779C129.16 74.1853 128.88 74.1701 128.651 74.2321C128.434 74.2901 128.27 74.4274 128.161 74.6442C128.048 74.8694 128.035 75.0822 128.122 75.2828C128.21 75.4833 128.395 75.6549 128.678 75.7975ZM135.091 81.2849C134.476 80.8146 134.131 80.328 134.057 79.8252C133.989 79.315 134.192 78.7484 134.668 78.1254L138.926 72.5517L140.595 73.8265L136.49 79.2C136.269 79.4892 136.178 79.7311 136.218 79.9256C136.264 80.1257 136.41 80.3193 136.655 80.5063L137.489 81.1437L136.537 82.3897L135.091 81.2849ZM135.947 74.4686L136.899 73.2225L141.093 76.4266L140.141 77.6726L135.947 74.4686ZM139.424 85.853C138.917 85.2797 138.593 84.6747 138.454 84.038C138.321 83.3951 138.37 82.7601 138.601 82.1328C138.831 81.5056 139.243 80.9291 139.837 80.4035C140.431 79.8779 141.05 79.5423 141.694 79.3966C142.345 79.2447 142.981 79.2738 143.603 79.4838C144.225 79.6938 144.789 80.0855 145.296 80.6587C145.735 81.1551 146.041 81.6763 146.212 82.2224C146.39 82.7755 146.423 83.3197 146.31 83.855C146.198 84.3903 145.936 84.89 145.524 85.354L144.013 83.7935C144.319 83.4354 144.47 83.0777 144.466 82.7204C144.474 82.3638 144.346 82.0353 144.08 81.7347C143.734 81.3432 143.314 81.172 142.822 81.2212C142.33 81.2704 141.811 81.5361 141.266 82.0184C140.72 82.5008 140.39 82.9863 140.274 83.4751C140.165 83.9577 140.284 84.3948 140.63 84.7863C140.896 85.0869 141.209 85.2582 141.57 85.3001C141.938 85.3359 142.33 85.2078 142.744 84.9159L144.119 86.5969C143.614 86.9561 143.083 87.1649 142.524 87.2232C141.978 87.2823 141.434 87.1961 140.893 86.9646C140.365 86.7338 139.875 86.3633 139.424 85.853ZM142.567 89.4646L151.296 84.7097L152.3 86.5539L148.624 88.5563L148.491 88.3104C148.911 88.1661 149.296 88.1213 149.645 88.1759C149.998 88.2386 150.314 88.38 150.593 88.5999C150.877 88.8279 151.112 89.1141 151.3 89.4584C151.568 89.9501 151.685 90.418 151.65 90.8619C151.615 91.3058 151.454 91.7125 151.167 92.0817C150.883 92.4592 150.5 92.7797 150.016 93.0431L145.775 95.3536L144.77 93.5094L148.569 91.4401C149.061 91.1722 149.387 90.8934 149.548 90.6037C149.714 90.3223 149.699 90.0012 149.502 89.6406C149.297 89.2636 149.009 89.0377 148.639 88.963C148.269 88.8883 147.829 88.9894 147.321 89.2662L143.572 91.3088L142.567 89.4646ZM147.847 102.221L155.857 100.725L155.312 97.8073L157.073 97.4783L158.559 105.433L156.797 105.762L156.25 102.83L148.24 104.326L147.847 102.221ZM148.729 108.041L158.663 108.389L158.59 110.488L154.406 110.341L154.416 110.061C154.852 110.151 155.206 110.309 155.478 110.533C155.75 110.767 155.951 111.049 156.079 111.381C156.207 111.721 156.264 112.087 156.251 112.479C156.231 113.039 156.093 113.501 155.838 113.866C155.582 114.23 155.237 114.498 154.801 114.67C154.365 114.851 153.872 114.931 153.322 114.912L148.495 114.743L148.568 112.644L152.892 112.796C153.451 112.815 153.874 112.741 154.16 112.574C154.446 112.416 154.596 112.132 154.61 111.721C154.625 111.292 154.492 110.951 154.212 110.699C153.931 110.446 153.502 110.31 152.923 110.289L148.656 110.14L148.729 108.041ZM147.183 119.58C147.383 118.841 147.71 118.238 148.166 117.772C148.627 117.317 149.184 117.013 149.834 116.861C150.482 116.717 151.189 116.749 151.955 116.957C152.721 117.164 153.342 117.492 153.82 117.941C154.305 118.401 154.631 118.944 154.8 119.57C154.969 120.196 154.953 120.878 154.753 121.617C154.558 122.338 154.23 122.921 153.771 123.367C153.312 123.813 152.75 124.101 152.087 124.231C151.42 124.369 150.682 124.329 149.871 124.109L149.466 123.999L150.847 118.905C150.263 118.775 149.793 118.813 149.438 119.016C149.081 119.229 148.839 119.569 148.712 120.038C148.619 120.38 148.614 120.683 148.697 120.948C148.778 121.221 148.954 121.447 149.224 121.627L148.549 123.634C147.88 123.25 147.426 122.696 147.186 121.974C146.947 121.252 146.946 120.453 147.183 119.58ZM152.09 119.242L151.273 122.255C151.812 122.372 152.249 122.331 152.583 122.131C152.915 121.941 153.139 121.634 153.253 121.211C153.368 120.787 153.324 120.398 153.12 120.043C152.923 119.7 152.58 119.432 152.09 119.242ZM142.784 129.724L153.016 132.36L151.778 134.176L144.053 132.113L148.798 138.549L147.56 140.366L141.373 131.795L142.784 129.724ZM138.775 135.308L144.104 140.591L142.625 142.083L137.296 136.799L138.775 135.308ZM144.789 141.212L145.982 142.395L144.455 143.936L143.262 142.753L144.789 141.212ZM133.723 139.302C134.24 138.934 134.781 138.743 135.345 138.731C135.907 138.731 136.458 138.894 137 139.218C137.539 139.556 138.041 140.052 138.507 140.706C138.973 141.359 139.271 141.995 139.402 142.612C139.538 143.237 139.512 143.812 139.324 144.335C139.134 144.872 138.784 145.322 138.275 145.685C137.842 145.994 137.405 146.169 136.963 146.208C136.519 146.261 136.106 146.189 135.725 145.991L137.757 148.841L136.047 150.06L130.276 141.967L131.906 140.804L132.582 141.681C132.516 141.235 132.586 140.801 132.79 140.38C132.987 139.965 133.298 139.606 133.723 139.302ZM134.1 141.011C133.826 141.206 133.646 141.444 133.559 141.724C133.472 142.003 133.476 142.315 133.573 142.659C133.674 143.011 133.871 143.392 134.164 143.802C134.462 144.22 134.758 144.531 135.052 144.734C135.351 144.945 135.645 145.051 135.932 145.052C136.225 145.061 136.508 144.968 136.782 144.773C137.185 144.486 137.382 144.087 137.374 143.577C137.371 143.075 137.163 142.535 136.752 141.957C136.345 141.387 135.902 141.015 135.423 140.841C134.936 140.673 134.495 140.729 134.1 141.011ZM125.611 143.88C126.319 143.591 126.997 143.485 127.644 143.564C128.286 143.654 128.865 143.912 129.381 144.336C129.889 144.764 130.292 145.346 130.592 146.08C130.892 146.814 131.009 147.508 130.943 148.16C130.871 148.824 130.638 149.413 130.243 149.928C129.848 150.442 129.296 150.843 128.588 151.133C127.896 151.415 127.234 151.509 126.601 151.415C125.967 151.321 125.398 151.049 124.892 150.6C124.378 150.155 123.962 149.544 123.644 148.766L123.485 148.377L128.372 146.382C128.12 145.839 127.805 145.489 127.428 145.331C127.042 145.176 126.625 145.19 126.175 145.373C125.847 145.507 125.603 145.688 125.443 145.914C125.275 146.144 125.202 146.421 125.223 146.745L123.218 147.428C123.118 146.662 123.282 145.965 123.71 145.336C124.139 144.708 124.773 144.222 125.611 143.88ZM128.858 147.574L125.968 148.755C126.202 149.254 126.5 149.576 126.862 149.72C127.215 149.869 127.594 149.86 128 149.694C128.406 149.528 128.689 149.257 128.847 148.88C129 148.514 129.004 148.079 128.858 147.574ZM117.651 146.072C118.407 145.951 119.091 146.003 119.703 146.226C120.317 146.459 120.827 146.841 121.233 147.372C121.639 147.903 121.904 148.56 122.029 149.343C122.154 150.126 122.105 150.829 121.883 151.45C121.662 152.081 121.296 152.602 120.786 153.015C120.275 153.427 119.641 153.693 118.886 153.814C118.13 153.934 117.445 153.878 116.832 153.645C116.218 153.412 115.708 153.03 115.302 152.5C114.898 151.978 114.633 151.326 114.508 150.542C114.383 149.759 114.431 149.052 114.652 148.421C114.873 147.79 115.238 147.269 115.749 146.857C116.261 146.454 116.896 146.192 117.651 146.072ZM117.905 147.661C117.389 147.744 117.019 148.006 116.797 148.448C116.576 148.899 116.522 149.484 116.637 150.203C116.752 150.922 116.984 151.456 117.332 151.807C117.683 152.167 118.116 152.306 118.632 152.224C119.148 152.142 119.517 151.875 119.738 151.424C119.961 150.982 120.015 150.401 119.9 149.683C119.785 148.964 119.553 148.424 119.202 148.064C118.853 147.713 118.421 147.579 117.905 147.661ZM107.038 149.377C107.371 149.418 107.672 149.535 107.94 149.728C108.197 149.929 108.392 150.179 108.525 150.477C108.648 150.774 108.689 151.094 108.647 151.437C108.603 151.789 108.486 152.094 108.294 152.353C108.093 152.61 107.844 152.801 107.547 152.924C107.249 153.057 106.928 153.102 106.585 153.06C106.242 153.017 105.942 152.896 105.685 152.695C105.417 152.502 105.222 152.257 105.098 151.96C104.966 151.662 104.921 151.336 104.964 150.984C105.006 150.642 105.128 150.342 105.329 150.084C105.521 149.826 105.77 149.631 106.078 149.499C106.375 149.376 106.695 149.335 107.038 149.377ZM98.7766 144.115L96.7034 154.041L95.1021 153.236L97.0023 145.37L91.5619 151.457L89.8982 150.621L91.6044 142.642L86.408 148.868L84.7943 148.057L91.5836 140.501L93.36 141.393L91.8299 148.928L97.0128 143.229L98.7766 144.115ZM87.3581 137.153C87.7803 137.549 88.0639 137.949 88.2091 138.354C88.3542 138.758 88.3832 139.144 88.2959 139.51C88.2087 139.876 88.0343 140.198 87.7725 140.478C87.4662 140.804 87.1195 141.01 86.7327 141.095C86.3391 141.174 85.9182 141.125 85.4701 140.948C85.0155 140.778 84.55 140.469 84.0733 140.023L82.7761 138.807C82.5208 139.079 82.3476 139.339 82.2566 139.586C82.1591 139.84 82.1472 140.085 82.2209 140.32C82.2945 140.555 82.4539 140.788 82.699 141.018C82.9782 141.28 83.2772 141.438 83.5959 141.494C83.9083 141.557 84.2096 141.481 84.4998 141.267L85.705 142.396C85.3195 142.726 84.9033 142.924 84.4565 142.991C84.0032 143.066 83.5428 143.018 83.0751 142.848C82.5942 142.679 82.1529 142.406 81.7511 142.029C81.2676 141.576 80.9355 141.104 80.7546 140.615C80.5673 140.133 80.532 139.652 80.6486 139.172C80.7519 138.694 81.0079 138.236 81.4164 137.801L84.4037 134.614L85.4456 135.59L84.7926 136.533C84.9883 136.46 85.1949 136.417 85.4124 136.404C85.6231 136.384 85.838 136.393 86.0571 136.432C86.2699 136.478 86.4872 136.56 86.7089 136.679C86.9238 136.791 87.1402 136.949 87.3581 137.153ZM86.1727 137.865C85.9753 137.68 85.7697 137.551 85.5561 137.479C85.3293 137.407 85.1007 137.384 84.8705 137.412C84.6271 137.439 84.3981 137.506 84.1836 137.612C83.9692 137.718 83.7655 137.853 83.5728 138.018L83.5536 138.039L84.6874 139.101C84.9257 139.325 85.1519 139.479 85.3659 139.565C85.5736 139.657 85.7626 139.681 85.9328 139.636C86.103 139.591 86.2552 139.496 86.3892 139.353C86.5232 139.21 86.6041 139.056 86.6318 138.89C86.6594 138.724 86.6341 138.553 86.5558 138.377C86.4775 138.202 86.3498 138.031 86.1727 137.865ZM81.4925 130.891C81.7751 131.274 81.9616 131.653 82.052 132.027C82.1368 132.393 82.0985 132.758 81.937 133.121C81.7755 133.483 81.4581 133.839 80.985 134.188L78.3488 136.133L79.0636 137.102L77.9258 137.942L77.211 136.973L75.5963 137.921L74.7152 136.727L76.2136 135.621L75.0748 134.078L76.2127 133.238L77.3514 134.782L79.9876 132.837C80.2729 132.626 80.4276 132.419 80.4516 132.216C80.4626 132.011 80.36 131.762 80.1439 131.469L79.6286 130.77L80.7777 129.922L81.4925 130.891ZM78.7888 125.58C79.086 126.204 79.2141 126.83 79.173 127.46C79.1195 128.085 78.9105 128.655 78.5459 129.17C78.1689 129.681 77.6603 130.089 77.02 130.394C76.3544 130.711 75.7088 130.854 75.0832 130.821C74.4452 130.784 73.8665 130.589 73.3471 130.237C72.8237 129.877 72.4114 129.38 72.1102 128.749C71.7326 127.957 71.626 127.191 71.7902 126.451C71.946 125.715 72.35 125.098 73.0022 124.601L73.7613 126.193C73.4813 126.43 73.3129 126.728 73.2561 127.086C73.1952 127.435 73.2512 127.791 73.4239 128.153C73.5725 128.465 73.7891 128.713 74.0736 128.898C74.3542 129.075 74.6823 129.166 75.0579 129.173C75.4294 129.172 75.8301 129.069 76.2597 128.864C76.5883 128.708 76.8589 128.527 77.0715 128.322C77.2841 128.117 77.4427 127.897 77.5473 127.661C77.6395 127.421 77.6838 127.177 77.68 126.931C77.6763 126.684 77.6182 126.443 77.5058 126.207C77.3893 125.963 77.247 125.762 77.0788 125.605C76.8981 125.442 76.6956 125.332 76.4713 125.274C76.243 125.207 76.0052 125.196 75.758 125.242L74.999 123.649C75.779 123.463 76.5123 123.538 77.199 123.872C77.8773 124.211 78.4072 124.78 78.7888 125.58ZM76.6975 121.093L66.8554 123.27L66.4926 121.63L70.5115 120.741C70.0874 120.595 69.7227 120.351 69.4173 120.008C69.1028 119.666 68.8912 119.249 68.7823 118.757C68.6573 118.192 68.67 117.688 68.8202 117.243C68.9614 116.801 69.2376 116.429 69.6489 116.128C70.0491 115.82 70.5864 115.591 71.2608 115.442L75.2523 114.559L75.6121 116.186L71.7709 117.035C71.1786 117.166 70.7557 117.394 70.5023 117.717C70.2469 118.032 70.1756 118.444 70.2885 118.955C70.361 119.283 70.5086 119.561 70.7311 119.789C70.9444 120.019 71.2186 120.178 71.5536 120.266C71.8795 120.357 72.2566 120.355 72.6849 120.26L76.3347 119.453L76.6975 121.093ZM75.2164 107.079L66.8163 106.24L66.5294 109.109L65.1782 108.974L65.9175 101.577L67.2688 101.712L66.982 104.582L75.3821 105.421L75.2164 107.079ZM76.0064 101.292L66.4569 98.0647L66.9947 96.4731L70.8941 97.7909C70.6063 97.4473 70.4205 97.0496 70.3368 96.5976C70.2442 96.1427 70.2786 95.6765 70.44 95.1991C70.6252 94.6508 70.897 94.2255 71.2554 93.923C71.605 93.6175 72.0337 93.4421 72.5415 93.397C73.0435 93.3401 73.6216 93.4221 74.276 93.6433L78.1488 94.952L77.6154 96.5303L73.8885 95.2709C73.3137 95.0766 72.8342 95.0525 72.4499 95.1985C72.0686 95.3357 71.7943 95.6518 71.627 96.147C71.5194 96.4653 71.5019 96.7795 71.5744 97.0897C71.638 97.397 71.7904 97.675 72.0314 97.924C72.2635 98.1699 72.5874 98.3631 73.0029 98.5035L76.5442 99.7002L76.0064 101.292ZM80.789 90.6496C80.4206 91.2448 79.9694 91.69 79.4355 91.9852C78.8936 92.2755 78.31 92.4027 77.6845 92.3668C77.0591 92.331 76.4409 92.124 75.8298 91.7457C75.1949 91.3528 74.7155 90.886 74.3916 90.3452C74.0726 89.7965 73.9181 89.2125 73.9283 88.5931C73.9433 87.9658 74.1375 87.3506 74.5108 86.7474C74.8743 86.1602 75.3221 85.7293 75.8541 85.4549C76.3862 85.1805 76.9481 85.0618 77.5399 85.0988C78.1237 85.1308 78.6895 85.3163 79.2371 85.6553C79.3164 85.7044 79.4037 85.7584 79.499 85.8173C79.5942 85.8763 79.6885 85.9456 79.7818 86.0254L76.761 90.9062L75.8444 90.3388L77.9884 86.8747C77.5421 86.6204 77.11 86.556 76.692 86.6815C76.2661 86.8021 75.9255 87.0687 75.6701 87.4814C75.4883 87.775 75.3888 88.0866 75.3714 88.4162C75.3541 88.7457 75.4361 89.0654 75.6175 89.3752C75.791 89.6802 76.0801 89.9579 76.4849 90.2084L76.8301 90.4221C77.2031 90.6529 77.5663 90.7844 77.9196 90.8165C78.2779 90.8406 78.6021 90.7779 78.8923 90.6282C79.1795 90.4657 79.4164 90.2336 79.6031 89.9321C79.8094 89.5987 79.9074 89.2807 79.8972 88.978C79.8919 88.6674 79.8021 88.3868 79.6278 88.1363L80.5267 86.684C80.831 87.0259 81.0553 87.4172 81.1997 87.8578C81.3361 88.2935 81.3762 88.7519 81.32 89.233C81.2558 89.7091 81.0788 90.1813 80.789 90.6496ZM87.9686 82.1285L78.99 76.802L80.3903 75.6615L87.6735 80.1479L84.7867 72.0808L86.1653 70.958L89.5534 80.8377L87.9686 82.1285ZM93.4033 77.9363L90.0059 71.7521L91.4783 70.9432L94.8757 77.1274L93.4033 77.9363ZM90.2028 70.366C89.9329 70.5143 89.663 70.5561 89.3931 70.4913C89.127 70.4139 88.9265 70.2525 88.7917 70.0071C88.6524 69.7535 88.6259 69.5018 88.7123 69.252C88.8024 68.9896 88.9824 68.7842 89.2523 68.6359C89.5223 68.4876 89.7881 68.448 90.0498 68.5173C90.3151 68.5738 90.5174 68.7289 90.6568 68.9825C90.7916 69.2279 90.8162 69.4859 90.7306 69.7566C90.6487 70.0145 90.4728 70.2177 90.2028 70.366ZM99.6644 75.4897C99.046 75.7004 98.4426 75.7384 97.8544 75.6037C97.2661 75.4689 96.7447 75.1831 96.2902 74.7464C95.8445 74.3067 95.5073 73.7511 95.2785 73.0797C95.0496 72.4083 94.9833 71.7653 95.0796 71.1507C95.1728 70.5273 95.4112 69.9827 95.7947 69.5167C96.184 69.0389 96.6879 68.6946 97.3063 68.4838C97.8099 68.3122 98.2803 68.2604 98.7176 68.3283C99.1607 68.3843 99.5514 68.547 99.8896 68.8163L98.598 65.0263L100.188 64.4844L103.44 74.0255L102.009 74.5132L101.52 73.6001C101.445 73.8426 101.336 74.0868 101.193 74.3328C101.047 74.5699 100.851 74.7896 100.604 74.992C100.357 75.1943 100.044 75.3602 99.6644 75.4897ZM99.526 73.9986C99.9059 73.8692 100.211 73.6664 100.443 73.3904C100.671 73.1055 100.811 72.7769 100.861 72.4047C100.912 72.0325 100.866 71.6387 100.725 71.2235C100.583 70.8083 100.379 70.4688 100.111 70.2049C99.8441 69.9411 99.5345 69.7705 99.1827 69.6932C98.831 69.6158 98.4652 69.6419 98.0853 69.7714C97.7231 69.8948 97.4263 70.0946 97.195 70.3706C96.9637 70.6467 96.8183 70.9723 96.7588 71.3475C96.7082 71.7198 96.7536 72.1135 96.8952 72.5287C97.0367 72.9439 97.2411 73.2835 97.5085 73.5473C97.7848 73.8081 98.1003 73.9816 98.455 74.0678C98.8068 74.1451 99.1638 74.1221 99.526 73.9986Z" fill="#1A1A1A"/>
<path d="M78.8809 110.955C78.8809 93.2815 93.2077 78.9546 110.881 78.9546C128.554 78.9546 142.881 93.2815 142.881 110.955C142.881 128.628 128.554 142.955 110.881 142.955C93.2077 142.955 78.8809 128.628 78.8809 110.955Z" fill="#1A1A1A"/>
<path d="M104.414 121.877C104.066 121.876 103.724 121.785 103.423 121.612C102.743 121.227 102.32 120.479 102.32 119.668V103.242C102.32 102.428 102.743 101.682 103.423 101.297C103.732 101.12 104.083 101.028 104.439 101.033C104.795 101.037 105.144 101.137 105.449 101.323L119.487 109.726C119.78 109.909 120.021 110.164 120.188 110.466C120.355 110.769 120.443 111.108 120.443 111.454C120.443 111.799 120.355 112.139 120.188 112.441C120.021 112.743 119.78 112.998 119.487 113.181L105.446 121.587C105.135 121.775 104.778 121.875 104.414 121.877Z" fill="#F4C430"/>
</g>
<defs>
<filter id="filter0_d_18919_550989" x="-1.11914" y="-1.04541" width="224" height="224" filterUnits="userSpaceOnUse" color-interpolation-filters="sRGB">
<feFlood flood-opacity="0" result="BackgroundImageFix"/>
<feColorMatrix in="SourceAlpha" type="matrix" values="0 0 0 0 0 0 0 0 0 0 0 0 0 0 0 0 0 0 127 0" result="hardAlpha"/>
<feOffset/>
<feGaussianBlur stdDeviation="18"/>
<feColorMatrix type="matrix" values="0 0 0 0 0.0279104 0 0 0 0 0.19209 0 0 0 0 0.13791 0 0 0 0.32 0"/>
<feBlend mode="normal" in2="BackgroundImageFix" result="effect1_dropShadow_18919_550989"/>
<feBlend mode="normal" in="SourceGraphic" in2="effect1_dropShadow_18919_550989" result="shape"/>
</filter>
</defs>
</svg>
