<svg width="50" height="50" viewBox="0 0 50 50" fill="none" xmlns="http://www.w3.org/2000/svg">
<path fill-rule="evenodd" clip-rule="evenodd" d="M39.2578 40.918C37.5 40.918 35.9375 39.4531 35.9375 37.5977C35.9375 36.6211 37.0117 34.4727 38.2812 32.2266C38.4766 31.9336 38.5742 31.6406 38.6719 31.4453C38.7695 31.25 39.0625 31.0547 39.3555 31.0547C39.6484 31.0547 39.8438 31.25 39.9414 31.4453C40.1367 31.7383 40.332 32.0312 40.5273 32.4219C41.6992 34.668 42.6758 36.6211 42.6758 37.5977C42.5781 39.4531 41.1133 40.918 39.2578 40.918ZM39.2578 33.3008C38.5742 34.5703 37.4023 36.9141 37.4023 37.5977C37.4023 38.6719 38.1836 39.4531 39.2578 39.4531C40.332 39.4531 41.2109 38.5742 41.2109 37.5977C41.1133 36.9141 39.9414 34.4727 39.2578 33.3008Z" fill="#F4C430"/>
<path fill-rule="evenodd" clip-rule="evenodd" d="M29.9805 42.9686C29.6875 42.9686 29.2969 42.6757 29.2969 42.285L27.7344 24.8046C27.6367 23.828 27.5391 22.6561 27.3438 21.4843C27.3438 21.0936 27.5391 20.8007 27.9297 20.703C28.3203 20.6054 28.7109 20.8983 28.7109 21.2889C29.0039 22.4608 29.1016 23.7304 29.1992 24.7069V25.1952L30.7617 42.1874C30.7617 42.578 30.4688 42.871 30.0781 42.871C30.0781 42.9686 29.9805 42.9686 29.9805 42.9686ZM20.3125 42.9686C20.2148 42.9686 20.2148 42.9686 20.2148 42.9686C19.8242 42.871 19.5312 42.578 19.5312 42.1874L21.0938 24.7069C21.1914 23.7304 21.2891 22.4608 21.4844 21.2889C21.582 20.8983 21.9727 20.6054 22.3633 20.703C22.7539 20.8007 22.9492 21.1913 22.9492 21.4843C22.6562 22.6561 22.5586 23.828 22.5586 24.8046L22.4609 25.3905L20.9961 42.3827C20.8984 42.6757 20.6055 42.9686 20.3125 42.9686Z" fill="#F4C430"/>
<path fill-rule="evenodd" clip-rule="evenodd" d="M29.9806 42.9688C29.8829 42.9688 29.6876 42.8711 29.4923 42.7734L25.0977 38.5742L20.8009 42.7734C20.5079 43.0664 20.0196 42.9688 19.7266 42.7734C19.4337 42.4805 19.5313 41.9922 19.7266 41.6992L24.6095 37.0117C24.9024 36.8164 25.2931 36.8164 25.586 37.0117L30.4688 41.6992C30.6642 41.9922 30.6642 42.4805 30.4688 42.7734C30.3712 42.8711 30.1759 42.9688 29.9806 42.9688Z" fill="#F4C430"/>
<path fill-rule="evenodd" clip-rule="evenodd" d="M25.0977 38.2812C24.9023 38.2812 24.707 38.1836 24.6094 38.0859L20.5078 34.1797C20.3125 33.8867 20.3125 33.3984 20.5078 33.2031C20.8008 32.9102 21.2891 32.9102 21.582 33.2031L25.0977 36.6211L28.7109 33.2031C29.0039 32.9102 29.4922 32.9102 29.7852 33.2031C30.0781 33.4961 29.9805 33.8867 29.6875 34.1797L25.5859 38.0859C25.4883 38.1836 25.293 38.2812 25.0977 38.2812ZM29.1016 32.7148C28.9062 32.7148 28.7109 32.6172 28.6133 32.5195L25.0977 29.1992L21.6797 32.5195C21.4844 32.8125 20.9961 32.8125 20.7031 32.5195C20.4102 32.2266 20.4102 31.7383 20.7031 31.4453L24.6094 27.6367C24.9023 27.3438 25.3906 27.3438 25.5859 27.6367L29.4922 31.4453C29.7852 31.7383 29.7852 32.2266 29.4922 32.5195C29.4922 32.6172 29.1992 32.7148 29.1016 32.7148Z" fill="#F4C430"/>
<path fill-rule="evenodd" clip-rule="evenodd" d="M25.0977 28.9062C24.9023 28.9062 24.707 28.8086 24.6094 28.7109L21.2891 25.5859C20.9961 25.293 20.9961 24.8047 21.2891 24.5117C21.582 24.2188 21.9727 24.2188 22.2656 24.5117L25.0977 27.1484L27.9297 24.5117C28.2227 24.2188 28.7109 24.2188 29.0039 24.5117C29.1992 24.8047 29.1992 25.293 28.9062 25.5859L25.5859 28.7109C25.4883 28.8086 25.293 28.9062 25.0977 28.9062Z" fill="#F4C430"/>
<path fill-rule="evenodd" clip-rule="evenodd" d="M7.3242 24.1212C7.22655 24.1212 7.12889 24.0235 6.93358 24.0235C6.83592 23.9258 6.73827 23.7305 6.64061 23.5352L5.66405 19.7266C5.56639 19.336 5.7617 18.9454 6.15233 18.8477L19.3359 15.3321C19.7265 15.2344 20.1172 15.4297 20.2148 15.8204C20.3125 16.211 20.0195 16.6016 19.7265 16.6993L7.12889 20.1172L7.81248 22.461L20.3125 19.1407C20.7031 19.043 21.0937 19.2383 21.1914 19.629C21.289 20.0196 21.0937 20.4102 20.7031 20.5079L7.51951 24.0235C7.42186 24.1212 7.42186 24.1212 7.3242 24.1212ZM38.9648 23.0469C37.4023 23.0469 36.3281 21.5821 35.8398 20.8008C34.8633 19.629 34.082 18.3594 33.5937 17.0899L30.957 17.7735C30.5664 17.8712 30.1758 17.6758 30.0781 17.2852C29.9805 16.8946 30.1758 16.504 30.5664 16.4063L33.789 15.6251C34.082 15.5274 34.4726 15.7227 34.5703 16.0157C35.1562 17.2852 35.9375 18.6524 36.914 20.0196C37.6953 20.9962 38.2812 21.5821 38.9648 21.5821C39.1601 21.5821 39.1601 21.5821 39.3554 21.5821L41.7969 20.8985C42.6758 20.7032 42.8711 19.8243 43.0664 18.3594C43.6523 13.5743 42.5781 9.47272 39.8437 6.05475C38.9648 4.98053 38.2812 4.29693 37.4023 4.49225L34.9609 5.17584C34.082 5.37115 33.8867 6.25006 33.5937 7.7149C33.3984 9.37506 33.3984 10.9376 33.5937 12.3047C33.5937 12.6954 33.3984 13.086 33.0078 13.1837L29.8828 13.9649C29.4922 14.0626 29.1015 13.8672 29.0039 13.4766C28.9062 13.086 29.1992 12.6954 29.4922 12.5977L32.1289 11.9141C31.9336 10.5469 31.9336 9.08209 32.2265 7.51959C32.4219 6.05475 32.7148 4.19928 34.5703 3.80865L37.0117 3.12506C38.8672 2.63678 40.039 4.10162 40.9179 5.17584C43.9453 8.88678 45.1172 13.379 44.5312 18.5547C44.4336 19.629 44.1406 21.7774 42.1875 22.2657L39.7461 22.9493C39.6484 22.9493 39.6484 22.9493 39.6484 22.9493C39.4531 23.0469 39.2578 23.0469 39.0625 23.0469C38.9648 23.0469 38.9648 23.0469 38.9648 23.0469Z" fill="#F4C430"/>
<path fill-rule="evenodd" clip-rule="evenodd" d="M39.2578 30.3711C38.8672 30.3711 38.5742 30.0781 38.5742 29.6875V22.2656C38.5742 21.875 38.8672 21.582 39.2578 21.582C39.6484 21.582 40.0391 21.875 40.0391 22.2656V29.6875C39.9414 30.0781 39.6484 30.3711 39.2578 30.3711Z" fill="#F4C430"/>
<path fill-rule="evenodd" clip-rule="evenodd" d="M9.66797 36.5234C9.27734 36.5234 8.88672 36.2305 8.88672 35.8398V22.7539C8.88672 22.3633 9.27734 21.9727 9.66797 21.9727C10.0586 21.9727 10.3516 22.3633 10.3516 22.7539V35.8398C10.3516 36.2305 10.0586 36.5234 9.66797 36.5234Z" fill="#F4C430"/>
<path fill-rule="evenodd" clip-rule="evenodd" d="M11.5234 42.9688C11.0352 42.9688 10.7422 42.6758 10.7422 42.1875V36.5234H8.49609V42.2852C8.49609 42.6758 8.10547 42.9688 7.71484 42.9688C7.32422 42.9688 7.03125 42.6758 7.03125 42.2852V35.8398C7.03125 35.3516 7.32422 35.0586 7.71484 35.0586H11.4258C11.8164 35.0586 12.207 35.3516 12.207 35.8398V42.1875C12.207 42.6758 11.9141 42.9688 11.5234 42.9688Z" fill="#F4C430"/>
<path fill-rule="evenodd" clip-rule="evenodd" d="M25.0977 22.9492C21.582 22.9492 18.75 20.1172 18.75 16.6016C18.75 13.0859 21.582 10.2539 25.0977 10.2539C28.6133 10.2539 31.4453 13.0859 31.4453 16.6016C31.4453 20.1172 28.6133 22.9492 25.0977 22.9492ZM25.0977 11.6211C22.3633 11.6211 20.2148 13.7695 20.2148 16.5039C20.2148 19.2383 22.3633 21.4844 25.0977 21.4844C27.832 21.4844 29.9805 19.2383 29.9805 16.5039C29.9805 13.7695 27.832 11.6211 25.0977 11.6211Z" fill="#F4C430"/>
<path fill-rule="evenodd" clip-rule="evenodd" d="M44.7266 42.9688C44.3359 42.9688 44.043 42.6758 44.043 42.1875V30.3711H34.4727V42.2852C34.4727 42.6758 34.1797 42.9688 33.7891 42.9688C33.3984 42.9688 33.0078 42.6758 33.0078 42.2852V29.6875C33.0078 29.2969 33.3984 28.9062 33.7891 28.9062H44.7266C45.1172 28.9062 45.5078 29.2969 45.5078 29.6875V42.2852C45.5078 42.6758 45.1172 42.9688 44.7266 42.9688Z" fill="#F4C430"/>
<path fill-rule="evenodd" clip-rule="evenodd" d="M47.2656 46.9727H2.73438C1.26953 46.9727 0 45.8008 0 44.2383C0 42.7734 1.26953 41.5039 2.73438 41.5039H47.2656C48.7305 41.5039 50 42.7734 50 44.2383C50 45.8008 48.7305 46.9727 47.2656 46.9727ZM2.73438 42.9688C2.05078 42.9688 1.46484 43.5547 1.46484 44.2383C1.46484 45.0195 2.05078 45.5078 2.73438 45.5078H47.2656C47.9492 45.5078 48.5352 45.0195 48.5352 44.2383C48.5352 43.5547 47.9492 42.9688 47.2656 42.9688H2.73438Z" fill="#F4C430"/>
<path fill-rule="evenodd" clip-rule="evenodd" d="M25.0977 19.8242C23.3398 19.8242 21.875 18.3594 21.875 16.6016C21.875 14.8438 23.3398 13.3789 25.0977 13.3789C26.8555 13.3789 28.3203 14.8438 28.3203 16.6016C28.3203 18.3594 26.9531 19.8242 25.0977 19.8242ZM25.0977 14.7461C24.1211 14.7461 23.3398 15.5273 23.3398 16.5039C23.3398 17.4805 24.1211 18.3594 25.0977 18.3594C26.0742 18.3594 26.9531 17.4805 26.9531 16.5039C26.9531 15.5273 26.0742 14.7461 25.0977 14.7461Z" fill="#F4C430"/>
</svg>
