<svg width="36" height="36" viewBox="0 0 36 36" fill="none" xmlns="http://www.w3.org/2000/svg">
<g clip-path="url(#clip0_18919_548221)">
<path d="M36 26.9071V0.556641H0V26.9071H12.2475V31.3607H9.86217L7.82093 35.4432H28.1791L26.1379 31.3607H23.3815V26.9071H36ZM1.1134 1.67004H34.8866V11.3382L31.4614 9.58997C31.5172 9.37186 31.5464 9.14391 31.5464 8.90716C31.5464 7.37231 30.2978 6.12363 28.7629 6.12363C27.228 6.12363 25.9793 7.37224 25.9793 8.90716C25.9793 9.20149 26.0282 9.49554 26.1219 9.77763L23.0581 11.5233C22.5378 10.9298 21.7776 10.5772 20.9689 10.5772C20.0912 10.5772 19.2702 10.9976 18.7538 11.6782L15.135 9.94976C15.1885 9.73186 15.2165 9.50616 15.2165 9.27827C15.2165 7.74342 13.9679 6.49474 12.4329 6.49474C10.8981 6.49474 9.64941 7.74335 9.64941 9.27827C9.64941 9.51994 9.68358 9.76272 9.74749 9.99862L1.1134 14.3157V1.67004ZM30.433 8.90709C30.433 9.16521 30.3787 9.40181 30.2716 9.61071L30.2623 9.62984C29.9945 10.2054 29.406 10.5773 28.7629 10.5773C28.1643 10.5773 27.6105 10.256 27.3173 9.73875L27.317 9.73819C27.1704 9.47993 27.0928 9.19263 27.0928 8.90716C27.0928 7.98628 27.8421 7.23703 28.7629 7.23703C29.6838 7.23703 30.433 7.98628 30.433 8.90709ZM22.6391 13.3608C22.6391 14.2816 21.8899 15.0309 20.969 15.0309C20.0481 15.0309 19.2989 14.2816 19.2989 13.3608C19.2989 13.1089 19.3549 12.8663 19.4676 12.6349C19.7403 12.0612 20.3295 11.6907 20.969 11.6907C21.5676 11.6907 22.1214 12.012 22.4146 12.5292L22.4149 12.5298C22.5616 12.7879 22.6391 13.0752 22.6391 13.3608ZM14.1031 9.27827C14.1031 9.56023 14.0343 9.8348 13.9032 10.0743C13.6107 10.6134 13.0473 10.9484 12.4329 10.9484C11.7953 10.9484 11.2242 10.5949 10.9426 10.026L10.9415 10.0239C10.8246 9.79015 10.7628 9.53217 10.7628 9.27827C10.7628 8.35739 11.512 7.60814 12.4329 7.60814C13.3539 7.60814 14.1031 8.35739 14.1031 9.27827ZM1.1134 15.5604L10.2435 10.9954C10.7621 11.6634 11.56 12.0617 12.433 12.0617C13.3161 12.0617 14.1354 11.6452 14.6561 10.9548L18.2711 12.6813C18.2149 12.9018 18.1856 13.1289 18.1856 13.3607C18.1856 14.8955 19.4342 16.1442 20.9691 16.1442C22.504 16.1442 23.7526 14.8957 23.7526 13.3608C23.7526 13.0664 23.7037 12.7724 23.6101 12.4903L26.6738 10.7446C27.1942 11.3381 27.9544 11.6906 28.763 11.6906C29.6416 11.6906 30.4597 11.2724 30.9749 10.5916L34.8867 12.5882V19.8556H1.1134V15.5604ZM25.4497 32.4742L26.3776 34.3298H9.62241L10.5503 32.4742H20.598V31.3608H13.3609V26.9072H22.268V32.4742H25.4497ZM1.1134 25.7937V20.9689H34.8866V25.7937H1.1134Z" fill="#1A1A1A"/>
<path d="M14.7999 3.52588L13.1523 5.17344L13.9396 5.96087L15.261 4.63928H18.7418V3.52588H14.7999Z" fill="#1A1A1A"/>
<path d="M25.4224 3.52588H20.2266V4.63928H25.4224V3.52588Z" fill="#1A1A1A"/>
<path d="M24.309 5.75244H20.2266V6.86584H24.309V5.75244Z" fill="#1A1A1A"/>
<path d="M21.7111 7.97949H20.2266V9.09289H21.7111V7.97949Z" fill="#1A1A1A"/>
<path d="M21.3405 22.8247H14.6602V23.9381H21.3405V22.8247Z" fill="#1A1A1A"/>
<path d="M23.9376 22.8247H22.4531V23.9381H23.9376V22.8247Z" fill="#1A1A1A"/>
<path d="M13.546 22.8247H12.0615V23.9381H13.546V22.8247Z" fill="#1A1A1A"/>
</g>
<defs>
<clipPath id="clip0_18919_548221">
<rect width="36" height="36" fill="white"/>
</clipPath>
</defs>
</svg>
