<svg width="50" height="50" viewBox="0 0 50 50" fill="none" xmlns="http://www.w3.org/2000/svg">
<rect width="50" height="50" rx="25" fill="#F4C430"/>
<path fill-rule="evenodd" clip-rule="evenodd" d="M28.047 37.5391H21.9532C21.836 37.5391 21.7189 37.5391 21.6017 37.4219C21.5431 37.3047 21.4845 37.2461 21.5431 37.1289L22.5392 26.2305C22.5978 25.6445 22.6564 24.8242 22.7735 23.9453C22.8321 23.7109 23.0665 23.5352 23.3009 23.5938C23.5353 23.6523 23.6524 23.8867 23.5939 24.0625C23.4767 24.9414 23.4181 25.7031 23.3595 26.3477V26.5234L22.3634 36.7188H27.5782L26.6407 26.3477C26.6407 25.7617 26.5235 24.9414 26.4064 24.1211C26.3478 23.8867 26.5235 23.6523 26.7579 23.6523C26.9923 23.5938 27.2267 23.7695 27.2267 23.9453C27.4024 24.8242 27.461 25.7031 27.5196 26.2891V26.4063L28.5157 37.1289C28.5157 37.2461 28.4571 37.3633 28.3985 37.4219C28.2814 37.5391 28.1642 37.5391 28.047 37.5391Z" fill="#1A1A1A"/>
<path fill-rule="evenodd" clip-rule="evenodd" d="M28.0468 37.5391C27.9882 37.5391 27.8124 37.5391 27.7538 37.4219L24.9999 34.7852L22.246 37.4219C22.0702 37.5977 21.7773 37.5977 21.6015 37.4219C21.4257 37.2461 21.4843 37.0117 21.6601 36.8359L24.707 33.8477C24.8827 33.6719 25.1171 33.6719 25.2929 33.8477L28.3984 36.8359C28.5742 37.0117 28.5742 37.2461 28.3984 37.4219C28.2812 37.5391 28.164 37.5391 28.0468 37.5391Z" fill="#1A1A1A"/>
<path fill-rule="evenodd" clip-rule="evenodd" d="M25 34.6094C24.8828 34.6094 24.7656 34.5508 24.707 34.4922L22.1289 32.0312C21.9531 31.8555 21.9531 31.5625 22.1289 31.3867C22.3047 31.2109 22.5977 31.2109 22.7734 31.3867L25.0586 33.6133L27.3438 31.3867C27.5195 31.2109 27.7539 31.2109 27.9297 31.3867C28.1055 31.5625 28.1055 31.8555 27.9297 32.0312L25.293 34.4922C25.2344 34.6094 25.1172 34.6094 25 34.6094ZM27.5195 31.0938C27.4023 31.0938 27.2852 31.0352 27.2266 30.9766L25 28.8672L22.832 30.9766C22.6562 31.1523 22.4219 31.1523 22.2461 30.9766C22.0703 30.8008 22.0703 30.5664 22.2461 30.3906L24.707 27.9883C24.8828 27.8125 25.1172 27.8125 25.293 27.9883L27.7539 30.3906C27.9297 30.5664 27.9297 30.8008 27.8125 30.9766C27.6953 31.0352 27.5781 31.0938 27.5195 31.0938Z" fill="#1A1A1A"/>
<path fill-rule="evenodd" clip-rule="evenodd" d="M25 28.75C24.8828 28.75 24.7656 28.6914 24.707 28.5742L22.5977 26.582C22.4219 26.4062 22.4219 26.1719 22.5977 25.9961C22.7734 25.8203 23.0078 25.8203 23.1836 25.9961L25 27.6953L26.8164 25.9961C26.9336 25.8203 27.2266 25.8203 27.4023 25.9961C27.5781 26.1719 27.5195 26.4062 27.4023 26.582L25.293 28.5742C25.2344 28.6914 25.1172 28.75 25 28.75Z" fill="#1A1A1A"/>
<path fill-rule="evenodd" clip-rule="evenodd" d="M13.75 25.7031C13.5742 25.7031 13.3984 25.5274 13.3398 25.3516L12.6953 22.9492C12.6953 22.8321 12.6953 22.7149 12.7539 22.6563C12.8125 22.5391 12.8711 22.4805 13.0469 22.4219L21.3086 20.1953C21.543 20.1953 21.7773 20.3125 21.8359 20.4883C21.8945 20.7227 21.7773 20.9571 21.543 21.0156L13.6328 23.125L14.1016 24.7656L22.0117 22.6563C22.1875 22.5977 22.4805 22.7149 22.4805 22.9492C22.5977 23.125 22.4219 23.3594 22.1875 23.418L13.9258 25.6446C13.8672 25.7031 13.8086 25.7031 13.75 25.7031ZM33.7305 25C32.8516 25 32.207 24.2969 31.7383 23.6524C31.1523 22.8906 30.6836 22.0703 30.332 21.25L28.6914 21.7188C28.457 21.7774 28.2227 21.6016 28.1641 21.4258C28.1055 21.1914 28.2227 20.9571 28.457 20.8985L30.4492 20.3711C30.6836 20.3125 30.8594 20.4297 30.9766 20.6055C31.3281 21.4844 31.7969 22.3047 32.4414 23.125C32.9102 23.7696 33.3203 24.1797 33.7891 24.1797C33.7891 24.1797 33.9062 24.1797 33.9648 24.1211L35.5469 23.711C36.0156 23.5938 36.25 23.125 36.3672 22.1289C36.7188 19.0235 36.0742 16.5039 34.3164 14.336C33.7305 13.6328 33.3203 13.1641 32.7344 13.3399L31.1523 13.75C30.625 13.8672 30.5078 14.3946 30.332 15.3906C30.2148 16.3867 30.1562 17.4414 30.332 18.3203C30.332 18.5547 30.2148 18.7305 29.9805 18.7891L27.9883 19.3164C27.8125 19.375 27.5195 19.1992 27.4609 19.0235C27.4023 18.7891 27.5195 18.5547 27.7539 18.4375L29.3945 18.0274C29.2773 17.1485 29.3359 16.211 29.4531 15.2735C29.5703 14.4531 29.7461 13.2227 30.918 12.9297L32.5 12.5196C33.6133 12.2266 34.375 13.0469 34.9023 13.8086C36.8359 16.0938 37.5391 18.9063 37.1875 22.1875C37.1289 22.8321 36.9531 24.2383 35.7227 24.5313L34.1406 24.9414C34.0234 25 33.8477 25 33.7305 25Z" fill="#1A1A1A"/>
<path fill-rule="evenodd" clip-rule="evenodd" d="M39.5898 37.5391H10.4102C10.1758 37.5391 10 37.3633 10 37.1289C10 36.8945 10.1758 36.7188 10.4102 36.7188H39.5898C39.8242 36.7188 40 36.8945 40 37.1289C40 37.3633 39.8242 37.5391 39.5898 37.5391Z" fill="#1A1A1A"/>
<path fill-rule="evenodd" clip-rule="evenodd" d="M33.9062 33.5547C33.6719 33.5547 33.4961 33.3789 33.4961 33.0859V24.5898C33.4961 24.3555 33.6719 24.1211 33.9062 24.1211C34.1406 24.1211 34.375 24.3555 34.375 24.5898V33.1445C34.375 33.3789 34.1406 33.5547 33.9062 33.5547Z" fill="#1A1A1A"/>
<path fill-rule="evenodd" clip-rule="evenodd" d="M34.4922 37.5391H33.4375C33.2031 37.5391 33.0273 37.4219 33.0273 37.2461L32.0312 33.2031C32.0312 33.0859 32.0312 32.9688 32.0898 32.8516C32.1484 32.793 32.3242 32.6758 32.4414 32.6758H35.4883C35.6055 32.6758 35.7227 32.7344 35.7812 32.8516C35.8984 32.9688 35.957 33.0859 35.8984 33.2031L34.9023 37.2461C34.8438 37.4219 34.668 37.5391 34.4922 37.5391ZM33.7891 36.7188H34.1406L34.9023 33.5547H32.9688L33.7891 36.7188Z" fill="#1A1A1A"/>
<path fill-rule="evenodd" clip-rule="evenodd" d="M15.2148 33.4961C14.9805 33.4961 14.8047 33.3203 14.8047 33.0859V24.8828C14.8047 24.6484 14.9805 24.4141 15.2148 24.4141C15.5078 24.4141 15.6836 24.6484 15.6836 24.8828V33.0859C15.625 33.3203 15.4492 33.4961 15.2148 33.4961Z" fill="#1A1A1A"/>
<path fill-rule="evenodd" clip-rule="evenodd" d="M16.3867 37.5391H14.043C13.8086 37.5391 13.6328 37.3633 13.6328 37.1289V33.0859C13.6328 32.8516 13.8086 32.6172 14.043 32.6172H16.3867C16.6797 32.6172 16.8555 32.8516 16.8555 33.0859V37.1289C16.7969 37.3633 16.6211 37.5391 16.3867 37.5391ZM14.5117 36.7188H15.9766V33.4961H14.5117V36.7188Z" fill="#1A1A1A"/>
<path fill-rule="evenodd" clip-rule="evenodd" d="M25 23.3594C23.6523 23.3594 22.5977 22.3047 22.5977 20.957C22.5977 19.6094 23.6523 18.5547 25 18.5547C26.3477 18.5547 27.4023 19.6094 27.4023 20.957C27.4023 22.3047 26.3477 23.3594 25 23.3594ZM25 19.375C24.1211 19.375 23.418 20.0781 23.418 20.957C23.418 21.7773 24.1211 22.4805 25 22.4805C25.8203 22.4805 26.5234 21.7773 26.5234 20.957C26.5234 20.0781 25.8789 19.375 25 19.375Z" fill="#1A1A1A"/>
<path fill-rule="evenodd" clip-rule="evenodd" d="M25 24.9414C22.7734 24.9414 21.0156 23.1836 21.0156 20.957C21.0156 18.7305 22.7734 16.9727 25 16.9727C27.168 16.9727 28.9844 18.7305 28.9844 20.957C28.9844 23.1836 27.2266 24.9414 25 24.9414ZM25 17.8516C23.2422 17.8516 21.8359 19.2578 21.8359 20.957C21.8359 22.7148 23.2422 24.1211 25 24.1211C26.6992 24.1211 28.1055 22.7148 28.1055 20.957C28.1055 19.2578 26.6992 17.8516 25 17.8516Z" fill="#1A1A1A"/>
</svg>
