<svg width="50" height="50" viewBox="0 0 50 50" fill="none" xmlns="http://www.w3.org/2000/svg">
<rect width="50" height="50" rx="25" fill="#F4C430" fill-opacity="0.2"/>
<path fill-rule="evenodd" clip-rule="evenodd" d="M24.048 27.3989C23.8957 27.3989 23.7434 27.3228 23.6216 27.2162L21.9461 25.5255C21.3673 24.9619 22.2355 24.109 22.7991 24.6725L24.048 25.9215L27.1857 22.7838C27.7645 22.2203 28.6175 23.0732 28.0539 23.6368L24.4898 27.2162C24.3679 27.3228 24.2156 27.3989 24.048 27.3989ZM24.9924 38C24.9467 38 24.8858 37.9848 24.8401 37.9695C19.4634 36.553 16.8131 33.2021 15.5337 30.628C14.1476 27.8559 14.041 25.4189 14.041 25.3122V14.3304C14.041 13.8735 14.5437 13.5688 14.9549 13.8125C18.6866 15.9602 23.256 13.2337 24.6116 12.1371C24.8401 11.9543 25.1599 11.9543 25.3732 12.1371C26.744 13.2337 31.3134 15.9602 35.0451 13.8125C35.4411 13.5688 35.959 13.8735 35.959 14.3304V25.3122C35.959 25.4189 35.8371 27.8559 34.4663 30.628C33.1869 33.2021 30.5366 36.553 25.1599 37.9695C25.099 37.9848 25.0533 38 24.9924 38ZM15.2595 25.297C15.2748 25.4493 15.4118 27.6731 16.6456 30.1406C18.321 33.461 21.1236 35.7001 24.9924 36.751C28.8612 35.7001 31.679 33.461 33.3544 30.1406C34.5882 27.6731 34.7253 25.4646 34.7405 25.297V15.3052C31.024 16.7979 27.0334 14.8178 24.9924 13.3708C22.86 14.894 18.8998 16.7827 15.2595 15.3052V25.297ZM24.9924 31.024C21.6719 31.024 18.976 28.3128 18.976 24.9924C18.976 21.6719 21.6719 18.976 24.9924 18.976C28.3128 18.976 31.024 21.6719 31.024 24.9924C31.024 28.3128 28.3128 31.024 24.9924 31.024ZM24.9924 20.1945C22.3421 20.1945 20.1945 22.3421 20.1945 24.9924C20.1945 27.6426 22.3421 29.8055 24.9924 29.8055C27.6427 29.8055 29.8055 27.6426 29.8055 24.9924C29.8055 22.3421 27.6427 20.1945 24.9924 20.1945Z" fill="#1A1A1A"/>
</svg>
