<svg width="28" height="28" viewBox="0 0 28 28" fill="none" xmlns="http://www.w3.org/2000/svg">
<g clip-path="url(#clip0_18136_49188)">
<path fill-rule="evenodd" clip-rule="evenodd" d="M7.07584 25.9249C6.81202 25.9249 6.60333 25.7163 6.60333 25.4524V24.8618C6.60333 24.598 6.81202 24.3893 7.07584 24.3893C7.33571 24.3893 7.54834 24.598 7.54834 24.8618V25.4524C7.54834 25.7163 7.33571 25.9249 7.07584 25.9249ZM20.4399 27.9134H0.606421C0.33473 27.9134 0.114226 27.6732 0.133914 27.4015C0.169352 26.9566 0.456794 23.2513 0.480419 23.1411C0.551296 22.7867 0.921426 22.1291 1.87038 21.9126L4.54792 21.2668L4.89443 19.7981C4.0636 18.7625 3.91791 17.7309 3.89429 17.3923C3.01227 15.4156 3.19734 13.7067 4.39829 12.6987C4.68967 12.4585 5.44962 11.8679 6.26076 11.6513C7.5444 11.3048 9.11549 11.4426 9.92663 12.4152C10.3637 12.9428 10.2456 13.3129 10.6433 13.7854C11.4623 14.758 10.7929 16.2228 10.3046 17.2899C10.2692 17.3647 10.2338 17.4395 10.2023 17.5104C10.1747 17.8293 10.0172 18.7743 9.19424 19.7981L9.54075 21.2668L12.2222 21.9126C12.549 21.9874 12.8089 22.1173 13.0097 22.267V17.7703C13.0097 17.5104 13.2224 17.2978 13.4822 17.2978H19.9674V12.0569C19.9674 11.797 20.1761 11.5843 20.4399 11.5843H27.3937C27.6575 11.5843 27.8662 11.797 27.8662 12.0569V27.4409C27.8662 27.7008 27.6575 27.9134 27.3937 27.9134H20.4399ZM20.9124 17.7663V17.7703V26.9684H26.9211V12.5294H20.9124V17.7663ZM13.9548 26.9684H19.9674V18.2428H13.9548V26.9684ZM23.6057 8.61149C21.255 8.61149 19.3453 6.69784 19.3453 4.35105C19.3453 2.00032 21.255 0.0866699 23.6057 0.0866699C25.9564 0.0866699 27.8662 2.00032 27.8662 4.35105C27.8662 6.69784 25.9564 8.61149 23.6057 8.61149ZM23.6057 1.03168C21.7787 1.03168 20.2903 2.52008 20.2903 4.35105C20.2903 6.17808 21.7787 7.66648 23.6057 7.66648C25.4327 7.66648 26.9211 6.17808 26.9211 4.35105C26.9211 2.52008 25.4327 1.03168 23.6057 1.03168ZM22.9915 5.93001C22.8694 5.93001 22.7473 5.88276 22.6568 5.78826L21.6763 4.80781C21.4912 4.62274 21.4912 4.32349 21.6763 4.13842C21.8574 3.95729 22.1567 3.95729 22.3418 4.13842L22.9915 4.78812L24.8697 2.9099C25.0547 2.72484 25.354 2.72484 25.5351 2.9099C25.7202 3.09497 25.7202 3.39422 25.5351 3.57929L23.3262 5.78826C23.2316 5.88276 23.1096 5.93001 22.9915 5.93001ZM18.6286 14.2422H15.2935C15.0336 14.2422 14.821 14.0335 14.821 13.7697V10.4543H13.6279C13.2224 10.4543 13.0058 9.97389 13.2736 9.67069L16.6047 5.88276C16.7898 5.67013 17.1284 5.67013 17.3174 5.88276L20.6329 9.65101C20.9085 9.95026 20.7274 10.4543 20.2942 10.4543H19.1011V13.7697C19.1011 14.0335 18.8885 14.2422 18.6286 14.2422ZM15.766 13.2972H18.1561V9.98176C18.1561 9.72188 18.3648 9.50925 18.6286 9.50925H19.2468L16.9591 6.91046L14.6714 9.50925H15.2935C15.5534 9.50925 15.766 9.72188 15.766 9.98176V13.2972ZM13.0019 8.39492H0.610359C0.35048 8.39492 0.137852 8.1823 0.137852 7.92242C0.137852 7.66254 0.35048 7.44991 0.610359 7.44991H0.740299V3.53204C0.740299 3.27216 0.952927 3.05953 1.21281 3.05953H3.61866C3.88247 3.05953 4.0951 3.27216 4.0951 3.53204V7.44991H5.13068V2.18933C5.13068 1.92551 5.34331 1.71682 5.60319 1.71682H8.00904C8.27285 1.71682 8.48154 1.92551 8.48154 2.18933V7.44991H9.52106V0.559177C9.52106 0.299298 9.72975 0.0866699 9.99357 0.0866699H12.3994C12.6593 0.0866699 12.8719 0.299298 12.8719 0.559177V7.44991H13.0019C13.2617 7.44991 13.4744 7.66254 13.4744 7.92242C13.4744 8.1823 13.2617 8.39492 13.0019 8.39492ZM1.68531 7.44991H3.14615V4.00454H1.68531V7.44991ZM6.07569 7.44991H7.53653V2.66184H6.07569V7.44991ZM10.4661 7.44991H11.9269V1.03168H10.4661V7.44991ZM5.46931 21.4716L7.04433 22.7001L8.61542 21.4716L8.38704 20.4911C7.49715 21.0542 6.59152 21.0542 5.70163 20.4951L5.46931 21.4716ZM1.1183 26.9684H2.61458V26.3108H1.16949L1.1183 26.9684ZM3.55959 26.9684H10.5291V25.2241C10.5291 24.9642 10.7417 24.7516 11.0016 24.7516C11.2615 24.7516 11.4741 24.9642 11.4741 25.2241V25.3658H12.8404L12.679 23.3183C12.6475 23.2317 12.5097 22.9482 12.0057 22.834L9.25724 22.1725L7.33571 23.6727C7.16246 23.8065 6.92227 23.8065 6.75296 23.6727L4.83143 22.1725L2.08694 22.83C1.579 22.9482 1.44118 23.2317 1.40968 23.3183L1.24431 25.3658H2.61458V25.2241C2.61458 24.9642 2.82327 24.7516 3.08709 24.7516C3.34696 24.7516 3.55959 24.9642 3.55959 25.2241V26.9684ZM11.4741 26.9684H12.9704L12.9192 26.3108H11.4741V26.9684ZM4.84718 17.4238C4.88655 17.7348 5.04405 18.5066 5.68588 19.2705C5.92607 19.5422 6.54033 19.9792 7.03252 19.9674H7.07977C7.56016 19.9674 8.1626 19.5422 8.40279 19.2705C9.14699 18.3845 9.24937 17.5773 9.26118 17.4159C9.00524 15.7424 8.38704 14.9628 8.04448 14.9628C7.96966 14.9628 7.88304 15.0022 7.79641 15.0848C7.31209 15.5337 6.85139 15.7503 6.37889 15.7503C6.04419 15.7503 5.804 15.6479 5.60712 15.5692C5.58744 15.6164 5.56381 15.6834 5.54019 15.7779C5.35512 16.4787 5.11887 17.03 4.84718 17.4238ZM7.55228 12.4231C6.58364 12.4231 5.83944 12.7262 5.00862 13.4232C4.15416 14.1398 4.21323 15.2542 4.44161 16.1204C4.50855 15.9432 4.57155 15.7464 4.62667 15.5337C4.70149 15.2463 4.87868 14.5808 5.50081 14.5808C6.11507 14.5808 6.28832 15.1951 7.15459 14.3918C7.4184 14.1477 7.72947 14.0178 8.04448 14.0178C8.80836 14.0178 9.45806 14.7108 9.86757 15.896C10.0841 15.3014 10.1944 14.7186 9.91875 14.3918C9.41081 13.7854 9.48956 13.3681 9.19818 13.0216C8.88318 12.6396 8.28073 12.4231 7.55228 12.4231Z" fill="#1A1A1A"/>
</g>
<defs>
<clipPath id="clip0_18136_49188">
<rect width="28" height="28" fill="white"/>
</clipPath>
</defs>
</svg>
