<svg width="26" height="26" viewBox="0 0 26 26" fill="none" xmlns="http://www.w3.org/2000/svg">
<g clip-path="url(#clip0_18136_49172)">
<path d="M24.7812 11.3749H23.8375L23.1562 9.67173V2.77229C23.1562 2.40616 22.9388 2.07638 22.6022 1.93211L20.0663 0.845292C19.964 0.801569 19.8484 0.801569 19.7462 0.845292L17.2102 1.93216C16.8737 2.07638 16.6562 2.40616 16.6562 2.77229V9.67173L15.975 11.3749H14.2188C13.9944 11.3749 13.8125 11.5568 13.8125 11.7812V15.6863L12.8701 16.0004L12.5935 7.70518C12.5862 7.48616 12.4066 7.31244 12.1875 7.31244H9.75C9.53093 7.31244 9.35127 7.48616 9.34395 7.70513L9.07679 15.7195L6.90625 16.3874V15.4374C6.90625 15.3085 6.84506 15.1872 6.74136 15.1106C6.63767 15.034 6.50366 15.0112 6.38056 15.0491L5.53455 15.3094L5.28105 7.70513C5.27373 7.48616 5.09407 7.31244 4.875 7.31244H2.4375C2.21843 7.31244 2.03877 7.48616 2.03145 7.70513L1.73905 16.4773L1.09926 16.6741C0.92884 16.7266 0.8125 16.8841 0.8125 17.0624V18.6874C0.8125 18.8164 0.873691 18.9376 0.977387 19.0143C1.04812 19.0665 1.13288 19.0937 1.21875 19.0937V24.7812C1.21875 25.0055 1.40065 25.1874 1.625 25.1874H24.7812C25.0056 25.1874 25.1875 25.0055 25.1875 24.7812V11.7812C25.1875 11.5568 25.0056 11.3749 24.7812 11.3749ZM22.9625 11.3749H20.3125V10.1562H22.475L22.9625 11.3749ZM17.4688 2.77229C17.4688 2.73161 17.4929 2.695 17.5303 2.67895L19.9062 1.66069L22.2822 2.6789C22.3196 2.69495 22.3438 2.73161 22.3438 2.77229V3.24994H17.4688V2.77229ZM17.4688 4.06244H22.3438V4.87494H17.4688V4.06244ZM17.4688 5.68744H22.3438V7.71869H17.4688V5.68744ZM17.4688 8.53119H22.3438V9.34369H17.4688V8.53119ZM17.3375 10.1562H19.5V11.3749H16.85L17.3375 10.1562ZM10.1429 8.12494H11.7946L11.8487 9.74994H10.0888L10.1429 8.12494ZM10.0617 10.5624H11.8758L12.066 16.2684L11.7812 16.3634V15.4374C11.7812 15.3085 11.7201 15.1872 11.6164 15.1106C11.5127 15.034 11.3787 15.0112 11.2556 15.0491L9.89823 15.4667L10.0617 10.5624ZM6.5 17.3625L10.9688 15.9875V16.6342L10.8403 16.677C10.7387 16.7109 10.6578 16.7824 10.6099 16.8728L6.5 18.1374V17.3625ZM2.83045 8.12494H4.48205L4.53624 9.74994H2.77626L2.83045 8.12494ZM2.7492 10.5624H4.5633L4.72982 15.557L2.56044 16.2245L2.7492 10.5624ZM1.625 17.3625L6.09375 15.9875V16.6374L5.97426 16.6742C5.86859 16.7067 5.78383 16.7797 5.73463 16.8729L1.625 18.1374V17.3625ZM15.0312 24.3749H2.03125V18.8625L5.6875 17.7375V18.6874C5.6875 18.8164 5.74869 18.9376 5.85239 19.0143C5.92313 19.0665 6.00793 19.0937 6.09375 19.0937C6.13377 19.0937 6.17404 19.0878 6.21319 19.0757L10.5625 17.7375V18.6874C10.5625 18.818 10.6253 18.9406 10.7312 19.017C10.8013 19.0675 10.8846 19.0937 10.9688 19.0937C11.0119 19.0937 11.0552 19.0868 11.0972 19.0729L15.0312 17.7615V24.3749ZM15.4375 16.7696L11.375 18.1238V17.3552L15.4375 16.0011V16.7696ZM24.375 24.3749H15.8438V21.9374H16.6562C16.8806 21.9374 17.0625 21.7555 17.0625 21.5312V19.0937C17.0625 18.8693 16.8806 18.6874 16.6562 18.6874H15.8438V17.4907L15.9722 17.4479C16.1381 17.3926 16.25 17.2373 16.25 17.0624V15.4374C16.25 15.3069 16.1872 15.1842 16.0813 15.1079C15.9754 15.0315 15.8392 15.0108 15.7153 15.052L14.625 15.4154V13.8124H24.375V24.3749ZM15.8438 21.1249V19.4999H16.25V21.1249H15.8438ZM24.375 12.9999H14.625V12.1874H24.375V12.9999Z" fill="#1A1A1A"/>
<path d="M21.5312 17.875H23.1562C23.3806 17.875 23.5625 17.6931 23.5625 17.4688V15.0312C23.5625 14.8069 23.3806 14.625 23.1562 14.625H21.5312C21.3069 14.625 21.125 14.8069 21.125 15.0312V17.4688C21.125 17.6931 21.3069 17.875 21.5312 17.875ZM21.9375 15.4375H22.75V17.0625H21.9375V15.4375Z" fill="#1A1A1A"/>
<path d="M21.5312 21.9375H23.1562C23.3806 21.9375 23.5625 21.7556 23.5625 21.5312V19.0938C23.5625 18.8694 23.3806 18.6875 23.1562 18.6875H21.5312C21.3069 18.6875 21.125 18.8694 21.125 19.0938V21.5312C21.125 21.7556 21.3069 21.9375 21.5312 21.9375ZM21.9375 19.5H22.75V21.125H21.9375V19.5Z" fill="#1A1A1A"/>
<path d="M18.2812 17.875H19.9062C20.1306 17.875 20.3125 17.6931 20.3125 17.4688V15.0312C20.3125 14.8069 20.1306 14.625 19.9062 14.625H18.2812C18.0569 14.625 17.875 14.8069 17.875 15.0312V17.4688C17.875 17.6931 18.0569 17.875 18.2812 17.875ZM18.6875 15.4375H19.5V17.0625H18.6875V15.4375Z" fill="#1A1A1A"/>
<path d="M18.2812 21.9375H19.9062C20.1306 21.9375 20.3125 21.7556 20.3125 21.5312V19.0938C20.3125 18.8694 20.1306 18.6875 19.9062 18.6875H18.2812C18.0569 18.6875 17.875 18.8694 17.875 19.0938V21.5312C17.875 21.7556 18.0569 21.9375 18.2812 21.9375ZM18.6875 19.5H19.5V21.125H18.6875V19.5Z" fill="#1A1A1A"/>
<path d="M5.6875 20.3125H3.25C3.02565 20.3125 2.84375 20.4944 2.84375 20.7188V23.1562C2.84375 23.3806 3.02565 23.5625 3.25 23.5625H5.6875C5.91185 23.5625 6.09375 23.3806 6.09375 23.1562V20.7188C6.09375 20.4944 5.91185 20.3125 5.6875 20.3125ZM5.28125 22.75H3.65625V21.125H5.28125V22.75Z" fill="#1A1A1A"/>
<path d="M9.75 20.3125H7.3125C7.08815 20.3125 6.90625 20.4944 6.90625 20.7188V23.1562C6.90625 23.3806 7.08815 23.5625 7.3125 23.5625H9.75C9.97435 23.5625 10.1562 23.3806 10.1562 23.1562V20.7188C10.1562 20.4944 9.97435 20.3125 9.75 20.3125ZM9.34375 22.75H7.71875V21.125H9.34375V22.75Z" fill="#1A1A1A"/>
<path d="M10.9688 20.7188V23.1562C10.9688 23.3806 11.1506 23.5625 11.375 23.5625H13.8125C14.0369 23.5625 14.2188 23.3806 14.2188 23.1562V20.7188C14.2188 20.4944 14.0369 20.3125 13.8125 20.3125H11.375C11.1506 20.3125 10.9688 20.4944 10.9688 20.7188ZM11.7812 21.125H13.4062V22.75H11.7812V21.125Z" fill="#1A1A1A"/>
<path d="M4.0625 6.90625C4.60621 6.90625 5.06792 6.54839 5.22437 6.05582C5.49463 5.99635 5.7459 5.86854 5.95405 5.68344C6.00082 5.68613 6.04744 5.6875 6.09375 5.6875C7.43778 5.6875 8.53125 4.59408 8.53125 3.25C8.53125 1.90592 7.43778 0.8125 6.09375 0.8125C4.74972 0.8125 3.65625 1.90592 3.65625 3.25C3.65625 3.29626 3.65762 3.34288 3.66036 3.3897C3.39742 3.6854 3.25 4.06809 3.25 4.46875C3.25 4.56605 3.25848 4.66212 3.27539 4.75653C3.00579 4.98398 2.84375 5.32152 2.84375 5.6875C2.84375 6.35949 3.39051 6.90625 4.0625 6.90625ZM3.90635 5.31238C4.11333 5.226 4.21109 4.98814 4.12476 4.78111C4.08347 4.68208 4.0625 4.57702 4.0625 4.46875C4.0625 4.23109 4.16645 4.00593 4.34774 3.851C4.45357 3.7605 4.50572 3.62207 4.48581 3.4842C4.47449 3.40564 4.46875 3.32688 4.46875 3.25C4.46875 2.35396 5.19771 1.625 6.09375 1.625C6.98979 1.625 7.71875 2.35396 7.71875 3.25C7.71875 4.14604 6.98979 4.875 6.09375 4.875C6.01671 4.875 5.93795 4.86926 5.85965 4.85794C5.72188 4.83818 5.5833 4.89013 5.49275 4.99606C5.33782 5.1773 5.11266 5.28125 4.875 5.28125C4.65065 5.28125 4.46875 5.46315 4.46875 5.6875C4.46875 5.9115 4.2865 6.09375 4.0625 6.09375C3.8385 6.09375 3.65625 5.9115 3.65625 5.6875C3.65625 5.52312 3.75441 5.37586 3.90635 5.31238Z" fill="#1A1A1A"/>
<path d="M10.9688 6.90625C11.5125 6.90625 11.9742 6.54839 12.1306 6.05582C12.4009 5.99635 12.6521 5.86854 12.8603 5.68344C12.9071 5.68613 12.9537 5.6875 13 5.6875C14.344 5.6875 15.4375 4.59408 15.4375 3.25C15.4375 1.90592 14.344 0.8125 13 0.8125C11.656 0.8125 10.5625 1.90592 10.5625 3.25C10.5625 3.29626 10.5639 3.34288 10.5666 3.3897C10.3037 3.6854 10.1562 4.06809 10.1562 4.46875C10.1562 4.56605 10.1647 4.66212 10.1816 4.75653C9.91199 4.98398 9.75 5.32152 9.75 5.6875C9.75 6.35949 10.2968 6.90625 10.9688 6.90625ZM10.8126 5.31238C11.0196 5.226 11.1173 4.98814 11.031 4.78111C10.9897 4.68208 10.9688 4.57702 10.9688 4.46875C10.9688 4.23109 11.0727 4.00593 11.254 3.851C11.3598 3.7605 11.412 3.62207 11.3921 3.4842C11.3807 3.40564 11.375 3.32688 11.375 3.25C11.375 2.35396 12.104 1.625 13 1.625C13.896 1.625 14.625 2.35396 14.625 3.25C14.625 4.14604 13.896 4.875 13 4.875C12.923 4.875 12.8442 4.86926 12.7659 4.85794C12.6281 4.83818 12.4895 4.89013 12.399 4.99606C12.2441 5.1773 12.0189 5.28125 11.7812 5.28125C11.5569 5.28125 11.375 5.46315 11.375 5.6875C11.375 5.9115 11.1927 6.09375 10.9688 6.09375C10.7448 6.09375 10.5625 5.9115 10.5625 5.6875C10.5625 5.52312 10.6607 5.37586 10.8126 5.31238Z" fill="#1A1A1A"/>
</g>
<defs>
<clipPath id="clip0_18136_49172">
<rect width="26" height="26" fill="white"/>
</clipPath>
</defs>
</svg>
