<svg width="52" height="52" viewBox="0 0 52 52" fill="none" xmlns="http://www.w3.org/2000/svg">
<path d="M0 26C0 11.6406 11.6406 0 26 0C40.3594 0 52 11.6406 52 26C52 40.3594 40.3594 52 26 52C11.6406 52 0 40.3594 0 26Z" fill="#F4C430" fill-opacity="0.2"/>
<g clip-path="url(#clip0_18062_21599)">
<mask id="mask0_18062_21599" style="mask-type:luminance" maskUnits="userSpaceOnUse" x="10" y="11" width="31" height="30">
<path d="M39.9185 23.2171H25.8139V28.9842H33.9185C33.7882 29.8003 33.4956 30.6032 33.0672 31.3354C32.5764 32.1741 31.9696 32.8127 31.3476 33.299C29.4846 34.7558 27.3125 35.0537 25.8041 35.0537C21.9935 35.0537 18.7376 32.5406 17.4772 29.1257C17.4263 29.0018 17.3925 28.8738 17.3514 28.7473C17.0729 27.8781 16.9207 26.9577 16.9207 26.001C16.9207 25.0053 17.0855 24.0522 17.386 23.152C18.5712 19.6018 21.9005 16.9501 25.8068 16.9501C26.5925 16.9501 27.3492 17.0455 28.0667 17.2359C29.7065 17.6709 30.8665 18.5277 31.5772 19.2053L35.8658 14.9197C33.2571 12.479 29.8563 11 25.7997 11C22.5567 10.9999 19.5626 12.031 17.109 13.7735C15.1193 15.1866 13.4874 17.0786 12.3861 19.2759C11.3617 21.3133 10.8008 23.5711 10.8008 25.9987C10.8008 28.4264 11.3626 30.7076 12.3869 32.7262V32.7398C13.469 34.8828 15.0512 36.7279 16.9743 38.1345C18.6543 39.3634 21.6667 41 25.7997 41C28.1764 41 30.2829 40.5627 32.1406 39.7433C33.4807 39.1522 34.6681 38.3811 35.7431 37.3902C37.1636 36.0809 38.276 34.4614 39.0353 32.5981C39.7946 30.7348 40.2008 28.6277 40.2008 26.3433C40.2008 25.2794 40.0961 24.199 39.9185 23.217V23.2171Z" fill="white"/>
</mask>
<g mask="url(#mask0_18062_21599)">
<g filter="url(#filter0_f_18062_21599)">
<path d="M10.5859 26.1003C10.6015 28.4897 11.2688 30.9549 12.2787 32.945V32.9587C13.0084 34.404 14.0058 35.5456 15.1418 36.6768L22.0027 34.1223C20.7046 33.4495 20.5066 33.0372 19.5761 32.2849C18.6252 31.3066 17.9165 30.1833 17.4752 28.8663H17.4574L17.4752 28.8526C17.1848 27.9829 17.1562 27.0598 17.1454 26.1003H10.5859Z" fill="url(#paint0_radial_18062_21599)"/>
</g>
<g filter="url(#filter1_f_18062_21599)">
<path d="M25.8154 10.8909C25.1373 13.3219 25.3966 15.6849 25.8154 17.0598C26.5985 17.0604 27.3528 17.1556 28.0681 17.3454C29.708 17.7804 30.8678 18.6372 31.5785 19.3149L35.9769 14.9197C33.3713 12.4819 30.2356 10.8947 25.8154 10.8909Z" fill="url(#paint1_radial_18062_21599)"/>
</g>
<g filter="url(#filter2_f_18062_21599)">
<path d="M25.7994 10.8716C22.4732 10.8715 19.4022 11.929 16.8857 13.7163C15.9513 14.3799 15.0938 15.1464 14.3303 15.9989C14.1303 17.9137 15.8276 20.2672 19.189 20.2478C20.8198 18.3119 23.2319 17.0595 25.9165 17.0595C25.9189 17.0595 25.9213 17.0597 25.9238 17.0597L25.8141 10.872C25.8092 10.872 25.8044 10.8716 25.7994 10.8716Z" fill="url(#paint2_radial_18062_21599)"/>
</g>
<g filter="url(#filter3_f_18062_21599)">
<path d="M36.7793 26.7933L33.8103 28.8746C33.6801 29.6907 33.3873 30.4936 32.9589 31.2257C32.4681 32.0645 31.8613 32.7032 31.2394 33.1895C29.3802 34.6432 27.2139 34.9425 25.7058 34.9438C24.1471 37.6528 23.8738 39.0097 25.8154 41.1961C28.218 41.1943 30.348 40.7517 32.2268 39.923C33.5849 39.3239 34.7882 38.5425 35.8776 37.5383C37.3171 36.2114 38.4447 34.5701 39.2142 32.6818C39.9837 30.7935 40.3951 28.6583 40.3951 26.3433L36.7793 26.7933Z" fill="url(#paint3_radial_18062_21599)"/>
</g>
<g filter="url(#filter4_f_18062_21599)">
<path d="M25.5957 22.9978V29.203H39.8799C40.0055 28.3532 40.421 27.2535 40.421 26.3431C40.421 25.2792 40.3164 23.9798 40.1388 22.9978H25.5957Z" fill="#3086FF"/>
</g>
<g filter="url(#filter5_f_18062_21599)">
<path d="M14.3989 15.7798C13.5174 16.7639 12.7644 17.8655 12.1673 19.0568C11.1429 21.0941 10.582 23.571 10.582 25.9986C10.582 26.0328 10.5848 26.0663 10.585 26.1004C11.0387 26.988 16.8516 26.8181 17.1445 26.1004C17.1442 26.067 17.1405 26.0343 17.1405 26.0007C17.1405 25.0051 17.3053 24.2712 17.6058 23.371C17.9765 22.2607 18.5569 21.2382 19.2991 20.3572C19.4673 20.1381 19.9161 19.6669 20.047 19.3843C20.0969 19.2766 19.9565 19.2162 19.9486 19.1783C19.9398 19.1359 19.7515 19.17 19.7094 19.1384C19.5754 19.0382 19.3103 18.9859 19.1492 18.9393C18.805 18.8399 18.2346 18.6206 17.9178 18.3932C16.9163 17.6746 15.3534 16.8163 14.3989 15.7798Z" fill="url(#paint4_radial_18062_21599)"/>
</g>
<g filter="url(#filter6_f_18062_21599)">
<path d="M17.9397 19.1827C20.2621 20.6182 20.93 18.4581 22.474 17.7822L19.7881 12.0986C18.8001 12.5224 17.8666 13.0488 17.0004 13.664C15.7069 14.5826 14.5647 15.7036 13.6211 16.9793L17.9397 19.1827Z" fill="url(#paint5_radial_18062_21599)"/>
</g>
<g filter="url(#filter7_f_18062_21599)">
<path d="M18.8844 33.6833C15.767 34.8317 15.2789 34.8729 14.9919 36.8443C15.5403 37.3904 16.1295 37.8955 16.7556 38.3534C18.4356 39.5823 21.6672 41.2189 25.8002 41.2189C25.805 41.2189 25.8097 41.2185 25.8145 41.2185V34.8342C25.8114 34.8342 25.8078 34.8344 25.8047 34.8344C24.257 34.8344 23.0203 34.4196 21.7523 33.6983C21.4396 33.5204 20.8724 33.998 20.5841 33.7845C20.1864 33.49 19.2294 34.0382 18.8844 33.6833Z" fill="url(#paint6_radial_18062_21599)"/>
</g>
<g opacity="0.5" filter="url(#filter8_f_18062_21599)">
<path d="M23.9883 34.6331V41.1079C24.5666 41.177 25.1684 41.2189 25.7997 41.2189C26.4326 41.2189 27.0448 41.1857 27.6398 41.1248V34.6767C26.9731 34.793 26.3451 34.8344 25.8042 34.8344C25.1812 34.8344 24.5753 34.7604 23.9883 34.6331Z" fill="url(#paint7_linear_18062_21599)"/>
</g>
</g>
</g>
<defs>
<filter id="filter0_f_18062_21599" x="10.1942" y="25.7086" width="12.2002" height="11.3599" filterUnits="userSpaceOnUse" color-interpolation-filters="sRGB">
<feFlood flood-opacity="0" result="BackgroundImageFix"/>
<feBlend mode="normal" in="SourceGraphic" in2="BackgroundImageFix" result="shape"/>
<feGaussianBlur stdDeviation="0.195866" result="effect1_foregroundBlur_18062_21599"/>
</filter>
<filter id="filter1_f_18062_21599" x="25.0067" y="10.4991" width="11.3621" height="9.20754" filterUnits="userSpaceOnUse" color-interpolation-filters="sRGB">
<feFlood flood-opacity="0" result="BackgroundImageFix"/>
<feBlend mode="normal" in="SourceGraphic" in2="BackgroundImageFix" result="shape"/>
<feGaussianBlur stdDeviation="0.195866" result="effect1_foregroundBlur_18062_21599"/>
</filter>
<filter id="filter2_f_18062_21599" x="13.9227" y="10.4798" width="12.3928" height="10.1597" filterUnits="userSpaceOnUse" color-interpolation-filters="sRGB">
<feFlood flood-opacity="0" result="BackgroundImageFix"/>
<feBlend mode="normal" in="SourceGraphic" in2="BackgroundImageFix" result="shape"/>
<feGaussianBlur stdDeviation="0.195866" result="effect1_foregroundBlur_18062_21599"/>
</filter>
<filter id="filter3_f_18062_21599" x="24.0555" y="25.9515" width="16.7315" height="15.6362" filterUnits="userSpaceOnUse" color-interpolation-filters="sRGB">
<feFlood flood-opacity="0" result="BackgroundImageFix"/>
<feBlend mode="normal" in="SourceGraphic" in2="BackgroundImageFix" result="shape"/>
<feGaussianBlur stdDeviation="0.195866" result="effect1_foregroundBlur_18062_21599"/>
</filter>
<filter id="filter4_f_18062_21599" x="25.204" y="22.6061" width="15.6087" height="6.98879" filterUnits="userSpaceOnUse" color-interpolation-filters="sRGB">
<feFlood flood-opacity="0" result="BackgroundImageFix"/>
<feBlend mode="normal" in="SourceGraphic" in2="BackgroundImageFix" result="shape"/>
<feGaussianBlur stdDeviation="0.195866" result="effect1_foregroundBlur_18062_21599"/>
</filter>
<filter id="filter5_f_18062_21599" x="10.1903" y="15.3881" width="10.2591" height="11.7078" filterUnits="userSpaceOnUse" color-interpolation-filters="sRGB">
<feFlood flood-opacity="0" result="BackgroundImageFix"/>
<feBlend mode="normal" in="SourceGraphic" in2="BackgroundImageFix" result="shape"/>
<feGaussianBlur stdDeviation="0.195866" result="effect1_foregroundBlur_18062_21599"/>
</filter>
<filter id="filter6_f_18062_21599" x="10.8671" y="9.34459" width="14.3611" height="13.0745" filterUnits="userSpaceOnUse" color-interpolation-filters="sRGB">
<feFlood flood-opacity="0" result="BackgroundImageFix"/>
<feBlend mode="normal" in="SourceGraphic" in2="BackgroundImageFix" result="shape"/>
<feGaussianBlur stdDeviation="1.37702" result="effect1_foregroundBlur_18062_21599"/>
</filter>
<filter id="filter7_f_18062_21599" x="14.6002" y="33.266" width="11.606" height="8.34474" filterUnits="userSpaceOnUse" color-interpolation-filters="sRGB">
<feFlood flood-opacity="0" result="BackgroundImageFix"/>
<feBlend mode="normal" in="SourceGraphic" in2="BackgroundImageFix" result="shape"/>
<feGaussianBlur stdDeviation="0.195866" result="effect1_foregroundBlur_18062_21599"/>
</filter>
<filter id="filter8_f_18062_21599" x="23.5965" y="34.2413" width="4.43508" height="7.3694" filterUnits="userSpaceOnUse" color-interpolation-filters="sRGB">
<feFlood flood-opacity="0" result="BackgroundImageFix"/>
<feBlend mode="normal" in="SourceGraphic" in2="BackgroundImageFix" result="shape"/>
<feGaussianBlur stdDeviation="0.195866" result="effect1_foregroundBlur_18062_21599"/>
</filter>
<radialGradient id="paint0_radial_18062_21599" cx="0" cy="0" r="1" gradientTransform="matrix(-0.610934 -14.9399 21.9656 -0.896529 21.8653 36.4517)" gradientUnits="userSpaceOnUse">
<stop offset="0.141612" stop-color="#1ABD4D"/>
<stop offset="0.247515" stop-color="#6EC30D"/>
<stop offset="0.311547" stop-color="#8AC502"/>
<stop offset="0.366013" stop-color="#A2C600"/>
<stop offset="0.445673" stop-color="#C8C903"/>
<stop offset="0.540305" stop-color="#EBCB03"/>
<stop offset="0.615636" stop-color="#F7CD07"/>
<stop offset="0.699345" stop-color="#FDCD04"/>
<stop offset="0.771242" stop-color="#FDCE05"/>
<stop offset="0.860566" stop-color="#FFCE0A"/>
</radialGradient>
<radialGradient id="paint1_radial_18062_21599" cx="0" cy="0" r="1" gradientTransform="matrix(10.3753 -2.54446e-05 -1.4583e-05 13.3866 35.5655 18.9969)" gradientUnits="userSpaceOnUse">
<stop offset="0.408458" stop-color="#FB4E5A"/>
<stop offset="1" stop-color="#FF4540"/>
</radialGradient>
<radialGradient id="paint2_radial_18062_21599" cx="0" cy="0" r="1" gradientTransform="matrix(-14.5366 8.04365 10.9255 19.7075 29.8982 8.93383)" gradientUnits="userSpaceOnUse">
<stop offset="0.231273" stop-color="#FF4541"/>
<stop offset="0.311547" stop-color="#FF4540"/>
<stop offset="0.457516" stop-color="#FF4640"/>
<stop offset="0.540305" stop-color="#FF473F"/>
<stop offset="0.699346" stop-color="#FF5138"/>
<stop offset="0.771242" stop-color="#FF5B33"/>
<stop offset="0.860566" stop-color="#FF6C29"/>
<stop offset="1" stop-color="#FF8C18"/>
</radialGradient>
<radialGradient id="paint3_radial_18062_21599" cx="0" cy="0" r="1" gradientTransform="matrix(-26.3625 -34.3809 -12.7028 9.7219 26.0316 39.2544)" gradientUnits="userSpaceOnUse">
<stop offset="0.131546" stop-color="#0CBA65"/>
<stop offset="0.209784" stop-color="#0BB86D"/>
<stop offset="0.297297" stop-color="#09B479"/>
<stop offset="0.396257" stop-color="#08AD93"/>
<stop offset="0.477124" stop-color="#0AA6A9"/>
<stop offset="0.568425" stop-color="#0D9CC6"/>
<stop offset="0.667385" stop-color="#1893DD"/>
<stop offset="0.768727" stop-color="#258BF1"/>
<stop offset="0.858506" stop-color="#3086FF"/>
</radialGradient>
<radialGradient id="paint4_radial_18062_21599" cx="0" cy="0" r="1" gradientTransform="matrix(-1.86562 16.0652 22.2339 2.5771 24.5263 13.7049)" gradientUnits="userSpaceOnUse">
<stop offset="0.366013" stop-color="#FF4E3A"/>
<stop offset="0.457516" stop-color="#FF8A1B"/>
<stop offset="0.540305" stop-color="#FFA312"/>
<stop offset="0.615636" stop-color="#FFB60C"/>
<stop offset="0.771242" stop-color="#FFCD0A"/>
<stop offset="0.860566" stop-color="#FECF0A"/>
<stop offset="0.915033" stop-color="#FECF08"/>
<stop offset="1" stop-color="#FDCD01"/>
</radialGradient>
<radialGradient id="paint5_radial_18062_21599" cx="0" cy="0" r="1" gradientTransform="matrix(-5.3926 5.95847 -16.822 -15.1957 21.9032 13.5385)" gradientUnits="userSpaceOnUse">
<stop offset="0.315904" stop-color="#FF4C3C"/>
<stop offset="0.603818" stop-color="#FF692C"/>
<stop offset="0.726837" stop-color="#FF7825"/>
<stop offset="0.884534" stop-color="#FF8D1B"/>
<stop offset="1" stop-color="#FF9F13"/>
</radialGradient>
<radialGradient id="paint6_radial_18062_21599" cx="0" cy="0" r="1" gradientTransform="matrix(-14.5366 -8.04365 10.9255 -19.7075 29.8986 43.0655)" gradientUnits="userSpaceOnUse">
<stop offset="0.231273" stop-color="#0FBC5F"/>
<stop offset="0.311547" stop-color="#0FBC5F"/>
<stop offset="0.366013" stop-color="#0FBC5E"/>
<stop offset="0.457516" stop-color="#0FBC5D"/>
<stop offset="0.540305" stop-color="#12BC58"/>
<stop offset="0.699346" stop-color="#28BF3C"/>
<stop offset="0.771242" stop-color="#38C02B"/>
<stop offset="0.860566" stop-color="#52C218"/>
<stop offset="0.915033" stop-color="#67C30F"/>
<stop offset="1" stop-color="#86C504"/>
</radialGradient>
<linearGradient id="paint7_linear_18062_21599" x1="23.9883" y1="37.926" x2="27.6398" y2="37.926" gradientUnits="userSpaceOnUse">
<stop stop-color="#0FBC5C"/>
<stop offset="1" stop-color="#0CBA65"/>
</linearGradient>
<clipPath id="clip0_18062_21599">
<rect width="29.4" height="30" fill="white" transform="translate(10.8008 11)"/>
</clipPath>
</defs>
</svg>
