<svg width="122" height="50" viewBox="0 0 122 50" fill="none" xmlns="http://www.w3.org/2000/svg">
<path d="M22.4665 2.67406L21.2797 0C20.4623 9.31772 18.1439 11.7551 9.43651 22.0461C9.13724 22.42 8.85627 22.8087 8.59375 23.2144C10.0067 24.9941 11.9084 26.8063 14.1849 28.5263C14.7932 28.9863 15.4273 29.4387 16.0873 29.8816C16.9413 28.5215 17.9022 27.2564 18.8409 26.0784C19.0238 25.8478 19.2049 25.6228 19.3878 25.3924C21.7325 22.4577 24.1567 19.4212 24.9969 15.7233C25.9298 11.6296 24.2974 6.77691 22.4665 2.67406ZM23.645 13.9019C23.6094 14.3927 23.5533 14.8837 23.4624 15.3664C23.3696 15.8662 23.2251 16.3408 23.0585 16.7944C22.8955 17.2522 22.7013 17.6861 22.4978 18.1138C22.2963 18.5435 22.0725 18.9559 21.8469 19.3645C21.3884 20.1809 20.8912 20.9634 20.3662 21.7226C19.3165 23.2391 18.1802 24.6813 16.9222 26.0041C17.8926 24.4332 18.8631 22.8759 19.78 21.2914C20.6823 19.7017 21.5789 18.0943 22.1972 16.3977C22.3472 15.9736 22.4769 15.5461 22.5623 15.1152C22.6458 14.6687 22.7073 14.2126 22.7557 13.7517C22.8454 12.8314 22.8594 11.8897 22.8347 10.9431C22.7668 9.04835 22.5311 7.13093 22.1865 5.20691C22.5692 6.11982 22.8467 7.07066 23.0835 8.02809C23.1954 8.50927 23.2982 8.99146 23.3844 9.47822C23.465 9.96464 23.5327 10.4538 23.5856 10.9456C23.686 11.9271 23.7163 12.9184 23.645 13.9019Z" fill="#F4C430"/>
<path d="M28.7838 13.2152L26.2944 9.06296C26.8394 11.4768 27.0137 13.9197 26.4961 16.2046C25.5744 20.2451 23.0448 23.414 20.5966 26.4775C20.4137 26.7061 20.2364 26.9333 20.0534 27.16C19.1629 28.2801 18.2445 29.4809 17.4385 30.7619C18.8008 31.6045 20.2519 32.4157 21.7785 33.1594C22.7465 33.6321 23.7109 34.064 24.6642 34.4545C25.4424 34.7755 26.2133 35.0669 26.973 35.3305C27.9191 34.1529 28.8724 32.9375 29.6193 31.6539C30.1479 30.7409 30.5606 29.757 30.8755 28.7501C32.4684 23.6958 31.6395 17.9784 28.7838 13.2152ZM30.187 24.5975C30.0041 26.3126 29.587 27.9845 28.9062 29.5142C28.5677 30.2802 28.1665 31.0104 27.7044 31.6897C27.2349 32.3645 26.7212 33.0069 26.1045 33.5256C26.5998 32.8857 27.0231 32.1937 27.3985 31.475C27.7775 30.7603 28.0958 30.012 28.3772 29.2493C28.6493 28.4819 28.8864 27.7003 29.0608 26.8984C29.2426 26.101 29.3764 25.2842 29.4548 24.4614C29.5425 23.6411 29.5657 22.8081 29.5465 21.9698C29.5364 21.1323 29.4636 20.29 29.3724 19.448C29.1715 17.7627 28.8489 16.0755 28.3914 14.4012C29.1386 15.9846 29.631 17.6809 29.9444 19.3982C29.9848 19.6134 30.0178 19.8281 30.0543 20.045C30.0817 20.2612 30.1128 20.4776 30.1366 20.6934C30.1877 21.1274 30.2223 21.562 30.2475 21.9976C30.2832 22.866 30.2729 23.7366 30.187 24.5975Z" fill="#F4C430"/>
<path d="M35.2852 24.0622L33.5471 21.1638L33.5196 21.1172C33.5232 21.1349 33.5232 21.1542 33.5232 21.1716C33.6453 25.4998 32.7551 29.4404 30.9506 32.562C30.2722 33.7314 29.4573 34.8207 28.6221 35.8662C31.5711 36.7537 34.3231 37.2093 36.6772 37.2271C37.3544 37.2317 37.9964 37.2009 38.6016 37.1343C38.6983 36.3995 38.7454 35.6475 38.7464 34.8822C38.751 30.9029 37.4587 27.1409 35.2852 24.0622ZM37.167 36.4457C37.1019 35.3148 37.0793 34.216 36.9312 33.1133C36.8821 32.5638 36.7756 32.0177 36.7044 31.4721C36.5944 30.9277 36.5139 30.3815 36.3816 29.8429C36.145 28.7583 35.8566 27.683 35.522 26.614C35.1857 25.5447 34.8106 24.486 34.3894 23.4197C35.0728 24.3424 35.6102 25.3754 36.0573 26.434C36.5098 27.4951 36.8518 28.5995 37.0994 29.7215C37.2352 30.2797 37.3084 30.8482 37.3962 31.4142L37.4727 32.2665C37.4818 32.4079 37.5001 32.5483 37.5017 32.691L37.5068 33.1155C37.5479 34.2505 37.4081 35.3733 37.167 36.4457Z" fill="#F4C430"/>
<path d="M20.521 38.9793C17.8815 37.885 15.4643 36.4507 13.2954 34.5497C12.2119 33.5998 11.282 32.4939 10.0953 31.6716C8.86773 30.821 7.61447 30.0378 6.45761 29.083C6.43387 29.0636 6.41344 29.0415 6.39169 29.0204C6.29808 29.424 6.21684 29.8336 6.1524 30.2496C6.14861 30.2687 6.1468 30.2897 6.14301 30.3088C6.00541 31.1786 5.93652 32.0713 5.93652 32.9754C5.93652 41.4131 11.922 48.4113 19.7701 49.7397C19.7701 49.7397 22.9462 50.2979 24.9425 49.7798C28.2562 49.2714 31.2442 47.7574 33.6092 45.5457C33.7059 45.4558 33.8009 45.3641 33.8958 45.2723C34.8842 44.3006 35.7557 43.2039 36.4862 42.0063C31.0584 41.7354 25.5929 41.0819 20.521 38.9793Z" fill="#F4C430"/>
<path d="M20.5216 38.9793C17.8821 37.885 15.4648 36.4507 13.296 34.5497C12.2125 33.5998 11.2825 32.4939 10.0958 31.6716C8.86827 30.821 7.61501 30.0378 6.45815 29.083C6.43442 29.0636 6.41398 29.0415 6.39223 29.0204C6.29862 29.424 6.21738 29.8336 6.15295 30.2496C6.14916 30.2687 6.14734 30.2897 6.14355 30.3088C8.91952 33.4705 12.6984 36.6322 17.1731 39.3504C22.9614 42.8676 28.8185 44.978 33.6096 45.5457C33.7063 45.4558 33.8012 45.3641 33.8962 45.2723C34.8846 44.3006 35.756 43.2039 36.4866 42.0063C31.0589 41.7354 25.5935 41.0819 20.5216 38.9793Z" fill="#F4C430"/>
<path d="M42.9431 29.719C43.9271 31.7493 44.1433 33.6441 43.4139 35.1863C41.1994 39.8695 31.0986 39.5209 20.8545 34.4077C10.6103 29.2944 4.10061 21.352 6.31529 16.6689C7.04467 15.1267 8.62785 14.1301 10.7896 13.6699C9.86893 13.6662 8.99601 13.7182 8.17978 13.826C5.81695 14.1384 4.11412 16.346 4.35785 18.7807C4.51045 20.3046 4.98671 22.197 6.12495 24.3396C6.80737 25.6241 7.8487 26.6989 8.81951 27.7916C10.7712 29.9753 12.9779 31.9324 15.3465 33.6603C17.7201 35.3822 20.2428 36.9 22.8793 38.188C20.1818 37.0412 17.5749 35.6514 15.1082 34.022C12.6434 32.3912 10.3191 30.5156 8.22476 28.3762C7.17832 27.3036 6.19218 26.1732 5.30114 24.9398C4.41273 23.7087 3.63144 22.3477 3.15633 20.8308C3.0914 20.6437 3.04839 20.4485 2.99368 20.2574C2.94441 20.0644 2.9065 19.8678 2.86316 19.6727C2.78818 19.2735 2.7422 18.8692 2.72408 18.4636C2.68733 17.6522 2.76297 16.8345 2.95776 16.0379C2.96814 15.9952 2.98017 15.9529 2.99137 15.9104C2.46914 16.385 2.05204 16.9344 1.75574 17.5611C-0.858894 23.0902 6.82483 32.4665 18.918 38.5027C31.0128 44.5397 42.9362 44.9501 45.5508 39.421C46.7917 36.7969 45.7131 33.3082 42.9431 29.719Z" fill="white"/>
<path d="M65.3955 36.25C62.5309 36.25 60.2523 35.467 58.5596 33.9011C56.8669 32.3134 56.0205 30.0515 56.0205 27.1154V21.6346C56.0205 18.6985 56.8669 16.4475 58.5596 14.8815C60.2523 13.2938 62.5309 12.5 65.3955 12.5C68.2601 12.5 70.5387 13.2938 72.2314 14.8815C73.9241 16.4475 74.7704 18.6985 74.7704 21.6346V27.1154C74.7704 30.0515 73.9241 32.3134 72.2314 33.9011C70.5387 35.467 68.2601 36.25 65.3955 36.25ZM65.3955 32.4004C67.0014 32.4004 68.2492 31.9328 69.139 30.9976C70.0287 30.0624 70.4736 28.8118 70.4736 27.2459V21.5041C70.4736 19.9382 70.0287 18.6876 69.139 17.7524C68.2492 16.8172 67.0014 16.3496 65.3955 16.3496C63.8113 16.3496 62.5635 16.8172 61.652 17.7524C60.7622 18.6876 60.3174 19.9382 60.3174 21.5041V27.2459C60.3174 28.8118 60.7622 30.0624 61.652 30.9976C62.5635 31.9328 63.8113 32.4004 65.3955 32.4004Z" fill="white"/>
<path d="M78.6696 35.7933V19.612H82.7711V35.7933H78.6696ZM80.7203 17.7198C79.9825 17.7198 79.3532 17.4805 78.8323 17.0021C78.3332 16.5236 78.0836 15.8929 78.0836 15.1099C78.0836 14.3269 78.3332 13.6962 78.8323 13.2177C79.3532 12.7392 79.9825 12.5 80.7203 12.5C81.4799 12.5 82.1092 12.7392 82.6084 13.2177C83.1075 13.6962 83.357 14.3269 83.357 15.1099C83.357 15.8929 83.1075 16.5236 82.6084 17.0021C82.1092 17.4805 81.4799 17.7198 80.7203 17.7198Z" fill="white"/>
<path d="M87.3162 35.7933V12.9567H91.4177V35.7933H87.3162Z" fill="white"/>
<path d="M95.9628 35.7933V19.612H100.064V35.7933H95.9628ZM98.0136 17.7198C97.2757 17.7198 96.6464 17.4805 96.1256 17.0021C95.6264 16.5236 95.3769 15.8929 95.3769 15.1099C95.3769 14.3269 95.6264 13.6962 96.1256 13.2177C96.6464 12.7392 97.2757 12.5 98.0136 12.5C98.7731 12.5 99.4025 12.7392 99.9016 13.2177C100.401 13.6962 100.65 14.3269 100.65 15.1099C100.65 15.8929 100.401 16.5236 99.9016 17.0021C99.4025 17.4805 98.7731 17.7198 98.0136 17.7198Z" fill="white"/>
<path d="M103.177 35.7933L109.036 27.6374L103.242 19.612H107.995L111.673 24.9948H112.259L115.938 19.612H120.69L114.896 27.6374L120.755 35.7933H115.938L112.259 30.3451H111.673L107.995 35.7933H103.177Z" fill="white"/>
</svg>
