<svg width="122" height="50" viewBox="0 0 122 50" fill="none" xmlns="http://www.w3.org/2000/svg">
<path d="M22.4663 2.67406L21.2794 0C20.462 9.31772 18.1437 11.7551 9.43627 22.0461C9.137 22.42 8.85602 22.8087 8.59351 23.2144C10.0065 24.9941 11.9082 26.8063 14.1847 28.5263C14.7929 28.9863 15.4271 29.4387 16.0871 29.8816C16.941 28.5215 17.9019 27.2564 18.8406 26.0784C19.0235 25.8478 19.2046 25.6228 19.3876 25.3924C21.7323 22.4577 24.1564 19.4212 24.9967 15.7233C25.9296 11.6296 24.2971 6.77691 22.4663 2.67406ZM23.6447 13.9019C23.6091 14.3927 23.5531 14.8837 23.4621 15.3664C23.3693 15.8662 23.2248 16.3408 23.0582 16.7944C22.8952 17.2522 22.7011 17.6861 22.4976 18.1138C22.296 18.5435 22.0722 18.9559 21.8466 19.3645C21.3882 20.1809 20.891 20.9634 20.366 21.7226C19.3162 23.2391 18.18 24.6813 16.9219 26.0041C17.8924 24.4332 18.8629 22.8759 19.7798 21.2914C20.682 19.7017 21.5787 18.0943 22.197 16.3977C22.347 15.9736 22.4767 15.5461 22.562 15.1152C22.6456 14.6687 22.707 14.2126 22.7555 13.7517C22.8451 12.8314 22.8591 11.8897 22.8344 10.9431C22.7665 9.04835 22.5309 7.13093 22.1863 5.20691C22.5689 6.11982 22.8465 7.07066 23.0833 8.02809C23.1952 8.50927 23.298 8.99146 23.3842 9.47822C23.4648 9.96464 23.5325 10.4538 23.5854 10.9456C23.6858 11.9271 23.7161 12.9184 23.6447 13.9019Z" fill="#F4C430"/>
<path d="M28.7835 13.2152L26.2941 9.06296C26.8391 11.4768 27.0135 13.9197 26.4959 16.2046C25.5742 20.2451 23.0446 23.414 20.5964 26.4775C20.4134 26.7061 20.2361 26.9333 20.0532 27.16C19.1626 28.2801 18.2442 29.4809 17.4382 30.7619C18.8006 31.6045 20.2516 32.4157 21.7783 33.1594C22.7463 33.6321 23.7107 34.064 24.664 34.4545C25.4422 34.7755 26.2131 35.0669 26.9728 35.3305C27.9189 34.1529 28.8722 32.9375 29.619 31.6539C30.1477 30.7409 30.5604 29.757 30.8753 28.7501C32.4682 23.6958 31.6393 17.9784 28.7835 13.2152ZM30.1868 24.5975C30.0038 26.3126 29.5867 27.9845 28.906 29.5142C28.5675 30.2802 28.1662 31.0104 27.7041 31.6897C27.2346 32.3645 26.721 33.0069 26.1043 33.5256C26.5995 32.8857 27.0229 32.1937 27.3983 31.475C27.7773 30.7603 28.0955 30.012 28.377 29.2493C28.6491 28.4819 28.8862 27.7003 29.0606 26.8984C29.2423 26.101 29.3761 25.2842 29.4546 24.4614C29.5423 23.6411 29.5655 22.8081 29.5462 21.9698C29.5362 21.1323 29.4633 20.29 29.3722 19.448C29.1713 17.7627 28.8486 16.0755 28.3912 14.4012C29.1383 15.9846 29.6307 17.6809 29.9442 19.3982C29.9846 19.6134 30.0175 19.8281 30.0541 20.045C30.0815 20.2612 30.1126 20.4776 30.1363 20.6934C30.1874 21.1274 30.222 21.562 30.2472 21.9976C30.283 22.866 30.2726 23.7366 30.1868 24.5975Z" fill="#F4C430"/>
<path d="M35.2847 24.0622L33.5466 21.1638L33.5191 21.1172C33.5227 21.1349 33.5227 21.1542 33.5227 21.1716C33.6449 25.4998 32.7546 29.4404 30.9501 32.562C30.2717 33.7314 29.4568 34.8207 28.6216 35.8662C31.5706 36.7537 34.3227 37.2093 36.6768 37.2271C37.3539 37.2317 37.9959 37.2009 38.6011 37.1343C38.6978 36.3995 38.7449 35.6475 38.7459 34.8822C38.7505 30.9029 37.4582 27.1409 35.2847 24.0622ZM37.1665 36.4457C37.1014 35.3148 37.0789 34.216 36.9307 33.1133C36.8816 32.5638 36.7751 32.0177 36.7039 31.4721C36.5939 30.9277 36.5134 30.3815 36.3811 29.8429C36.1445 28.7583 35.8561 27.683 35.5215 26.614C35.1852 25.5447 34.8101 24.486 34.3889 23.4197C35.0723 24.3424 35.6097 25.3754 36.0568 26.434C36.5093 27.4951 36.8513 28.5995 37.099 29.7215C37.2348 30.2797 37.3079 30.8482 37.3958 31.4142L37.4722 32.2665C37.4813 32.4079 37.4996 32.5483 37.5012 32.691L37.5063 33.1155C37.5474 34.2505 37.4076 35.3733 37.1665 36.4457Z" fill="#F4C430"/>
<path d="M20.521 38.9793C17.8815 37.885 15.4643 36.4507 13.2954 34.5497C12.2119 33.5998 11.282 32.4939 10.0953 31.6716C8.86773 30.821 7.61447 30.0378 6.45761 29.083C6.43387 29.0636 6.41344 29.0415 6.39169 29.0204C6.29808 29.424 6.21684 29.8336 6.1524 30.2496C6.14861 30.2687 6.1468 30.2897 6.14301 30.3088C6.00541 31.1786 5.93652 32.0713 5.93652 32.9754C5.93652 41.4131 11.922 48.4113 19.7701 49.7397C19.7701 49.7397 22.9462 50.2979 24.9425 49.7798C28.2562 49.2714 31.2442 47.7574 33.6092 45.5457C33.7059 45.4558 33.8009 45.3641 33.8958 45.2723C34.8842 44.3006 35.7557 43.2039 36.4862 42.0063C31.0584 41.7354 25.5929 41.0819 20.521 38.9793Z" fill="#F4C430"/>
<path d="M20.5208 38.9793C17.8813 37.885 15.4641 36.4507 13.2952 34.5497C12.2117 33.5998 11.2818 32.4939 10.0951 31.6716C8.86754 30.821 7.61428 30.0378 6.45742 29.083C6.43368 29.0636 6.41325 29.0415 6.3915 29.0204C6.29789 29.424 6.21665 29.8336 6.15221 30.2496C6.14842 30.2687 6.14661 30.2897 6.14282 30.3088C8.91879 33.4705 12.6977 36.6321 17.1724 39.3504C22.9606 42.8676 28.8178 44.978 33.6089 45.5457C33.7056 45.4558 33.8005 45.3641 33.8954 45.2723C34.8839 44.3006 35.7553 43.2039 36.4858 42.0063C31.0582 41.7354 25.5927 41.0819 20.5208 38.9793Z" fill="#F4C430"/>
<path d="M42.9429 29.719C43.9268 31.7493 44.1431 33.6441 43.4137 35.1863C41.1992 39.8695 31.0984 39.5209 20.8542 34.4077C10.6101 29.2944 4.10037 21.352 6.31504 16.6689C7.04443 15.1267 8.62761 14.1301 10.7894 13.6699C9.86868 13.6662 8.99576 13.7182 8.17953 13.826C5.8167 14.1384 4.11388 16.346 4.35761 18.7807C4.51021 20.3046 4.98647 22.197 6.12471 24.3396C6.80712 25.6241 7.84846 26.6989 8.81927 27.7916C10.7709 29.9753 12.9777 31.9324 15.3463 33.6603C17.7198 35.3822 20.2425 36.9 22.8791 38.188C20.1815 37.0412 17.5747 35.6514 15.108 34.022C12.6432 32.3912 10.3189 30.5156 8.22452 28.3762C7.17807 27.3036 6.19194 26.1732 5.30089 24.9398C4.41249 23.7087 3.63119 22.3477 3.15609 20.8308C3.09116 20.6437 3.04815 20.4485 2.99344 20.2574C2.94416 20.0644 2.90626 19.8678 2.86292 19.6727C2.78794 19.2735 2.74196 18.8692 2.72383 18.4635C2.68708 17.6522 2.76272 16.8345 2.95751 16.0379C2.96789 15.9952 2.97992 15.9529 2.99113 15.9104C2.46889 16.385 2.0518 16.9344 1.7555 17.5611C-0.859138 23.0902 6.82459 32.4665 18.9177 38.5027C31.0125 44.5397 42.9359 44.9501 45.5506 39.421C46.7915 36.7969 45.7129 33.3082 42.9429 29.719Z" fill="#1A1A1A"/>
<path d="M65.3955 36.25C62.5309 36.25 60.2523 35.467 58.5596 33.9011C56.8669 32.3134 56.0205 30.0515 56.0205 27.1154V21.6346C56.0205 18.6985 56.8669 16.4475 58.5596 14.8815C60.2523 13.2938 62.5309 12.5 65.3955 12.5C68.2601 12.5 70.5387 13.2938 72.2314 14.8815C73.9241 16.4475 74.7704 18.6985 74.7704 21.6346V27.1154C74.7704 30.0515 73.9241 32.3134 72.2314 33.9011C70.5387 35.467 68.2601 36.25 65.3955 36.25ZM65.3955 32.4004C67.0014 32.4004 68.2492 31.9328 69.139 30.9976C70.0287 30.0624 70.4736 28.8118 70.4736 27.2459V21.5041C70.4736 19.9382 70.0287 18.6876 69.139 17.7524C68.2492 16.8172 67.0014 16.3496 65.3955 16.3496C63.8113 16.3496 62.5635 16.8172 61.652 17.7524C60.7622 18.6876 60.3174 19.9382 60.3174 21.5041V27.2459C60.3174 28.8118 60.7622 30.0624 61.652 30.9976C62.5635 31.9328 63.8113 32.4004 65.3955 32.4004Z" fill="#1A1A1A"/>
<path d="M78.6696 35.7933V19.612H82.7711V35.7933H78.6696ZM80.7203 17.7198C79.9825 17.7198 79.3532 17.4805 78.8323 17.0021C78.3332 16.5236 78.0836 15.8929 78.0836 15.1099C78.0836 14.3269 78.3332 13.6962 78.8323 13.2177C79.3532 12.7392 79.9825 12.5 80.7203 12.5C81.4799 12.5 82.1092 12.7392 82.6084 13.2177C83.1075 13.6962 83.357 14.3269 83.357 15.1099C83.357 15.8929 83.1075 16.5236 82.6084 17.0021C82.1092 17.4805 81.4799 17.7198 80.7203 17.7198Z" fill="#1A1A1A"/>
<path d="M87.3162 35.7933V12.9567H91.4177V35.7933H87.3162Z" fill="#1A1A1A"/>
<path d="M95.9628 35.7933V19.612H100.064V35.7933H95.9628ZM98.0136 17.7198C97.2757 17.7198 96.6464 17.4805 96.1256 17.0021C95.6264 16.5236 95.3769 15.8929 95.3769 15.1099C95.3769 14.3269 95.6264 13.6962 96.1256 13.2177C96.6464 12.7392 97.2757 12.5 98.0136 12.5C98.7731 12.5 99.4025 12.7392 99.9016 13.2177C100.401 13.6962 100.65 14.3269 100.65 15.1099C100.65 15.8929 100.401 16.5236 99.9016 17.0021C99.4025 17.4805 98.7731 17.7198 98.0136 17.7198Z" fill="#1A1A1A"/>
<path d="M103.177 35.7933L109.036 27.6374L103.242 19.612H107.995L111.673 24.9948H112.259L115.938 19.612H120.69L114.896 27.6374L120.755 35.7933H115.938L112.259 30.3451H111.673L107.995 35.7933H103.177Z" fill="#1A1A1A"/>
</svg>
