<svg width="62" height="56" viewBox="0 0 62 56" fill="none" xmlns="http://www.w3.org/2000/svg">
<path opacity="0.1" d="M35.9226 52.3135C39.0322 54.4475 42.7779 55.5145 47.1597 55.5145C50.552 55.5145 53.6617 54.8032 56.4886 53.3805C59.3156 51.8155 61.5064 49.6815 63.0613 46.9784C64.7574 44.2753 65.6055 41.0031 65.6055 37.1619C65.6055 33.6052 64.8281 30.6887 63.2733 28.4124C61.7185 25.9939 59.8103 24.2155 57.5487 23.0774C55.2872 21.7969 53.0256 21.1567 50.764 21.1567C48.9265 21.1567 47.5131 21.299 46.5236 21.5835C45.5342 21.8681 44.6861 22.2949 43.9794 22.864L42.9193 22.2237C44.05 19.2361 45.6755 16.3196 47.7957 13.4743C50.0573 10.6289 52.8136 8.06806 56.0646 5.79177C59.3156 3.37321 62.8492 1.4526 66.6656 0.0299177L53.9444 -10C48.7145 -7.58144 44.05 -4.23813 39.951 0.0299177C35.9932 4.29796 32.8129 9.13507 30.41 14.5413C28.0071 19.8052 26.8057 25.4248 26.8057 31.4C26.8057 35.6681 27.5831 39.6516 29.1379 43.3506C30.6927 47.0495 32.9543 50.0372 35.9226 52.3135Z" fill="#1A1A1A"/>
<path opacity="0.1" d="M20.354 55.5145C15.9723 55.5145 12.2265 54.4475 9.1169 52.3135C6.14861 50.0372 3.88705 47.0495 2.33223 43.3506C0.77741 39.6516 0 35.6681 0 31.4C0 25.4248 1.20145 19.8052 3.60436 14.5413C6.00726 9.13507 9.18758 4.29796 13.1453 0.0299177C17.2444 -4.23813 21.9088 -7.58144 27.1387 -10L39.6479 0.0299177C35.8316 1.4526 32.2979 3.37321 29.0469 5.79177C25.9372 8.06806 23.2516 10.6289 20.9901 13.4743C18.8699 16.3196 17.2444 19.2361 16.1136 22.2237L17.1737 22.864C17.8804 22.2949 18.7285 21.8681 19.718 21.5835C20.7074 21.299 22.1209 21.1567 23.9584 21.1567C26.2199 21.1567 28.4815 21.7969 30.743 23.0774C33.0046 24.2155 34.9128 25.9939 36.4676 28.4124C38.0224 30.6887 38.7998 33.6052 38.7998 37.1619C38.7998 41.0031 37.9518 44.2753 36.2556 46.9784C34.5594 49.6815 32.2979 51.8155 29.4709 53.3805C26.7853 54.8032 23.7464 55.5145 20.354 55.5145Z" fill="#1A1A1A"/>
</svg>
