<svg width="68" height="68" viewBox="0 0 68 68" fill="none" xmlns="http://www.w3.org/2000/svg">
<path d="M0 34C0 15.2223 15.2223 0 34 0C52.7777 0 68 15.2223 68 34C68 52.7777 52.7777 68 34 68C15.2223 68 0 52.7777 0 34Z" fill="#F4C430"/>
<g clip-path="url(#clip0_18919_538139)">
<path d="M15.1181 34.4194C15.1816 34.4189 15.245 34.4183 15.3104 34.4177C15.5191 34.4164 15.7276 34.4179 15.9363 34.4196C16.0818 34.4195 16.2273 34.4193 16.3729 34.419C16.6774 34.4188 16.9819 34.42 17.2864 34.4221C17.6764 34.4248 18.0664 34.4243 18.4565 34.4228C18.7568 34.422 19.0571 34.4227 19.3574 34.4239C19.5012 34.4243 19.6451 34.4242 19.7889 34.4238C19.9899 34.4233 20.1908 34.4249 20.3919 34.4271C20.4807 34.4263 20.4807 34.4263 20.5713 34.4255C20.9544 34.4324 21.1533 34.5074 21.4218 34.7812C21.5511 35.0398 21.5078 35.3274 21.5048 35.6113C21.5045 35.674 21.5041 35.7366 21.5037 35.8011C21.5028 35.956 21.5014 36.1108 21.4999 36.2656C21.5905 36.2639 21.6811 36.2621 21.7745 36.2604C22.6373 36.2444 23.5 36.2327 24.3629 36.2251C24.8063 36.2211 25.2496 36.2156 25.693 36.2067C29.3588 36.1346 29.3588 36.1346 30.8377 36.9442C31.1514 37.1107 31.4802 37.2363 31.81 37.367C31.9332 37.4179 32.0564 37.469 32.1794 37.5204C32.2711 37.5586 32.2711 37.5586 32.3647 37.5976C32.4587 37.6368 32.4587 37.6368 32.5546 37.6767C32.8298 37.7914 33.1049 37.9061 33.3801 38.0207C33.4497 38.0497 33.5192 38.0786 33.5909 38.1085C34.0273 38.2899 34.4646 38.4691 34.9026 38.6465C35.1943 38.7646 35.4857 38.8835 35.777 39.0024C35.9154 39.0587 36.0539 39.1146 36.1926 39.1701C37.3753 39.6441 38.457 40.16 39.0683 41.3486C39.4803 42.3458 39.46 43.3977 39.1025 44.4053C38.9254 44.8178 38.6629 45.1439 38.3749 45.4844C38.2705 45.6144 38.1663 45.7445 38.0624 45.875C38.9131 46.0846 38.9131 46.0846 39.7812 46.1875C39.8469 46.1916 39.9127 46.1957 39.9805 46.2C40.4628 46.2153 40.924 46.1663 41.3988 46.0901C41.4635 46.0798 41.5283 46.0694 41.595 46.0588C42.3083 45.941 43.0105 45.7811 43.7143 45.6165C43.854 45.5843 43.9937 45.5521 44.1334 45.5199C44.4972 45.4361 44.8608 45.3517 45.2244 45.2671C45.8058 45.132 46.3875 44.9978 46.9692 44.8636C47.169 44.8174 47.3689 44.7709 47.5687 44.7244C48.2105 44.5755 48.8531 44.4306 49.4975 44.2929C49.5589 44.2797 49.6203 44.2664 49.6836 44.2527C50.7195 44.0341 51.6361 44.1901 52.5571 44.73C53.3117 45.2362 53.7814 46.0162 53.9999 46.8906C54.0317 47.1359 54.0373 47.3759 54.0341 47.623C54.0334 47.688 54.0327 47.7529 54.032 47.8199C54.0064 48.7321 53.6719 49.4153 53.0624 50.0937C51.9873 51.1051 50.3042 51.3072 48.9215 51.6547C48.7691 51.6932 48.6167 51.7318 48.4642 51.7703C47.9865 51.8911 47.5087 52.0115 47.0308 52.1316C46.541 52.2547 46.0514 52.3785 45.5619 52.5027C45.1383 52.6101 44.7146 52.7171 44.2907 52.8238C44.039 52.8871 43.7874 52.9506 43.5359 53.0145C41.0621 53.6418 41.0621 53.6418 39.7617 53.6338C39.6848 53.6333 39.6079 53.6329 39.5287 53.6324C38.5746 53.6168 37.6852 53.4735 36.7816 53.1666C36.7212 53.1462 36.6608 53.1259 36.5986 53.1049C35.9222 52.8737 35.2589 52.6107 34.5956 52.3447C34.4014 52.2672 34.2071 52.1898 34.0127 52.1124C33.8831 52.0608 33.7534 52.0091 33.6238 51.9573C33.2169 51.7951 32.809 51.6355 32.4002 51.478C32.2992 51.439 32.1982 51.3999 32.0973 51.3609C31.9127 51.2897 31.728 51.2189 31.5432 51.1485C30.5552 50.7656 30.5552 50.7656 30.2988 50.416C30.2313 50.1866 30.2213 50.0199 30.2499 49.7812C30.4966 49.3454 30.4966 49.3454 30.7187 49.2344C31.3151 49.1867 31.7426 49.3233 32.2906 49.5487C32.3727 49.5813 32.4547 49.6139 32.5392 49.6475C32.8036 49.7528 33.0673 49.8598 33.331 49.9668C33.5122 50.0392 33.6934 50.1115 33.8747 50.1836C34.2281 50.3244 34.5814 50.4657 34.9344 50.6075C35.4925 50.8317 36.0516 51.0528 36.6122 51.2705C36.6857 51.2997 36.7593 51.3289 36.835 51.359C37.7612 51.7189 38.6862 51.9038 39.6786 51.915C39.7413 51.9173 39.804 51.9196 39.8686 51.9219C40.3464 51.9266 40.7962 51.8549 41.2623 51.76C41.3643 51.7394 41.3643 51.7394 41.4685 51.7183C42.2917 51.5483 43.1055 51.3415 43.92 51.1341C44.0878 51.0916 44.2556 51.0492 44.4234 51.0069C44.7723 50.9187 45.1212 50.8302 45.47 50.7415C45.9131 50.6289 46.3562 50.5168 46.7995 50.4048C47.1451 50.3175 47.4907 50.23 47.8363 50.1424C47.9995 50.1011 48.1628 50.0597 48.326 50.0184C48.7691 49.9063 49.2119 49.7932 49.6542 49.6782C49.7909 49.6427 49.9278 49.6075 50.0647 49.5725C50.258 49.5228 50.4511 49.472 50.644 49.4208C50.7004 49.4065 50.7567 49.3923 50.8147 49.3776C51.1717 49.281 51.4335 49.1337 51.7343 48.9219C51.7859 48.9219 51.8374 48.9219 51.8906 48.9219C51.9115 48.88 51.9325 48.8381 51.954 48.7949C52.0468 48.6094 52.0468 48.6094 52.1738 48.4189C52.3715 47.9066 52.3853 47.2889 52.164 46.7783C51.918 46.3658 51.5348 46.117 51.1044 45.9238C50.5678 45.8096 50.0901 45.9122 49.5677 46.0362C49.4933 46.0534 49.4189 46.0705 49.3422 46.0882C49.1811 46.1254 49.0201 46.1629 48.8591 46.2006C48.6027 46.2606 48.3462 46.3199 48.0897 46.379C47.4516 46.5261 46.8138 46.6744 46.176 46.8228C45.638 46.948 45.0999 47.0726 44.5617 47.1965C44.3118 47.2542 44.062 47.3128 43.8123 47.3713C42.1642 47.7536 40.5835 48.0334 38.8925 47.8135C38.829 47.8056 38.7654 47.7977 38.6999 47.7896C37.3514 47.5936 36.0631 47.0067 34.8007 46.5195C34.6112 46.4466 34.4217 46.3736 34.2322 46.3007C33.9434 46.1895 33.6545 46.0783 33.3658 45.9669C32.8221 45.7575 32.2776 45.5505 31.7317 45.3467C31.4131 45.2277 31.0948 45.1076 30.7766 44.9874C30.6284 44.9317 30.4799 44.8765 30.3313 44.8218C30.1261 44.7462 29.9215 44.6689 29.7171 44.5911C29.6576 44.5697 29.598 44.5483 29.5367 44.5262C29.1365 44.3713 28.929 44.2014 28.6874 43.8437C28.6314 43.4948 28.6618 43.3429 28.8339 43.0332C28.9999 42.8281 28.9999 42.8281 29.1562 42.75C29.7468 42.704 30.1721 42.8345 30.7159 43.0555C30.7966 43.0871 30.8772 43.1188 30.9603 43.1514C31.2171 43.2525 31.4733 43.3552 31.7294 43.458C31.8987 43.525 32.068 43.5919 32.2374 43.6586C32.5668 43.7887 32.896 43.9193 33.2251 44.0504C33.6474 44.2186 34.0701 44.3858 34.4934 44.5514C34.5503 44.5739 34.6072 44.5963 34.6659 44.6194C35.3338 44.88 35.8879 44.9556 36.5701 44.7001C37.1364 44.4411 37.3805 44.0206 37.5937 43.4531C37.7359 42.94 37.6756 42.4451 37.4374 41.9687C37.1402 41.5351 36.8295 41.3114 36.3486 41.1142C36.2828 41.0859 36.2171 41.0576 36.1493 41.0285C35.9024 40.9232 35.6544 40.8209 35.4062 40.7187C35.2997 40.6747 35.1933 40.6306 35.0868 40.5866C34.4566 40.3259 33.8255 40.0674 33.194 39.8099C32.3251 39.4556 31.4583 39.0963 30.5917 38.7363C30.3867 38.6511 30.1817 38.566 29.9766 38.4808C29.8548 38.4302 29.7329 38.3796 29.611 38.3289C29.5566 38.3063 29.5022 38.2837 29.4462 38.2604C29.3994 38.241 29.3525 38.2215 29.3043 38.2014C29.2554 38.1813 29.2065 38.1613 29.1562 38.1406C29.1004 38.1129 29.0447 38.0851 28.9872 38.0566C28.6749 37.9548 28.3808 37.9603 28.0543 37.9595C27.9822 37.9587 27.9101 37.9579 27.8359 37.957C27.6033 37.9547 27.3707 37.9533 27.1381 37.952C26.9942 37.9507 26.8503 37.9493 26.7064 37.9478C26.1737 37.9429 25.641 37.9393 25.1083 37.9355C23.9176 37.9259 22.7268 37.9162 21.4999 37.9062C21.4999 40.7937 21.4999 43.6812 21.4999 46.6562C22.6085 46.6562 23.7171 46.6562 24.8593 46.6562C25.3281 47.0469 25.3281 47.0469 25.3992 47.208C25.4201 47.4742 25.4192 47.6393 25.3183 47.8916C25.1169 48.1266 24.9362 48.2774 24.6195 48.3171C24.421 48.324 24.2238 48.3232 24.0253 48.3198C23.953 48.3194 23.8807 48.3191 23.8062 48.3187C23.5762 48.3174 23.3462 48.3145 23.1161 48.3115C22.9598 48.3103 22.8035 48.3093 22.6472 48.3083C22.2648 48.3057 21.8824 48.3017 21.4999 48.2969C21.5036 48.3656 21.5072 48.4344 21.5109 48.5053C21.5137 48.596 21.5166 48.6868 21.5195 48.7803C21.5231 48.87 21.5267 48.9597 21.5305 49.0522C21.4941 49.3625 21.4043 49.4834 21.1874 49.7031C20.9421 49.8258 20.6795 49.7948 20.4101 49.7963C20.3459 49.7969 20.2817 49.7976 20.2156 49.7982C20.0028 49.8002 19.7899 49.8015 19.577 49.8026C19.5044 49.803 19.4318 49.8034 19.3569 49.8039C18.9725 49.8059 18.5881 49.8075 18.2037 49.8086C17.8064 49.8099 17.4093 49.8134 17.012 49.8174C16.7067 49.82 16.4015 49.8209 16.0962 49.8213C15.9498 49.8219 15.8033 49.8231 15.6569 49.8249C15.4519 49.8274 15.247 49.8274 15.042 49.8268C14.9816 49.8281 14.9211 49.8294 14.8588 49.8307C14.5676 49.8273 14.4133 49.7986 14.1798 49.6202C13.9603 49.34 13.9447 49.1363 13.9498 48.7946C13.9491 48.7352 13.9485 48.6758 13.9478 48.6146C13.9461 48.4159 13.9471 48.2173 13.9481 48.0185C13.9475 47.876 13.9467 47.7334 13.9457 47.5908C13.9436 47.2037 13.9439 46.8167 13.9449 46.4296C13.9454 46.1065 13.9448 45.7834 13.9441 45.4604C13.9426 44.6983 13.943 43.9362 13.9447 43.1742C13.9465 42.3877 13.9451 41.6014 13.9421 40.8149C13.9397 40.1398 13.9391 39.4647 13.9399 38.7896C13.9404 38.3863 13.9403 37.9831 13.9384 37.5799C13.9368 37.2007 13.9374 36.8217 13.9398 36.4425C13.9403 36.3034 13.94 36.1642 13.9388 36.025C13.9373 35.8351 13.9388 35.6453 13.9409 35.4554C13.9393 35.3727 13.9393 35.3727 13.9376 35.2883C13.9425 35.0745 13.9615 34.9073 14.0976 34.7376C14.4201 34.4516 14.7037 34.413 15.1181 34.4194ZM15.5624 36.1094C15.5624 40.0797 15.5624 44.05 15.5624 48.1406C16.9804 48.1406 18.3984 48.1406 19.8593 48.1406C19.8593 44.1703 19.8593 40.2 19.8593 36.1094C18.4413 36.1094 17.0234 36.1094 15.5624 36.1094Z" fill="#1A1A1A"/>
<path d="M33.8924 18.873C34.0886 19.0898 34.1398 19.229 34.2294 19.5029C34.3704 19.922 34.4712 20.1084 34.8592 20.3281C35.237 20.4451 35.542 20.4423 35.9042 20.2792C36.2991 20.0486 36.4038 19.7647 36.534 19.3417C36.6033 19.1268 36.6445 19.0128 36.7977 18.8437C37.2288 18.6466 37.581 18.6943 38.0184 18.8388C38.0998 18.8652 38.0998 18.8652 38.1828 18.8921C39.1618 19.2258 39.9961 19.7582 40.7967 20.4062C40.8828 20.4743 40.8828 20.4743 40.9707 20.5438C41.3132 20.8236 41.4802 21.0101 41.5292 21.4511C41.4866 21.8623 41.2952 22.0891 41.0165 22.3837C40.8164 22.6803 40.7719 22.9414 40.7967 23.2968C40.8907 23.6157 41.0141 23.8403 41.2673 24.0573C41.6618 24.225 42.0705 24.1595 42.4917 24.1333C42.8404 24.1213 43.0063 24.1163 43.298 24.3237C43.4595 24.5562 43.5305 24.7255 43.5897 25.0009C43.607 25.0772 43.6244 25.1534 43.6422 25.2319C43.8298 26.2799 43.8451 27.359 43.663 28.4091C43.6538 28.4631 43.6446 28.5171 43.6351 28.5727C43.5559 28.9802 43.4456 29.2653 43.1252 29.5349C42.8354 29.654 42.5931 29.6192 42.2909 29.581C41.7948 29.526 41.7948 29.526 41.3241 29.6591C41.0202 29.9423 40.8163 30.2229 40.7845 30.6473C40.8204 31.1157 41.0438 31.4265 41.3631 31.7636C41.5137 31.9894 41.5605 32.1573 41.5432 32.4298C41.343 33.1867 40.2935 33.794 39.6496 34.1748C37.9107 35.1569 37.9107 35.1569 37.0467 35.0156C36.6294 34.7447 36.5342 34.4441 36.3754 33.9902C36.2256 33.6841 36.0203 33.5258 35.7186 33.3749C35.2117 33.312 34.876 33.3778 34.4686 33.6874C34.3379 33.8929 34.2569 34.086 34.1824 34.317C34.093 34.5845 34.0386 34.7467 33.8241 34.9374C33.1305 35.1896 32.4304 34.8389 31.8015 34.5475C31.0893 34.2027 30.4555 33.8214 29.8592 33.2968C29.7698 33.2284 29.6803 33.16 29.5907 33.0917C29.3646 32.8822 29.2554 32.7294 29.1561 32.4374C29.1378 31.9524 29.3586 31.6921 29.6566 31.3373C29.8828 31.065 29.8854 30.8536 29.8815 30.5093C29.8394 30.1668 29.6418 29.9614 29.4149 29.7177C28.9505 29.4792 28.4387 29.5409 27.9418 29.6356C27.6454 29.6191 27.5029 29.5047 27.2811 29.3124C26.8233 28.2664 26.8398 26.9853 26.9491 25.8701C26.9548 25.8106 26.9606 25.7512 26.9665 25.6899C27.0264 25.1787 27.1127 24.6744 27.445 24.2685C27.8226 24.0815 28.1947 24.1429 28.6063 24.1684C29.0436 24.185 29.2771 24.1387 29.6249 23.8437C29.871 23.5566 29.8998 23.2941 29.887 22.9279C29.8302 22.564 29.6518 22.2961 29.3758 22.0517C29.1965 21.8476 29.1765 21.6928 29.1393 21.4294C29.194 20.8957 29.7311 20.5167 30.1152 20.199C30.9975 19.5088 32.7845 18.2926 33.8924 18.873ZM32.7499 20.5624C32.5624 20.6596 32.3753 20.7573 32.1883 20.8554C32.1357 20.8826 32.0831 20.9098 32.0289 20.9378C31.7213 21.0998 31.4523 21.2716 31.1874 21.4999C31.2034 21.548 31.2194 21.596 31.2359 21.6455C31.5306 22.5297 31.6968 23.4329 31.2753 24.3097C31.2463 24.3622 31.2172 24.4146 31.1874 24.4687C31.1422 24.5509 31.0971 24.633 31.0506 24.7177C30.5644 25.3255 30.0081 25.7161 29.2278 25.8328C29.0214 25.8524 28.8164 25.8671 28.6092 25.8749C28.5463 26.5381 28.5215 27.1667 28.6092 27.8281C28.6688 27.8357 28.7283 27.8434 28.7896 27.8513C29.5831 27.9662 30.2917 28.1898 30.8749 28.7656C31.4523 29.5402 31.5821 30.3126 31.4999 31.2656C31.4199 31.5895 31.3158 31.8953 31.1874 32.2031C31.6393 32.5818 32.1085 32.9453 32.6717 33.1406C32.9508 33.0476 32.9836 32.9725 33.1454 32.7353C33.5673 32.1751 34.1051 31.8944 34.7811 31.7343C35.7027 31.6486 36.4699 31.7728 37.203 32.3593C37.692 32.8686 37.692 32.8686 37.828 33.1406C38.4211 32.9803 38.9871 32.6599 39.4686 32.2812C39.4212 32.0206 39.355 31.7792 39.2684 31.5292C39.0353 30.7552 39.1102 29.9936 39.4912 29.2801C39.89 28.6424 40.3878 28.2137 41.1092 27.9843C41.4203 27.9184 41.7315 27.8686 42.0467 27.8281C42.138 27.5028 42.1363 27.1871 42.1346 26.8515C42.1349 26.7922 42.1352 26.7329 42.1355 26.6718C42.1351 26.3929 42.122 26.1431 42.0467 25.8749C41.9759 25.8682 41.9051 25.8614 41.8322 25.8545C40.989 25.7572 40.3947 25.5371 39.7811 24.9374C39.2615 24.2772 39.0661 23.5029 39.1561 22.6718C39.2465 22.2651 39.3902 21.8852 39.5467 21.4999C39.3874 21.4004 39.2279 21.3012 39.0682 21.2021C39.0237 21.1742 38.9792 21.1464 38.9333 21.1177C38.4458 20.7774 38.4458 20.7774 37.8899 20.647C37.7107 20.7388 37.6474 20.8372 37.5399 21.0068C37.0886 21.6363 36.4703 21.919 35.7186 22.0468C34.9861 22.127 34.298 21.9549 33.6837 21.5466C33.3879 21.3047 33.1505 21.0107 32.9061 20.7187C32.8546 20.6671 32.803 20.6156 32.7499 20.5624Z" fill="#1A1A1A"/>
<path d="M40.7972 15.6407C40.8465 15.6647 40.8958 15.6886 40.9466 15.7133C41.9575 16.2103 42.8553 16.8284 43.6796 17.5975C43.8138 17.722 43.9494 17.8372 44.0931 17.9503C46.2839 19.849 47.5569 23.0022 47.8143 25.8315C48.0538 29.2187 47.0537 32.5677 44.8233 35.1482C43.9865 36.098 43.9865 36.098 43.5413 36.1339C43.2454 36.1257 43.0617 36.0672 42.8284 35.8751C42.6494 35.5833 42.6466 35.3694 42.6945 35.0371C42.7762 34.7771 42.9238 34.6561 43.1238 34.4777C44.9976 32.693 46.0321 29.8897 46.1289 27.3485C46.1936 24.3026 45.0934 21.4957 42.992 19.2939C41.0484 17.3037 38.3118 16.1413 35.5368 16.0874C34.612 16.0794 33.7289 16.1284 32.8284 16.3439C32.7466 16.3633 32.7466 16.3633 32.6631 16.3832C30.8355 16.8358 29.2099 17.7272 27.8284 19.0001C27.7546 19.0675 27.6808 19.1349 27.6047 19.2043C25.6207 21.0985 24.4648 23.8222 24.3763 26.555C24.3627 27.2817 24.4036 27.9734 24.5472 28.6876C24.5839 28.6378 24.6207 28.5879 24.6586 28.5365C24.7315 28.4397 24.7315 28.4397 24.806 28.3409C24.854 28.2766 24.902 28.2122 24.9515 28.1459C25.1476 27.9238 25.2967 27.9099 25.5872 27.8771C25.9632 27.9153 26.0964 28.014 26.344 28.297C26.4431 28.6097 26.474 28.7822 26.3605 29.0883C26.1425 29.5029 25.8571 29.8765 25.5774 30.251C25.4546 30.4189 25.3365 30.5867 25.221 30.7594C25.1901 30.8055 25.1591 30.8515 25.1272 30.899C25.0396 31.03 24.9527 31.1614 24.8658 31.2929C24.6368 31.5852 24.6368 31.5852 24.3909 31.6564C23.9352 31.7073 23.644 31.5853 23.263 31.3536C23.2098 31.3224 23.1566 31.2911 23.1018 31.259C22.9317 31.1584 22.7629 31.0559 22.594 30.9532C22.5361 30.9186 22.4781 30.884 22.4183 30.8483C22.2469 30.7458 22.0761 30.6423 21.9056 30.5382C21.8528 30.5063 21.8 30.4745 21.7457 30.4416C21.4818 30.2773 21.2618 30.1351 21.1097 29.8595C21.0681 29.4854 21.053 29.3232 21.2562 29.005C21.4777 28.7899 21.6044 28.7512 21.9056 28.7413C21.9918 28.7369 21.9918 28.7369 22.0798 28.7325C22.374 28.781 22.5755 28.9217 22.8284 29.0782C22.8115 28.963 22.8115 28.963 22.7942 28.8454C22.3375 25.5283 23.1028 22.116 25.123 19.4173C25.4185 19.0351 25.741 18.6807 26.0768 18.3339C26.1888 18.2178 26.2991 18.1001 26.4094 17.9823C30.0392 14.1642 36.1457 13.3524 40.7972 15.6407Z" fill="#1A1A1A"/>
<path d="M37.4253 24.0928C38.142 24.6942 38.6229 25.4057 38.7659 26.3438C38.8366 27.4565 38.6048 28.2592 37.97 29.1661C37.3793 29.8285 36.5556 30.2083 35.6849 30.3184C34.7007 30.3714 33.8032 30.0762 33.0246 29.4749C32.6602 29.1318 32.414 28.7486 32.2034 28.2969C32.1793 28.2482 32.1553 28.1994 32.1305 28.1492C31.7685 27.3249 31.849 26.3982 32.1253 25.5625C32.5453 24.6124 33.1983 23.9974 34.1565 23.6094C35.252 23.2195 36.4887 23.4129 37.4253 24.0928ZM33.8831 25.7823C33.5872 26.229 33.4766 26.6721 33.5682 27.2025C33.7123 27.7475 33.9865 28.1551 34.469 28.4532C35.0087 28.7098 35.4687 28.7287 36.0315 28.5313C36.4975 28.2893 36.8503 27.9202 37.0765 27.4473C37.195 26.8544 37.1514 26.4349 36.8561 25.8985C36.5738 25.4808 36.2203 25.1921 35.719 25.0938C34.9879 25.001 34.3571 25.199 33.8831 25.7823Z" fill="#1A1A1A"/>
<path d="M27.9844 47.9063C28.2608 48.0353 28.3602 48.1185 28.5312 48.3751C28.5739 48.6145 28.5737 48.8387 28.5312 49.0782C28.3608 49.2935 28.2288 49.4247 27.9844 49.5469C27.6882 49.5806 27.5328 49.5552 27.2617 49.4249C26.992 49.1858 26.933 49.0443 26.8906 48.6876C26.9759 48.4032 27.0628 48.2096 27.2617 47.9893C27.5165 47.869 27.7059 47.877 27.9844 47.9063Z" fill="#1A1A1A"/>
<path d="M41.1094 36.3438C41.3378 36.5225 41.469 36.6537 41.5733 36.9249C41.582 37.2831 41.4945 37.5128 41.2559 37.7794C40.9633 37.9448 40.7353 37.9741 40.4063 37.9063C40.1868 37.7662 40.054 37.6705 39.9376 37.4376C39.9047 37.1986 39.9001 36.9731 39.9376 36.7345C40.2828 36.2866 40.5667 36.2128 41.1094 36.3438Z" fill="#1A1A1A"/>
</g>
<defs>
<clipPath id="clip0_18919_538139">
<rect width="40" height="40" fill="white" transform="translate(14 14)"/>
</clipPath>
</defs>
</svg>
