<svg width="50" height="50" viewBox="0 0 50 50" fill="none" xmlns="http://www.w3.org/2000/svg">
<g clip-path="url(#clip0_18115_35811)">
<path fill-rule="evenodd" clip-rule="evenodd" d="M33.8411 30.788C33.4895 30.788 29.305 28.2588 28.657 27.8856C28.3778 27.725 28.2799 27.3658 28.4425 27.0855L42.7661 2.27647C43.7036 0.652541 45.7995 0.0906246 47.4243 1.02842C49.0526 1.96885 49.6128 4.05832 48.6727 5.68664L34.3491 30.4953C34.2407 30.6831 34.0438 30.7883 33.8411 30.7883V30.788ZM29.75 27.1631L33.6269 29.4017L47.6578 5.10012C48.5106 3.6212 47.4442 1.74503 45.7268 1.74503C44.9241 1.74503 44.1782 2.17305 43.7806 2.86212L29.75 27.1634V27.1631Z" fill="#F4C430"/>
<path fill-rule="evenodd" clip-rule="evenodd" d="M28.4138 34.54C28.0766 34.54 27.8017 34.2479 27.8296 33.9063L28.3654 27.3291C28.4272 26.5662 29.5971 26.65 29.5335 27.4246L29.0981 32.7684L33.5082 29.7194C34.1437 29.2806 34.809 30.245 34.175 30.6833L28.7472 34.4363C28.6467 34.5045 28.5304 34.5394 28.4138 34.5394V34.54Z" fill="#F4C430"/>
<path fill-rule="evenodd" clip-rule="evenodd" d="M47.7166 6.75481C47.3668 6.75481 43.1779 4.22442 42.5328 3.85177C41.8645 3.46593 42.4508 2.45225 43.1187 2.83721L48.0102 5.66144C48.529 5.96115 48.311 6.75481 47.7166 6.75481Z" fill="#F4C430"/>
<path fill-rule="evenodd" clip-rule="evenodd" d="M46.3198 9.17432C45.9691 9.17432 41.7822 6.64452 41.1357 6.27128C40.4671 5.88573 41.0539 4.87147 41.7216 5.25672L46.6133 8.08095C47.1316 8.37978 46.9154 9.17432 46.3198 9.17432Z" fill="#F4C430"/>
<path fill-rule="evenodd" clip-rule="evenodd" d="M33.2243 49.9993H3.60182C2.09625 49.9993 0.871338 48.7741 0.871338 47.2688V2.73097C0.871338 1.2254 2.09625 0.000488281 3.60182 0.000488281L33.2243 0.000781251C34.7299 0.000781251 35.9548 1.2254 35.9548 2.73097V16.2603C35.9548 16.3632 35.9275 16.4642 35.8763 16.5533L29.7506 27.1626L33.6274 29.4012L34.8611 27.2643C35.1597 26.7466 35.9542 26.9616 35.9542 27.5572V47.2691C35.9548 48.775 34.7296 49.9996 33.224 49.9996L33.2243 49.9993ZM3.60182 1.17207C2.74254 1.17207 2.04292 1.87139 2.04292 2.73097V47.2694C2.04292 48.1287 2.74224 48.828 3.60182 48.828H33.2243C34.0836 48.828 34.7829 48.1287 34.7829 47.2694V29.7443C34.4931 30.2464 34.1829 31.0758 33.5498 30.7093L28.6575 27.8851C28.3783 27.7242 28.2804 27.3653 28.4433 27.0847L34.7832 16.103V2.73097C34.7832 1.87169 34.0839 1.17207 33.2246 1.17207H3.60211H3.60182Z" fill="#F4C430"/>
<path fill-rule="evenodd" clip-rule="evenodd" d="M11.5032 26.7112H4.60669C3.85845 26.7112 3.25024 26.1024 3.25024 25.3541V19.7856C3.25024 19.038 3.85904 18.4292 4.60669 18.4292H11.5029C12.2509 18.4292 12.8594 19.038 12.8594 19.7856V25.3541C12.8597 26.1024 12.2512 26.7112 11.5032 26.7112ZM4.60669 19.6008C4.50621 19.6008 4.42154 19.6855 4.42154 19.7854V25.3538C4.42154 25.454 4.50621 25.5387 4.60669 25.5387H11.5029C11.6031 25.5387 11.6875 25.454 11.6875 25.3538V19.7854C11.6875 19.6852 11.6028 19.6008 11.5029 19.6008H4.60669Z" fill="#F4C430"/>
<path fill-rule="evenodd" clip-rule="evenodd" d="M25.6374 27.3531H19.9834C19.2352 27.3531 18.627 26.7443 18.627 25.996V21.7983C18.627 21.0504 19.2357 20.4419 19.9834 20.4419H25.6377C26.386 20.4419 26.9948 21.0507 26.9948 21.7983V25.996C26.9942 26.7446 26.3857 27.3531 25.6374 27.3531ZM19.9834 21.6138C19.8829 21.6138 19.7982 21.6984 19.7982 21.7983V25.996C19.7982 26.0962 19.8829 26.1806 19.9834 26.1806H25.6377C25.7379 26.1806 25.8223 26.0959 25.8223 25.996V21.7983C25.8223 21.6981 25.7376 21.6138 25.6377 21.6138H19.9834Z" fill="#F4C430"/>
<path fill-rule="evenodd" clip-rule="evenodd" d="M25.6374 36.5194H19.9834C19.2352 36.5194 18.627 35.9106 18.627 35.1623V30.9644C18.627 30.2164 19.2357 29.6079 19.9834 29.6079H25.6377C26.386 29.6079 26.9948 30.2167 26.9948 30.9644V35.1617C26.9942 35.9103 26.3857 36.5194 25.6374 36.5194ZM19.9834 30.7798C19.8829 30.7798 19.7982 30.8642 19.7982 30.9644V35.162C19.7982 35.2622 19.8829 35.3466 19.9834 35.3466H25.6377C25.7379 35.3466 25.8223 35.2619 25.8223 35.162V30.9644C25.8223 30.8642 25.7376 30.7798 25.6377 30.7798H19.9834Z" fill="#F4C430"/>
<path fill-rule="evenodd" clip-rule="evenodd" d="M25.6374 45.6854H19.9834C19.2352 45.6854 18.627 45.0766 18.627 44.3283V40.1307C18.627 39.3827 19.2357 38.7742 19.9834 38.7742L25.6377 38.7739C26.386 38.7739 26.9948 39.3827 26.9948 40.1307V44.3281C26.9942 45.0763 26.3857 45.6854 25.6374 45.6854ZM19.9834 39.9458C19.8829 39.9458 19.7982 40.0302 19.7982 40.1304V44.3281C19.7982 44.4282 19.8829 44.5126 19.9834 44.5126H25.6377C25.7379 44.5126 25.8223 44.428 25.8223 44.3281V40.1304C25.8223 40.0302 25.7376 39.9458 25.6377 39.9458H19.9834Z" fill="#F4C430"/>
<path fill-rule="evenodd" clip-rule="evenodd" d="M19.2127 33.6505H8.05493C7.7315 33.6505 7.46899 33.3877 7.46899 33.0646V26.1253C7.46899 25.3539 8.64087 25.3542 8.64087 26.1253V32.4781H19.2127C19.9841 32.4781 19.9841 33.6505 19.2127 33.6505Z" fill="#F4C430"/>
<path fill-rule="evenodd" clip-rule="evenodd" d="M16.1191 33.6506C15.7957 33.6506 15.5332 33.3878 15.5332 33.0647V23.898C15.5332 23.5745 15.7957 23.312 16.1191 23.312H19.2123C19.9837 23.312 19.9837 24.4839 19.2123 24.4839H16.7051V33.0644C16.7051 33.3878 16.4432 33.6506 16.1191 33.6506Z" fill="#F4C430"/>
<path fill-rule="evenodd" clip-rule="evenodd" d="M19.2128 42.8164H16.1196C15.7962 42.8164 15.5337 42.5536 15.5337 42.2304V33.0643C15.5337 32.2929 16.7056 32.2932 16.7056 33.0643V41.6445H19.2128C19.9839 41.6445 19.9845 42.8164 19.2128 42.8164Z" fill="#F4C430"/>
<path fill-rule="evenodd" clip-rule="evenodd" d="M28.0661 8.396H6.77361C6.00222 8.396 6.00222 7.22412 6.77361 7.22412H28.0661C28.8375 7.22412 28.8375 8.396 28.0661 8.396Z" fill="#F4C430"/>
<path fill-rule="evenodd" clip-rule="evenodd" d="M28.0661 14.4619H6.77361C6.00222 14.4619 6.00222 13.29 6.77361 13.29H28.0661C28.8375 13.29 28.8375 14.4619 28.0661 14.4619Z" fill="#F4C430"/>
</g>
<defs>
<clipPath id="clip0_18115_35811">
<rect width="50" height="50" fill="white"/>
</clipPath>
</defs>
</svg>
