<svg width="50" height="50" viewBox="0 0 50 50" fill="none" xmlns="http://www.w3.org/2000/svg">
<path fill-rule="evenodd" clip-rule="evenodd" d="M23.1693 29.6134C22.8764 29.6134 22.5835 29.4669 22.3492 29.2619L19.1272 26.0105C18.0141 24.9268 19.6837 23.2865 20.7675 24.3702L23.1693 26.7721L29.2033 20.7381C30.3164 19.6544 31.9567 21.2947 30.8729 22.3784L24.0188 29.2619C23.7845 29.4669 23.4915 29.6134 23.1693 29.6134ZM24.9854 50C24.8975 50 24.7804 49.9707 24.6925 49.9414C14.3527 47.2173 9.25604 40.7733 6.79558 35.8231C4.13009 30.4921 3.92505 25.8055 3.92505 25.6005V4.48155C3.92505 3.60281 4.89166 3.01699 5.68252 3.48565C12.8589 7.6157 21.6462 2.37258 24.2531 0.26362C24.6925 -0.0878735 25.3076 -0.0878735 25.7177 0.26362C28.3539 2.37258 37.1412 7.6157 44.3176 3.48565C45.0791 3.01699 46.075 3.60281 46.075 4.48155V25.6005C46.075 25.8055 45.8407 30.4921 43.2045 35.8231C40.744 40.7733 35.6474 47.2173 25.3076 49.9414C25.1904 49.9707 25.1026 50 24.9854 50ZM6.26834 25.5712C6.29763 25.8641 6.56125 30.1406 8.93384 34.8858C12.1559 41.2712 17.5454 45.577 24.9854 47.5981C32.4253 45.577 37.8442 41.2712 41.0662 34.8858C43.4388 30.1406 43.7024 25.8934 43.7317 25.5712V6.35618C36.5847 9.22671 28.9104 5.41886 24.9854 2.6362C20.8846 5.56532 13.2689 9.19742 6.26834 6.35618V25.5712ZM24.9854 36.5847C18.5999 36.5847 13.4154 31.3708 13.4154 24.9854C13.4154 18.5999 18.5999 13.4153 24.9854 13.4153C31.3709 13.4153 36.5847 18.5999 36.5847 24.9854C36.5847 31.3708 31.3709 36.5847 24.9854 36.5847ZM24.9854 15.7586C19.8887 15.7586 15.7587 19.8887 15.7587 24.9854C15.7587 30.082 19.8887 34.2414 24.9854 34.2414C30.0821 34.2414 34.2414 30.082 34.2414 24.9854C34.2414 19.8887 30.0821 15.7586 24.9854 15.7586Z" fill="#F4C430"/>
</svg>
