<svg width="50" height="50" viewBox="0 0 50 50" fill="none" xmlns="http://www.w3.org/2000/svg">
<g clip-path="url(#clip0_18117_35968)">
<path d="M3.36073 27.6514C3.90013 27.6514 4.33729 27.2142 4.33729 26.6748C4.33729 26.1354 3.90013 25.6982 3.36073 25.6982H3.35997C2.82057 25.6982 2.38379 26.1354 2.38379 26.6748C2.38379 27.2142 2.82172 27.6514 3.36073 27.6514Z" fill="#F4C430"/>
<path d="M2.38342 35.7027L0.57373 36.5331C0.227738 36.6922 0.00534118 37.0378 0.00457824 37.4189L6.1403e-07 39.6715C-0.000380855 40.0133 0.177002 40.3303 0.469208 40.5077L1.46942 41.1165C1.93023 41.3969 2.53105 41.2508 2.81143 40.7899C3.09181 40.3291 2.94532 39.7283 2.48451 39.4479L1.95427 39.1252L1.95656 38.0476L3.36227 37.4025L4.76531 38.0518L4.76302 39.1294L4.23164 39.4506C3.76968 39.7295 3.62167 40.3299 3.90052 40.7915C4.08401 41.0951 4.40673 41.2634 4.73746 41.2634C4.90951 41.2634 5.08346 41.218 5.24138 41.1222L6.2435 40.5168C6.53571 40.3402 6.71462 40.024 6.715 39.6829L6.71958 37.4303C6.72034 37.0489 6.49909 36.7021 6.1531 36.5419L4.33616 35.7011V30.5811C4.33616 30.0417 3.899 29.6045 3.3596 29.6045C2.82058 29.6045 2.38304 30.0417 2.38304 30.5811V35.7027H2.38342Z" fill="#F4C430"/>
<path d="M48.3057 46.2555C47.2552 47.3938 45.7655 48.0469 44.2187 48.0469C42.7985 48.0469 41.4271 47.4949 40.3986 46.5237V38.306C40.6558 38.1302 40.8244 37.8349 40.8244 37.5V33.7891H41.8944C42.4338 33.7891 42.8709 33.3519 42.8709 32.8125C42.8709 32.2731 42.4338 31.8359 41.8944 31.8359H37.881V10.3584C37.881 9.81903 37.4434 9.38187 36.9044 9.38187H29.8789C29.3395 9.38187 28.9023 9.81903 28.9023 10.3584V16.2109H26.9492V7.86362C26.9492 7.32422 26.5117 6.88705 25.9726 6.88705H23.043V4.90913C23.043 3.27911 24.3689 1.95312 25.999 1.95312H34.1307C34.6701 1.95312 35.1073 1.51596 35.1073 0.976562C35.1073 0.437164 34.6701 0 34.1307 0H25.999C23.2921 0 21.0898 2.20222 21.0898 4.90913V16.2109H18.1601C17.6208 16.2109 17.1836 16.6481 17.1836 17.1875V17.5907L13.2396 11.3113C12.6918 10.4389 11.8369 9.832 10.8329 9.60274C9.82848 9.37347 8.79508 9.54895 7.92304 10.0967C6.91482 10.73 6.30104 11.7561 6.15379 12.8525L1.08635 17.6926C0.408103 18.3407 0.0224374 19.2142 0.00107513 20.1519C-0.0206687 21.0903 0.324561 21.9803 0.972677 22.6589C1.66199 23.3803 2.58705 23.7434 3.51364 23.7434C4.38644 23.7434 5.26039 23.4211 5.9394 22.7726L9.30892 19.5545L13.2899 25.893C12.4595 26.749 11.9468 27.9152 11.9468 29.1992V31.8359H8.10538C7.56637 31.8359 7.12882 32.2731 7.12882 32.8125C7.12882 33.3519 7.56637 33.7891 8.10538 33.7891H9.1838V37.5C9.1838 37.8345 9.35279 38.1298 9.60952 38.306V46.5157C8.58031 47.4922 7.2055 48.0469 5.78148 48.0469C4.23462 48.0469 2.74498 47.3938 1.69403 46.2555C1.32859 45.8591 0.710608 45.8344 0.314261 46.2002C-0.0820852 46.5656 -0.106881 47.1836 0.258948 47.58C1.67839 49.118 3.69103 50 5.78148 50C7.54043 50 9.24445 49.3755 10.5861 48.2613C11.9277 49.3755 13.6317 50 15.3907 50C17.1496 50 18.8537 49.3755 20.1953 48.2613C21.5369 49.3755 23.2409 50 24.9999 50C26.7588 50 28.4629 49.3755 29.8045 48.2613C31.1465 49.3755 32.8505 50 34.6095 50C36.3684 50 38.0725 49.3755 39.4141 48.2613C40.7557 49.3755 42.4597 50 44.2187 50C46.3088 50 48.3218 49.118 49.7408 47.58C50.1067 47.1836 50.0819 46.566 49.6859 46.2002C49.2892 45.8344 48.6716 45.8591 48.3057 46.2555ZM36.5691 47.6879L33.5921 44.7113L38.4455 39.8579V46.5084C37.9023 47.0257 37.2626 47.4258 36.5691 47.6879ZM13.4311 47.6879C12.741 47.4274 12.1043 47.0295 11.5626 46.516V39.8659L16.4077 44.7113L13.4311 47.6879ZM17.7886 43.33L12.9352 38.4766H22.6424L17.7886 43.33ZM27.3577 38.4766H37.0646L32.2112 43.33L27.3577 38.4766ZM35.9278 19.7952L31.4688 16.246L35.9278 12.4664V19.7952ZM35.3419 21.825L30.8554 25.3963V18.2541L35.3419 21.825ZM35.9278 23.8552V30.7873L31.5734 27.3212L35.9278 23.8552ZM30.8554 29.2461L34.1094 31.8359H30.8554V29.2461ZM34.2417 11.335L30.8554 14.2059V11.335H34.2417ZM23.043 8.84018H24.9961V16.2109H23.043V8.84018ZM28.9023 18.1641V31.8359H19.1367V28.5809H23.8414C24.3804 28.5809 24.8179 28.1437 24.8179 27.6043C24.8179 27.0649 24.3804 26.6277 23.8414 26.6277H19.1367V23.3723H23.8414C24.3804 23.3723 24.8179 22.9351 24.8179 22.3961C24.8179 21.8567 24.3804 21.4195 23.8414 21.4195H19.1367V18.1641H28.9023ZM8.96178 11.7508C9.39246 11.4803 9.90249 11.3937 10.398 11.507C10.8935 11.6199 11.3151 11.9194 11.5855 12.3501L17.1275 21.1735C17.1451 21.2017 17.1637 21.2284 17.1836 21.2536V24.4465H16.6991C16.0659 24.4465 15.4616 24.572 14.9085 24.7978L10.3297 17.5076C10.3282 17.5049 10.3263 17.5018 10.3244 17.4992L8.3625 14.3749C7.80402 13.4865 8.07296 12.3093 8.96178 11.7508ZM4.59053 21.36C3.96873 21.9543 2.9792 21.9315 2.38488 21.3097C2.09725 21.0087 1.9439 20.6131 1.95343 20.1969C1.96297 19.7803 2.13425 19.3924 2.43561 19.1048L6.56425 15.1615C6.60926 15.2466 6.65657 15.3309 6.70845 15.414L8.24844 17.8661L4.59053 21.36ZM13.8999 29.1992C13.8999 27.6554 15.1557 26.3996 16.6991 26.3996H17.1836V31.8359H13.8999V29.1992ZM36.9025 33.7891H36.9036H38.8712V36.5234C38.8712 36.5234 24.9999 36.5234 24.9995 36.5234H11.1369V33.7891H36.9025ZM20.9128 46.2555C20.7282 46.0552 20.468 45.9412 20.1953 45.9412C19.9229 45.9412 19.6624 46.0552 19.4777 46.2555C18.5328 47.2794 17.2328 47.9088 15.8557 48.0255L24.0233 39.8579V47.958C22.8389 47.7448 21.7399 47.1516 20.9128 46.2555ZM30.5224 46.2555C30.3374 46.0552 30.0772 45.9412 29.8045 45.9412C29.5321 45.9412 29.272 46.0552 29.0869 46.2555C28.2599 47.1516 27.1609 47.7451 25.9764 47.958V39.8579L34.1441 48.0255C32.767 47.9084 31.4673 47.2794 30.5224 46.2555Z" fill="#F4C430"/>
<path d="M38.0371 1.95312C38.2938 1.95312 38.546 1.8486 38.7276 1.66702C38.9091 1.48544 39.0137 1.23329 39.0137 0.976562C39.0137 0.719833 38.9091 0.467682 38.7276 0.286102C38.546 0.104523 38.2938 0 38.0371 0C37.7804 0 37.5282 0.104523 37.3466 0.286102C37.1651 0.467682 37.0605 0.719833 37.0605 0.976562C37.0605 1.23329 37.1651 1.48544 37.3466 1.66702C37.5286 1.8486 37.7804 1.95312 38.0371 1.95312Z" fill="#F4C430"/>
<path d="M36.8293 5.85938H49.0234C49.5628 5.85938 49.9999 5.42221 49.9999 4.88281C49.9999 4.34341 49.5628 3.90625 49.0234 3.90625H36.8293C36.2899 3.90625 35.8528 4.34341 35.8528 4.88281C35.8528 5.42221 36.2899 5.85938 36.8293 5.85938Z" fill="#F4C430"/>
<path d="M29.9541 3.90625C29.4147 3.90625 28.9775 4.34341 28.9775 4.88281C28.9775 5.42221 29.4147 5.85938 29.9541 5.85938H32.6301C33.1691 5.85938 33.6067 5.42221 33.6067 4.88281C33.6067 4.34341 33.1691 3.90625 32.6301 3.90625H29.9541Z" fill="#F4C430"/>
</g>
<defs>
<clipPath id="clip0_18117_35968">
<rect width="50" height="50" fill="white"/>
</clipPath>
</defs>
</svg>
