<svg width="60" height="60" viewBox="0 0 60 60" fill="none" xmlns="http://www.w3.org/2000/svg">
<path d="M0 30C0 13.4315 13.4315 0 30 0C46.5685 0 60 13.4315 60 30C60 46.5685 46.5685 60 30 60C13.4315 60 0 46.5685 0 30Z" fill="#F4C430"/>
<path fill-rule="evenodd" clip-rule="evenodd" d="M47.5078 39.2812H12.4922C12.2109 39.2812 12 39.0703 12 38.7891V14.0391C12 13.7578 12.2109 13.5469 12.4922 13.5469H47.5078C47.7891 13.5469 48 13.7578 48 14.0391V38.7891C48 39.0703 47.7891 39.2812 47.5078 39.2812ZM12.9844 38.2969H47.0156V14.5312H12.9844V38.2969Z" fill="#1A1A1A"/>
<path fill-rule="evenodd" clip-rule="evenodd" d="M47.5078 35.3438H12.4922C12.2109 35.3438 12 35.1328 12 34.8516C12 34.5703 12.2109 34.3594 12.4922 34.3594H47.5078C47.7891 34.3594 48 34.5703 48 34.8516C48 35.1328 47.7891 35.3438 47.5078 35.3438Z" fill="#1A1A1A"/>
<path fill-rule="evenodd" clip-rule="evenodd" d="M30.4219 37.3828H28.875C28.5938 37.3828 28.3828 37.1719 28.3828 36.8906C28.3828 36.6094 28.5938 36.3984 28.875 36.3984H30.4219C30.7031 36.3984 30.9141 36.6094 30.9141 36.8906C30.9141 37.1719 30.7031 37.3828 30.4219 37.3828Z" fill="#1A1A1A"/>
<path fill-rule="evenodd" clip-rule="evenodd" d="M20.2266 31.6172C19.9453 31.6172 19.7344 31.4062 19.7344 31.125V16.7812C19.7344 16.5 19.9453 16.2891 20.2266 16.2891C20.5078 16.2891 20.7188 16.5 20.7188 16.7812V31.125C20.7188 31.4062 20.5078 31.6172 20.2266 31.6172Z" fill="#1A1A1A"/>
<path fill-rule="evenodd" clip-rule="evenodd" d="M20.2266 17.8359H18.4688C18.1875 17.8359 17.9766 17.625 17.9766 17.3438C17.9766 17.0625 18.1875 16.8516 18.4688 16.8516H20.2266C20.5078 16.8516 20.7188 17.0625 20.7188 17.3438C20.7188 17.625 20.5078 17.8359 20.2266 17.8359Z" fill="#1A1A1A"/>
<path fill-rule="evenodd" clip-rule="evenodd" d="M20.2266 20.7188H18.4688C18.1875 20.7188 17.9766 20.5078 17.9766 20.2266C17.9766 19.9453 18.1875 19.7344 18.4688 19.7344H20.2266C20.5078 19.7344 20.7188 19.9453 20.7188 20.2266C20.7188 20.5078 20.5078 20.7188 20.2266 20.7188Z" fill="#1A1A1A"/>
<path fill-rule="evenodd" clip-rule="evenodd" d="M20.2266 23.6719H18.4688C18.1875 23.6719 17.9766 23.4609 17.9766 23.1797C17.9766 22.8984 18.1875 22.6875 18.4688 22.6875H20.2266C20.5078 22.6875 20.7188 22.8984 20.7188 23.1797C20.7188 23.4609 20.5078 23.6719 20.2266 23.6719Z" fill="#1A1A1A"/>
<path fill-rule="evenodd" clip-rule="evenodd" d="M20.2266 26.5547H18.4688C18.1875 26.5547 17.9766 26.3438 17.9766 26.0625C17.9766 25.7812 18.1875 25.5703 18.4688 25.5703H20.2266C20.5078 25.5703 20.7188 25.7812 20.7188 26.0625C20.7188 26.3438 20.5078 26.5547 20.2266 26.5547Z" fill="#1A1A1A"/>
<path fill-rule="evenodd" clip-rule="evenodd" d="M20.2266 29.5078H18.4688C18.1875 29.5078 17.9766 29.2969 17.9766 29.0156C17.9766 28.7344 18.1875 28.5234 18.4688 28.5234H20.2266C20.5078 28.5234 20.7188 28.7344 20.7188 29.0156C20.7188 29.2969 20.5078 29.5078 20.2266 29.5078Z" fill="#1A1A1A"/>
<path fill-rule="evenodd" clip-rule="evenodd" d="M35.2734 31.6172H19.1719C18.8906 31.6172 18.6797 31.4062 18.6797 31.125C18.6797 30.8438 18.8906 30.6328 19.1719 30.6328H35.2734C35.5547 30.6328 35.7656 30.8438 35.7656 31.125C35.7656 31.4062 35.5547 31.6172 35.2734 31.6172Z" fill="#1A1A1A"/>
<path fill-rule="evenodd" clip-rule="evenodd" d="M22.2656 33.375C21.9844 33.375 21.7734 33.1641 21.7734 32.8828V31.125C21.7734 30.8438 21.9844 30.6328 22.2656 30.6328C22.5469 30.6328 22.7578 30.8438 22.7578 31.125V32.8828C22.7578 33.1641 22.5469 33.375 22.2656 33.375Z" fill="#1A1A1A"/>
<path fill-rule="evenodd" clip-rule="evenodd" d="M25.2188 33.375C24.9375 33.375 24.7266 33.1641 24.7266 32.8828V31.125C24.7266 30.8438 24.9375 30.6328 25.2188 30.6328C25.5 30.6328 25.7109 30.8438 25.7109 31.125V32.8828C25.7109 33.1641 25.5 33.375 25.2188 33.375Z" fill="#1A1A1A"/>
<path fill-rule="evenodd" clip-rule="evenodd" d="M28.1719 33.375C27.8906 33.375 27.6797 33.1641 27.6797 32.8828V31.125C27.6797 30.8438 27.8906 30.6328 28.1719 30.6328C28.4531 30.6328 28.6641 30.8438 28.6641 31.125V32.8828C28.6641 33.1641 28.4531 33.375 28.1719 33.375Z" fill="#1A1A1A"/>
<path fill-rule="evenodd" clip-rule="evenodd" d="M31.0547 33.375C30.7734 33.375 30.5625 33.1641 30.5625 32.8828V31.125C30.5625 30.8438 30.7734 30.6328 31.0547 30.6328C31.3359 30.6328 31.5469 30.8438 31.5469 31.125V32.8828C31.5469 33.1641 31.3359 33.375 31.0547 33.375Z" fill="#1A1A1A"/>
<path fill-rule="evenodd" clip-rule="evenodd" d="M34.0078 33.375C33.7266 33.375 33.5156 33.1641 33.5156 32.8828V31.125C33.5156 30.8438 33.7266 30.6328 34.0078 30.6328C34.2891 30.6328 34.5 30.8438 34.5 31.125V32.8828C34.5 33.1641 34.2891 33.375 34.0078 33.375Z" fill="#1A1A1A"/>
<path fill-rule="evenodd" clip-rule="evenodd" d="M20.2265 28.5938C20.1562 28.5938 20.0155 28.5938 19.9452 28.5234C19.7343 28.3828 19.664 28.1016 19.8046 27.8203L22.3359 23.8828C22.4765 23.6719 22.828 23.6016 23.039 23.7422C23.2499 23.8828 23.3202 24.2344 23.1796 24.4453L20.6484 28.3828C20.578 28.5234 20.3671 28.5938 20.2265 28.5938ZM27.539 26.625C27.4687 26.625 27.328 26.625 27.2577 26.5547L24.0937 24.3047C23.8827 24.1641 23.8124 23.8125 23.953 23.6016C24.164 23.3906 24.4452 23.3203 24.6562 23.4609L27.8202 25.7109C28.0312 25.9219 28.1015 26.2031 27.9609 26.4141C27.8202 26.5547 27.6796 26.625 27.539 26.625ZM29.1562 26.3438C29.0859 26.3438 28.9452 26.3438 28.8749 26.2734C28.664 26.1328 28.5937 25.8516 28.7343 25.5703L33.5859 18.2578C33.3046 17.9062 33.164 17.5547 33.164 17.1328C33.164 16.2188 33.9374 15.4453 34.8515 15.4453C35.7655 15.4453 36.4687 16.2188 36.4687 17.1328C36.4687 18.0469 35.7655 18.75 34.8515 18.75C34.7109 18.75 34.5702 18.75 34.4296 18.6797L29.578 26.1328C29.4374 26.2734 29.2968 26.3438 29.1562 26.3438ZM34.3593 17.625C34.4296 17.625 34.4999 17.6953 34.4999 17.6953C34.5702 17.6953 34.7109 17.7656 34.8515 17.7656C35.203 17.7656 35.4843 17.4844 35.4843 17.1328C35.4843 16.7812 35.203 16.4297 34.8515 16.4297C34.4999 16.4297 34.1484 16.7812 34.1484 17.1328C34.1484 17.4141 34.289 17.5547 34.3593 17.625Z" fill="#1A1A1A"/>
<path fill-rule="evenodd" clip-rule="evenodd" d="M23.3906 24.8672C22.4766 24.8672 21.7734 24.1641 21.7734 23.25C21.7734 22.3359 22.4766 21.5625 23.3906 21.5625C24.3047 21.5625 25.0781 22.3359 25.0781 23.25C25.0781 24.1641 24.3047 24.8672 23.3906 24.8672ZM23.3906 22.5469C23.0391 22.5469 22.7578 22.8984 22.7578 23.25C22.7578 23.6016 23.0391 23.8828 23.3906 23.8828C23.7422 23.8828 24.0938 23.6016 24.0938 23.25C24.0938 22.8984 23.7422 22.5469 23.3906 22.5469Z" fill="#1A1A1A"/>
<path fill-rule="evenodd" clip-rule="evenodd" d="M28.5234 28.4531C27.6094 28.4531 26.8359 27.6797 26.8359 26.7656C26.8359 25.8516 27.6094 25.1484 28.5234 25.1484C29.4375 25.1484 30.1406 25.8516 30.1406 26.7656C30.1406 27.6797 29.4375 28.4531 28.5234 28.4531ZM28.5234 26.1328C28.1719 26.1328 27.8203 26.4141 27.8203 26.7656C27.8203 27.1172 28.1719 27.4688 28.5234 27.4688C28.875 27.4688 29.1562 27.1172 29.1562 26.7656C29.1562 26.4141 28.875 26.1328 28.5234 26.1328Z" fill="#1A1A1A"/>
<path fill-rule="evenodd" clip-rule="evenodd" d="M32.7422 43.9922H27.8906C27.6094 43.9922 27.3984 43.7812 27.3984 43.5V38.8594C27.3984 38.5781 27.6094 38.3672 27.8906 38.3672H32.7422C33.0234 38.3672 33.2344 38.5781 33.2344 38.8594V43.5C33.2344 43.7812 33.0234 43.9922 32.7422 43.9922ZM28.3828 43.0078H32.25V39.3516H28.3828V43.0078Z" fill="#1A1A1A"/>
<path fill-rule="evenodd" clip-rule="evenodd" d="M38.7891 46.4531H21.7734C21.4922 46.4531 21.2812 46.2422 21.2812 45.9609V43.4297C21.2812 43.1484 21.4922 42.9375 21.7734 42.9375H38.7891C39.0703 42.9375 39.2812 43.1484 39.2812 43.4297V45.9609C39.2812 46.2422 39.0703 46.4531 38.7891 46.4531ZM22.2656 45.4688H38.2969V43.9219H22.2656V45.4688Z" fill="#1A1A1A"/>
</svg>
