<svg width="36" height="36" viewBox="0 0 36 36" fill="none" xmlns="http://www.w3.org/2000/svg">
<path d="M8.39978 23.9998H11.9998C12.3312 23.9998 12.5998 23.7311 12.5998 23.3998C12.5998 23.0684 12.3312 22.7998 11.9998 22.7998H8.39978C8.0684 22.7998 7.7998 23.0685 7.7998 23.3998C7.79973 23.7312 8.0684 23.9998 8.39978 23.9998Z" fill="#1A1A1A"/>
<path d="M13.1996 25.2002H7.19959C6.8682 25.2002 6.59961 25.4688 6.59961 25.8002C6.59961 26.1316 6.8682 26.4001 7.19959 26.4001H13.1996C13.5309 26.4001 13.7995 26.1316 13.7995 25.8002C13.7995 25.4688 13.5309 25.2002 13.1996 25.2002Z" fill="#1A1A1A"/>
<path d="M10.1996 18.6C10.531 18.6 10.7996 18.3314 10.7996 18V3.59998C10.7996 3.26859 10.5309 3 10.1996 3C9.86827 3 9.59961 3.26859 9.59961 3.59998V18C9.59954 18.3314 9.8682 18.6 10.1996 18.6Z" fill="#1A1A1A"/>
<path d="M27.1354 13.5563C27.5618 14.214 28.3442 14.501 29.0651 14.3288L30.0993 15.9261C30.2794 16.2043 30.6509 16.2838 30.9291 16.1037C31.2072 15.9237 31.2867 15.5521 31.1067 15.274L30.0725 13.6766C30.5248 13.0892 30.5833 12.2575 30.1575 11.5998L29.505 10.5924L30.0087 10.2663C30.2868 10.0863 30.3663 9.71487 30.1863 9.43671L28.8825 7.42191C28.7024 7.14368 28.3309 7.06409 28.0526 7.24423L27.5371 7.578L25.5861 4.71234C25.7236 4.3683 25.8 3.99319 25.8 3.60007C25.8 1.9433 24.4567 0.600047 22.8 0.600047C21.8186 0.600047 20.9473 1.07142 20.4 1.80007H13.641C12.8802 0.713812 11.6203 0 10.2 0C7.88864 0 6.00005 1.88866 6.00005 4.19998V15.6601C4.63071 15.9382 3.6 17.1487 3.6 18.6V27.6H3.00002C2.66864 27.6 2.40005 27.8686 2.40005 28.2V30H1.8C1.46862 30 1.20002 30.2685 1.20002 30.5999V32.3999H0.599977C0.268594 32.4 0 32.6687 0 33V35.4C0 35.7314 0.268594 36 0.599977 36H19.8C20.1314 36 20.4 35.7314 20.4 35.4V33C20.4 32.6687 20.1314 32.4001 19.8 32.4001H19.2V30.6001C19.2 30.2687 18.9314 30.0001 18.6 30.0001H18V28.2001C18 27.8687 17.7314 27.6001 17.4 27.6001H16.8V18.6001C16.8 17.1489 15.7693 15.9382 14.4001 15.6603V5.4H20.4001C20.8923 6.05517 21.6464 6.50208 22.507 6.58554L24.5152 9.53445L24.0232 9.85296C23.745 10.033 23.6655 10.4046 23.8456 10.6827L25.15 12.6975C25.3301 12.9757 25.7016 13.0552 25.9798 12.8751L26.4834 12.549L27.1354 13.5563ZM28.1424 12.9038L27.4906 11.8969L28.4977 11.2447L29.1502 12.2519C29.3297 12.5293 29.2507 12.9003 28.974 13.0805C28.9735 13.0809 28.9729 13.0811 28.9724 13.0814C28.9719 13.0818 28.9715 13.0821 28.9709 13.0825C28.6931 13.2613 28.3226 13.1816 28.1424 12.9038ZM7.2 4.19998C7.2 2.55136 8.55134 1.19995 10.2 1.19995C11.2896 1.19995 12.2489 1.79037 12.7745 2.6666C12.7804 2.67834 12.7852 2.69023 12.7919 2.70176C12.9893 3.04087 13.1179 3.40995 13.1715 3.79378C13.173 3.80461 13.1743 3.81558 13.1757 3.82648C13.1819 3.87464 13.1866 3.92316 13.1904 3.97174C13.1916 3.98763 13.1931 4.00345 13.1941 4.01941C13.1976 4.07686 13.1997 4.13452 13.1998 4.19238C13.1998 4.19491 13.2 4.19737 13.2 4.19991V16.2V17.265C13.2 18.6185 12.363 19.8104 11.1798 20.2335C11.1534 20.2428 11.127 20.2522 11.1002 20.2607C11.0931 20.263 11.086 20.2652 11.0789 20.2674C10.9022 20.3221 10.7188 20.3604 10.5303 20.3813C10.5147 20.383 10.4993 20.3848 10.4838 20.3862C10.4527 20.3891 10.4214 20.3914 10.39 20.3934C10.3633 20.395 10.3366 20.3963 10.3101 20.3972C10.2864 20.3981 10.2627 20.3987 10.239 20.3991C10.2045 20.3994 10.1702 20.3992 10.136 20.3984C10.1192 20.3981 10.1024 20.3978 10.0856 20.3972C10.0425 20.3955 9.9997 20.3928 9.95709 20.3893C9.94894 20.3887 9.94078 20.3882 9.9327 20.3874C9.44838 20.3432 8.99437 20.1829 8.60084 19.9335C8.59894 19.9323 8.59697 19.931 8.59507 19.9297C8.55541 19.9045 8.51639 19.8781 8.478 19.851C8.47153 19.8465 8.46506 19.8418 8.45859 19.8372C8.42548 19.8134 8.39292 19.789 8.36079 19.7639C8.35045 19.7558 8.34012 19.7478 8.32992 19.7396C8.30271 19.7178 8.27599 19.6954 8.24955 19.6727C8.23584 19.6609 8.22206 19.6492 8.20856 19.6372C8.18698 19.618 8.16595 19.5982 8.14493 19.5784C8.12791 19.5623 8.11076 19.5465 8.09409 19.5299C8.07862 19.5147 8.06372 19.4989 8.04853 19.4833C8.02765 19.4617 8.00662 19.4403 7.98637 19.4181C7.97878 19.4099 7.97161 19.4013 7.96416 19.3929C7.74752 19.1503 7.56921 18.8729 7.4397 18.5701C7.43836 18.5671 7.43702 18.564 7.43576 18.561C7.41881 18.521 7.40292 18.4805 7.38766 18.4397C7.38506 18.4328 7.38246 18.4259 7.37993 18.4189C7.36608 18.3809 7.35307 18.3425 7.34077 18.3038C7.33739 18.2933 7.33409 18.2827 7.33085 18.272C7.31981 18.236 7.30941 18.1998 7.2997 18.1632C7.29598 18.149 7.29246 18.1347 7.28888 18.1204C7.28044 18.0866 7.27235 18.0525 7.26511 18.0182C7.26131 18.0001 7.25794 17.9818 7.25442 17.9636C7.24838 17.9323 7.24247 17.901 7.23748 17.8694C7.23382 17.8463 7.23094 17.823 7.22777 17.7997C7.22405 17.772 7.22011 17.7445 7.21709 17.7166C7.21385 17.6862 7.21174 17.6555 7.20949 17.6249C7.20788 17.6033 7.2057 17.5818 7.2045 17.5601C7.20169 17.507 7.20007 17.4536 7.20007 17.3999V16.2L7.2 4.19998ZM19.2 34.8H1.20002V33.6H1.8H18.6H19.2L19.2 34.8ZM2.39998 32.4V31.2H2.99995H17.4H18V32.4H2.39998ZM3.6 30V28.8H4.19998H16.2H16.8V30H3.6ZM15.6 18.6V27.6H4.80002V18.6C4.80002 17.8163 5.30093 17.1496 6.00005 16.9024V17.4C6.00005 17.4753 6.0023 17.5502 6.00623 17.6246C6.00778 17.6543 6.0108 17.6835 6.01298 17.713C6.01629 17.7569 6.01924 17.8009 6.02388 17.8444C6.02782 17.8819 6.03323 17.9189 6.03816 17.9561C6.0428 17.9906 6.04702 18.0252 6.0525 18.0593C6.05918 18.1012 6.06705 18.1427 6.07493 18.1842C6.08034 18.2126 6.08555 18.241 6.09152 18.2691C6.10109 18.3142 6.1117 18.3589 6.12267 18.4034C6.12851 18.4269 6.1342 18.4504 6.14046 18.4737C6.15305 18.5212 6.16662 18.5683 6.18082 18.6152C6.18666 18.6345 6.19263 18.6538 6.19875 18.6729C6.21464 18.7225 6.2313 18.7718 6.24895 18.8207C6.25444 18.8359 6.26013 18.8509 6.26576 18.866C6.28516 18.9178 6.30527 18.969 6.32665 19.0198C6.33122 19.0307 6.33607 19.0414 6.34071 19.0522C6.36398 19.1063 6.3881 19.1599 6.41355 19.2127C6.4163 19.2184 6.41918 19.2239 6.42192 19.2296C6.59018 19.5747 6.80421 19.8928 7.05593 20.1768C7.07133 20.1942 7.08638 20.212 7.10213 20.2292C7.12779 20.2572 7.15437 20.2843 7.1808 20.3117C7.20429 20.3361 7.2277 20.3605 7.25175 20.3844C7.27411 20.4064 7.29703 20.4278 7.31988 20.4493C7.3497 20.4775 7.37965 20.5055 7.41023 20.5329C7.42964 20.5502 7.44947 20.567 7.46923 20.584C7.5048 20.6146 7.5408 20.6447 7.57744 20.6741C7.59403 20.6874 7.61077 20.7006 7.62764 20.7136C7.66898 20.7458 7.71082 20.7771 7.75336 20.8078C7.76686 20.8175 7.78043 20.8272 7.79407 20.8368C7.84146 20.8701 7.88955 20.9023 7.93828 20.9337C7.9482 20.9401 7.95804 20.9465 7.96795 20.9528C8.02202 20.9869 8.07701 21.0199 8.1327 21.0516C8.13818 21.0547 8.14352 21.0579 8.14901 21.061C8.52827 21.2748 8.94333 21.4317 9.38292 21.5191C9.38398 21.5194 9.38503 21.5195 9.38609 21.5197C9.45499 21.5333 9.52453 21.5453 9.59463 21.5555C9.61207 21.558 9.62965 21.5599 9.64716 21.5622C9.7008 21.5693 9.75459 21.576 9.80887 21.581C9.83566 21.5835 9.86273 21.5852 9.88966 21.5872C9.93495 21.5906 9.98023 21.5937 10.0259 21.5955C10.0587 21.5969 10.0917 21.5974 10.1247 21.598C10.1499 21.5985 10.1749 21.5999 10.2002 21.5999C10.2156 21.5999 10.2307 21.5989 10.246 21.5987C10.2823 21.5984 10.3187 21.5973 10.3552 21.5959C10.3924 21.5946 10.4295 21.5928 10.4664 21.5905C10.5064 21.588 10.5466 21.585 10.5869 21.5813C10.6169 21.5786 10.6469 21.5753 10.6767 21.5719C10.7055 21.5687 10.7341 21.5667 10.763 21.5629C10.7862 21.5599 10.809 21.5556 10.8321 21.5521C10.8366 21.5514 10.8412 21.5506 10.8458 21.5499C10.9807 21.5292 11.1132 21.5018 11.2432 21.4681C11.2459 21.4674 11.2485 21.4667 11.2512 21.466C11.3086 21.4509 11.3656 21.4347 11.422 21.4173C11.4373 21.4125 11.4526 21.4078 11.4678 21.403C11.5052 21.3909 11.5423 21.3782 11.5793 21.3651C11.6162 21.3521 11.653 21.3389 11.6894 21.3249C11.6968 21.3221 11.7041 21.3191 11.7116 21.3161C13.2809 20.7064 14.4002 19.1789 14.4002 17.3999V17.2649V16.9024C15.099 17.1496 15.6 17.8163 15.6 18.6ZM14.4001 4.19998C14.4001 4.13592 14.398 4.07215 14.3951 4.00852C14.3942 3.98904 14.393 3.9697 14.3919 3.9503C14.3892 3.90642 14.3859 3.86269 14.3819 3.81902C14.3798 3.7961 14.3779 3.77318 14.3755 3.7504C14.3698 3.69795 14.3632 3.6457 14.3555 3.59367C14.3493 3.55148 14.3419 3.50979 14.3345 3.46802C14.3321 3.4548 14.3299 3.44159 14.3274 3.42844C14.3002 3.28289 14.2656 3.13988 14.2237 2.99995H19.8602C19.8208 3.1938 19.8001 3.39448 19.8001 3.59993C19.8001 3.80538 19.8208 4.00605 19.8602 4.19991H14.4001V4.19998ZM21.2918 4.58205C21.2806 4.55365 21.2675 4.52545 21.2514 4.49782C21.1078 4.25159 21.0234 3.98869 21.0043 3.71834C21.0042 3.71735 21.0042 3.71644 21.0041 3.71545C21.0014 3.67713 21.0001 3.63867 21.0001 3.60007C21.0001 3.56147 21.0014 3.52301 21.0041 3.48469C21.0042 3.4837 21.0042 3.48272 21.0043 3.4818C21.0234 3.21145 21.1079 2.94848 21.2514 2.70232C21.2675 2.67469 21.2806 2.64649 21.2918 2.61809C21.6131 2.12576 22.1683 1.80014 22.8 1.80014C23.794 1.80014 24.6 2.60613 24.6 3.60014C24.6 3.8463 24.5504 4.08087 24.4609 4.29455L24.3659 4.4659C24.0525 5.03079 23.472 5.38847 22.8239 5.39719L22.7339 5.39838C22.1298 5.37652 21.6018 5.05709 21.2918 4.58205ZM23.8418 6.41391C24.2244 6.27216 24.5699 6.05426 24.8607 5.77905L26.5295 8.23015L25.837 8.6786L25.5227 8.88209L23.8418 6.41391ZM25.8311 11.5417L25.1789 10.5342L25.1908 10.5266L25.1909 10.5268L26.4989 9.67971L28.2011 8.57763L28.853 9.585L25.8311 11.5417Z" fill="#1A1A1A"/>
<path d="M35.4004 22.8C35.7318 22.8 36.0004 22.5314 36.0004 22.2V18.6C36.0004 18.2686 35.7318 18 35.4004 18H27.0004C26.669 18 26.4004 18.2686 26.4004 18.6V22.2C26.4004 22.5314 26.669 22.8 27.0004 22.8H27.6003V31.2H27.0004C26.669 31.2 26.4004 31.4686 26.4004 31.8V35.4C26.4004 35.7313 26.669 35.9999 27.0004 35.9999H35.4004C35.7318 35.9999 36.0004 35.7313 36.0004 35.4V31.8C36.0004 31.4686 35.7318 31.2 35.4004 31.2H34.8004V22.8H35.4004ZM27.6003 19.2H34.8003V21.5999H34.2004H28.2004H27.6004V19.2H27.6003ZM34.8003 34.7999H27.6003V32.3999H28.2003H34.2004H34.8003V34.7999ZM33.6004 31.1999H28.8004V22.8H33.6004V31.1999Z" fill="#1A1A1A"/>
</svg>
